<svg width="86" height="86" viewBox="0 0 86 86" fill="none" xmlns="http://www.w3.org/2000/svg">
<rect x="17.9844" width="69.4861" height="69.4861" rx="22" transform="rotate(15 17.9844 0)" fill="#F0C733" fill-opacity="0.1"/>
<path d="M62.2544 52.1347L60.25 51.5977L59.7131 53.6014L61.7175 54.1384L62.2544 52.1347Z" fill="#222221"/>
<path d="M62.7935 50.1269L60.7891 49.5898L60.2514 51.5964L62.2558 52.1335L62.7935 50.1269Z" fill="#222221"/>
<path d="M63.3325 48.1152L61.3281 47.5781L60.7912 49.5818L62.7956 50.1189L63.3325 48.1152Z" fill="#222221"/>
<path d="M59.1751 55.6003L57.168 55.0625L56.6303 57.069L58.6375 57.6069L59.1751 55.6003Z" fill="#222221"/>
<path d="M59.7142 53.5925L57.707 53.0547L57.1701 55.0584L59.1773 55.5962L59.7142 53.5925Z" fill="#222221"/>
<path d="M60.2494 51.5925L58.2422 51.0547L57.7053 53.0584L59.7125 53.5962L60.2494 51.5925Z" fill="#222221"/>
<path d="M56.6372 57.0683L54.6328 56.5312L54.0959 58.5349L56.1003 59.072L56.6372 57.0683Z" fill="#222221"/>
<path d="M54.0892 58.5378L52.082 58L51.5444 60.0065L53.5516 60.5444L54.0892 58.5378Z" fill="#222221"/>
<path d="M51.5434 60.0019L49.5391 59.4648L49.0022 61.4686L51.0066 62.0056L51.5434 60.0019Z" fill="#222221"/>
<path d="M49.0111 61.4714L47.0039 60.9336L46.4663 62.9401L48.4734 63.478L49.0111 61.4714Z" fill="#222221"/>
<path d="M46.4614 62.9433L44.457 62.4062L43.9201 64.41L45.9245 64.9471L46.4614 62.9433Z" fill="#222221"/>
<path d="M47.0005 60.9316L44.9961 60.3945L44.4584 62.4011L46.4628 62.9381L47.0005 60.9316Z" fill="#222221"/>
<path d="M44.4603 62.4011L42.4531 61.8633L41.9162 63.867L43.9234 64.4049L44.4603 62.4011Z" fill="#222221"/>
<path d="M41.9145 63.8652L39.9102 63.3281L39.3725 65.3346L41.3769 65.8717L41.9145 63.8652Z" fill="#222221"/>
<path d="M42.4497 61.8652L40.4453 61.3281L39.9084 63.3319L41.9128 63.8689L42.4497 61.8652Z" fill="#222221"/>
<path d="M39.9095 63.3269L37.9023 62.7891L37.3647 64.7956L39.3719 65.3334L39.9095 63.3269Z" fill="#222221"/>
<path d="M37.9028 62.791L35.8984 62.2539L35.3608 64.2604L37.3652 64.7975L37.9028 62.791Z" fill="#222221"/>
<path d="M35.8951 62.2519L33.8906 61.7148L33.353 63.7213L35.3574 64.2584L35.8951 62.2519Z" fill="#222221"/>
<path d="M33.89 61.7136L31.8828 61.1758L31.3452 63.1823L33.3524 63.7201L33.89 61.7136Z" fill="#222221"/>
<path d="M34.4291 59.7175L32.4219 59.1797L31.885 61.1834L33.8922 61.7213L34.4291 59.7175Z" fill="#222221"/>
<path d="M32.4184 59.1777L30.4141 58.6406L29.8772 60.6444L31.8815 61.1814L32.4184 59.1777Z" fill="#222221"/>
<path d="M30.4173 58.6433L28.4102 58.1055L27.8733 60.1092L29.8804 60.647L30.4173 58.6433Z" fill="#222221"/>
<path d="M30.9564 56.6355L28.9492 56.0977L28.4116 58.1042L30.4187 58.642L30.9564 56.6355Z" fill="#222221"/>
<path d="M28.9497 56.0996L26.9453 55.5625L26.4077 57.569L28.412 58.1061L28.9497 56.0996Z" fill="#222221"/>
<path d="M27.4798 53.5574L25.4727 53.0195L24.9358 55.0232L26.943 55.5611L27.4798 53.5574Z" fill="#222221"/>
<path d="M26.0044 51.0136L24 50.4766L23.4623 52.4831L25.4667 53.0202L26.0044 51.0136Z" fill="#222221"/>
<path d="M24.5423 48.4675L22.5352 47.9297L21.9983 49.9334L24.0055 50.4712L24.5423 48.4675Z" fill="#222221"/>
<path d="M23.0747 45.9277L21.0703 45.3906L20.5327 47.3972L22.537 47.9342L23.0747 45.9277Z" fill="#222221"/>
<path d="M23.6138 43.9199L21.6094 43.3828L21.0725 45.3865L23.0769 45.9236L23.6138 43.9199Z" fill="#222221"/>
<path d="M24.145 41.9238L22.1406 41.3867L21.6037 43.3904L23.6081 43.9275L24.145 41.9238Z" fill="#222221"/>
<path d="M22.1439 41.3816L20.1367 40.8438L19.5998 42.8475L21.607 43.3853L22.1439 41.3816Z" fill="#222221"/>
<path d="M22.683 39.3777L20.6758 38.8398L20.1381 40.8464L22.1453 41.3843L22.683 39.3777Z" fill="#222221"/>
<path d="M23.2181 37.3699L21.2109 36.832L20.674 38.8357L22.6812 39.3736L23.2181 37.3699Z" fill="#222221"/>
<path d="M64.9458 42.0996L62.9414 41.5625L62.4045 43.5662L64.4089 44.1033L64.9458 42.0996Z" fill="#222221"/>
<path d="M64.4067 44.1074L62.4023 43.5703L61.8647 45.5769L63.8691 46.1139L64.4067 44.1074Z" fill="#222221"/>
<path d="M63.8677 46.1113L61.8633 45.5742L61.3264 47.5779L63.3308 48.115L63.8677 46.1113Z" fill="#222221"/>
<path d="M64.015 37.5495L62.0078 37.0117L61.4702 39.0182L63.4773 39.556L64.015 37.5495Z" fill="#222221"/>
<path d="M63.4759 39.5613L61.4688 39.0234L60.9318 41.0272L62.939 41.565L63.4759 39.5613Z" fill="#222221"/>
<path d="M62.9369 41.5652L60.9297 41.0273L60.3928 43.0311L62.4 43.5689L62.9369 41.5652Z" fill="#222221"/>
<path d="M62.5434 35.0136L60.5391 34.4766L60.0022 36.4803L62.0065 37.0174L62.5434 35.0136Z" fill="#222221"/>
<path d="M61.0775 32.4675L59.0703 31.9297L58.5327 33.9362L60.5399 34.4741L61.0775 32.4675Z" fill="#222221"/>
<path d="M59.602 29.9238L57.5977 29.3867L57.0608 31.3904L59.0651 31.9275L59.602 29.9238Z" fill="#222221"/>
<path d="M58.1439 27.3894L56.1367 26.8516L55.5991 28.8581L57.6063 29.3959L58.1439 27.3894Z" fill="#222221"/>
<path d="M56.6685 24.8457L54.6641 24.3086L54.1272 26.3123L56.1316 26.8494L56.6685 24.8457Z" fill="#222221"/>
<path d="M56.1333 26.8496L54.1289 26.3125L53.5913 28.319L55.5957 28.8561L56.1333 26.8496Z" fill="#222221"/>
<path d="M54.6673 24.3074L52.6602 23.7695L52.1233 25.7732L54.1305 26.3111L54.6673 24.3074Z" fill="#222221"/>
<path d="M53.1958 21.7636L51.1914 21.2266L50.6538 23.2331L52.6581 23.7702L53.1958 21.7636Z" fill="#222221"/>
<path d="M52.6567 23.7675L50.6523 23.2305L50.1155 25.2342L52.1198 25.7712L52.6567 23.7675Z" fill="#222221"/>
<path d="M51.1908 21.2214L49.1836 20.6836L48.6459 22.6901L50.6531 23.2279L51.1908 21.2214Z" fill="#222221"/>
<path d="M49.1841 20.6855L47.1797 20.1484L46.642 22.155L48.6464 22.692L49.1841 20.6855Z" fill="#222221"/>
<path d="M47.1763 20.1504L45.1719 19.6133L44.6342 21.6198L46.6387 22.1569L47.1763 20.1504Z" fill="#222221"/>
<path d="M45.1752 19.612L43.168 19.0742L42.6303 21.0807L44.6375 21.6186L45.1752 19.612Z" fill="#222221"/>
<path d="M44.6361 21.6199L42.6289 21.082L42.092 23.0857L44.0992 23.6236L44.6361 21.6199Z" fill="#222221"/>
<path d="M42.6255 21.08L40.6211 20.543L40.0842 22.5467L42.0886 23.0837L42.6255 21.08Z" fill="#222221"/>
<path d="M40.6244 20.5456L38.6172 20.0078L38.0803 22.0115L40.0875 22.5493L40.6244 20.5456Z" fill="#222221"/>
<path d="M40.0892 22.5495L38.082 22.0117L37.5444 24.0183L39.5516 24.5561L40.0892 22.5495Z" fill="#222221"/>
<path d="M38.0825 22.0097L36.0781 21.4727L35.5405 23.4792L37.5449 24.0163L38.0825 22.0097Z" fill="#222221"/>
<path d="M35.5423 23.4792L33.5352 22.9414L32.9983 24.9451L35.0055 25.4829L35.5423 23.4792Z" fill="#222221"/>
<path d="M32.9888 24.9433L30.9844 24.4062L30.4467 26.4128L32.4511 26.9499L32.9888 24.9433Z" fill="#222221"/>
<path d="M30.4525 26.4128L28.4453 25.875L27.9084 27.8787L29.9156 28.4166L30.4525 26.4128Z" fill="#222221"/>
<path d="M27.9106 27.8808L25.9062 27.3438L25.3686 29.3502L27.373 29.8873L27.9106 27.8808Z" fill="#222221"/>
<path d="M27.3716 29.8886L25.3672 29.3516L24.8303 31.3553L26.8347 31.8924L27.3716 29.8886Z" fill="#222221"/>
<path d="M26.8364 31.8886L24.832 31.3516L24.2951 33.3553L26.2995 33.8923L26.8364 31.8886Z" fill="#222221"/>
<path d="M24.8314 31.3542L22.8242 30.8164L22.2873 32.8201L24.2945 33.3579L24.8314 31.3542Z" fill="#222221"/>
<path d="M24.2963 33.3581L22.2891 32.8203L21.7514 34.8269L23.7586 35.3647L24.2963 33.3581Z" fill="#222221"/>
<path d="M23.7533 35.366L21.7461 34.8281L21.2092 36.8318L23.2164 37.3697L23.7533 35.366Z" fill="#222221"/>
<path d="M60.7884 49.5886L58.7812 49.0508L58.2436 51.0574L60.2508 51.5952L60.7884 49.5886Z" fill="#E79E39"/>
<path d="M61.3236 47.5808L59.3164 47.043L58.7795 49.0467L60.7867 49.5845L61.3236 47.5808Z" fill="#E79E39"/>
<path d="M61.8665 45.5769L59.8594 45.0391L59.3217 47.0456L61.3289 47.5834L61.8665 45.5769Z" fill="#E79E39"/>
<path d="M62.4017 43.5691L60.3945 43.0312L59.8576 45.035L61.8648 45.5728L62.4017 43.5691Z" fill="#E79E39"/>
<path d="M57.1724 55.0644L55.168 54.5273L54.6303 56.5339L56.6347 57.071L57.1724 55.0644Z" fill="#E79E39"/>
<path d="M57.7114 53.0566L55.707 52.5195L55.1701 54.5232L57.1745 55.0603L57.7114 53.0566Z" fill="#E79E39"/>
<path d="M58.2466 51.0566L56.2422 50.5195L55.7053 52.5232L57.7097 53.0603L58.2466 51.0566Z" fill="#E79E39"/>
<path d="M58.7817 49.0488L56.7773 48.5117L56.2397 50.5183L58.2441 51.0554L58.7817 49.0488Z" fill="#E79E39"/>
<path d="M59.3208 47.0449L57.3164 46.5078L56.7795 48.5115L58.7839 49.0486L59.3208 47.0449Z" fill="#E79E39"/>
<path d="M59.8599 45.041L57.8555 44.5039L57.3178 46.5104L59.3222 47.0475L59.8599 45.041Z" fill="#F0C733"/>
<path d="M60.3989 43.0293L58.3945 42.4922L57.8576 44.4959L59.862 45.033L60.3989 43.0293Z" fill="#F0C733"/>
<path d="M60.9341 41.0254L58.9297 40.4883L58.392 42.4948L60.3964 43.0318L60.9341 41.0254Z" fill="#F0C733"/>
<path d="M61.4692 39.0254L59.4648 38.4883L58.9279 40.492L60.9323 41.0291L61.4692 39.0254Z" fill="#F0C733"/>
<path d="M62.0083 37.0136L60.0039 36.4766L59.4663 38.4831L61.4707 39.0201L62.0083 37.0136Z" fill="#F0C733"/>
<path d="M54.6283 56.53L52.6211 55.9922L52.0842 57.9959L54.0914 58.5337L54.6283 56.53Z" fill="#E79E39"/>
<path d="M55.1673 54.53L53.1602 53.9922L52.6225 55.9987L54.6297 56.5366L55.1673 54.53Z" fill="#E79E39"/>
<path d="M55.7025 52.5183L53.6953 51.9805L53.1584 53.9842L55.1656 54.522L55.7025 52.5183Z" fill="#E79E39"/>
<path d="M56.2377 50.5222L54.2305 49.9844L53.6936 51.9881L55.7008 52.5259L56.2377 50.5222Z" fill="#E79E39"/>
<path d="M56.7767 48.5105L54.7695 47.9727L54.2319 49.9792L56.2391 50.5171L56.7767 48.5105Z" fill="#E79E39"/>
<path d="M57.3158 46.5066L55.3086 45.9688L54.7717 47.9725L56.7789 48.5103L57.3158 46.5066Z" fill="#F0C733"/>
<path d="M57.8509 44.5027L55.8438 43.9648L55.3061 45.9713L57.3133 46.5092L57.8509 44.5027Z" fill="#F0C733"/>
<path d="M58.3861 42.4949L56.3789 41.957L55.842 43.9608L57.8492 44.4986L58.3861 42.4949Z" fill="#F0C733"/>
<path d="M58.9291 40.487L56.9219 39.9492L56.3842 41.9557L58.3914 42.4935L58.9291 40.487Z" fill="#F0C733"/>
<path d="M59.4642 38.487L57.457 37.9492L56.9201 39.953L58.9273 40.4908L59.4642 38.487Z" fill="#F0C733"/>
<path d="M59.9994 36.4792L57.9922 35.9414L57.4545 37.9479L59.4617 38.4857L59.9994 36.4792Z" fill="#F0C733"/>
<path d="M60.5384 34.4753L58.5312 33.9375L57.9944 35.9412L60.0015 36.4791L60.5384 34.4753Z" fill="#F0C733"/>
<path d="M52.0825 58.0019L50.0781 57.4648L49.5405 59.4714L51.5449 60.0085L52.0825 58.0019Z" fill="#E79E39"/>
<path d="M52.6177 55.9902L50.6133 55.4531L50.0764 57.4568L52.0808 57.9939L52.6177 55.9902Z" fill="#E79E39"/>
<path d="M53.1528 53.9863L51.1484 53.4492L50.6108 55.4558L52.6152 55.9928L53.1528 53.9863Z" fill="#E79E39"/>
<path d="M53.6919 51.9824L51.6875 51.4453L51.1506 53.449L53.155 53.9861L53.6919 51.9824Z" fill="#F0C733"/>
<path d="M54.2309 49.9824L52.2266 49.4453L51.6897 51.449L53.6941 51.9861L54.2309 49.9824Z" fill="#F0C733"/>
<path d="M54.7661 47.9746L52.7617 47.4375L52.2241 49.4441L54.2284 49.9812L54.7661 47.9746Z" fill="#F0C733"/>
<path d="M55.3013 45.9668L53.2969 45.4297L52.76 47.4334L54.7644 47.9705L55.3013 45.9668Z" fill="#F0C733"/>
<path d="M55.8403 43.9629L53.8359 43.4258L53.2983 45.4323L55.3027 45.9693L55.8403 43.9629Z" fill="#F0C733"/>
<path d="M56.3794 41.955L54.375 41.418L53.8381 43.4217L55.8425 43.9588L56.3794 41.955Z" fill="#F0C733"/>
<path d="M56.9145 39.9511L54.9102 39.4141L54.3725 41.4206L56.3769 41.9576L56.9145 39.9511Z" fill="#F0C733"/>
<path d="M57.4497 37.9472L55.4453 37.4102L54.9084 39.4139L56.9128 39.951L57.4497 37.9472Z" fill="#F0C733"/>
<path d="M57.9927 35.9394L55.9883 35.4023L55.4506 37.4088L57.455 37.9459L57.9927 35.9394Z" fill="#F0C733"/>
<path d="M58.5278 33.9394L56.5234 33.4023L55.9865 35.4061L57.9909 35.9431L58.5278 33.9394Z" fill="#F0C733"/>
<path d="M59.0669 31.9277L57.0625 31.3906L56.5248 33.3972L58.5292 33.9342L59.0669 31.9277Z" fill="#F0C733"/>
<path d="M49.5463 59.4675L47.5391 58.9297L47.0022 60.9334L49.0094 61.4712L49.5463 59.4675Z" fill="#E79E39"/>
<path d="M50.0853 57.4636L48.0781 56.9258L47.5405 58.9323L49.5477 59.4701L50.0853 57.4636Z" fill="#E79E39"/>
<path d="M50.6244 55.4558L48.6172 54.918L48.0803 56.9216L50.0875 57.4595L50.6244 55.4558Z" fill="#E79E39"/>
<path d="M51.1595 53.4519L49.1523 52.9141L48.6147 54.9206L50.6219 55.4584L51.1595 53.4519Z" fill="#F0C733"/>
<path d="M51.6947 51.4441L49.6875 50.9062L49.1506 52.91L51.1578 53.4478L51.6947 51.4441Z" fill="#F0C733"/>
<path d="M52.2338 49.448L50.2266 48.9102L49.6897 50.9139L51.6969 51.4517L52.2338 49.448Z" fill="#F0C733"/>
<path d="M52.7689 47.4402L50.7617 46.9023L50.2241 48.9089L52.2312 49.4468L52.7689 47.4402Z" fill="#F0C733"/>
<path d="M53.308 45.4324L51.3008 44.8945L50.7639 46.8982L52.7711 47.4361L53.308 45.4324Z" fill="#F0C733"/>
<path d="M53.8431 43.4285L51.8359 42.8906L51.2983 44.8971L53.3055 45.4349L53.8431 43.4285Z" fill="#F0C733"/>
<path d="M54.3861 41.4206L52.3789 40.8828L51.842 42.8866L53.8492 43.4244L54.3861 41.4206Z" fill="#F0C733"/>
<path d="M54.9213 39.4167L52.9141 38.8789L52.3764 40.8854L54.3836 41.4232L54.9213 39.4167Z" fill="#F0C733"/>
<path d="M55.4564 37.4128L53.4492 36.875L52.9123 38.8788L54.9195 39.4166L55.4564 37.4128Z" fill="#F0C733"/>
<path d="M55.9916 35.4011L53.9844 34.8633L53.4467 36.8698L55.4539 37.4076L55.9916 35.4011Z" fill="#F0C733"/>
<path d="M56.5306 33.4011L54.5234 32.8633L53.9865 34.867L55.9937 35.4048L56.5306 33.4011Z" fill="#F0C733"/>
<path d="M57.0697 31.3972L55.0625 30.8594L54.5248 32.8659L56.532 33.4037L57.0697 31.3972Z" fill="white"/>
<path d="M57.6048 29.3894L55.5977 28.8516L55.0608 30.8553L57.068 31.3931L57.6048 29.3894Z" fill="white"/>
<path d="M47.5396 58.9277L45.5352 58.3906L44.9983 60.3943L47.0027 60.9314L47.5396 58.9277Z" fill="#E79E39"/>
<path d="M48.0747 56.9277L46.0703 56.3906L45.5327 58.3972L47.5371 58.9342L48.0747 56.9277Z" fill="#E79E39"/>
<path d="M48.6099 54.916L46.6055 54.3789L46.0686 56.3826L48.073 56.9196L48.6099 54.916Z" fill="#E79E39"/>
<path d="M49.145 52.916L47.1406 52.3789L46.603 54.3854L48.6074 54.9225L49.145 52.916Z" fill="#F0C733"/>
<path d="M49.688 50.9082L47.6836 50.3711L47.1467 52.3748L49.1511 52.9119L49.688 50.9082Z" fill="#F0C733"/>
<path d="M50.2232 48.9082L48.2188 48.3711L47.6819 50.3748L49.6863 50.9119L50.2232 48.9082Z" fill="#F0C733"/>
<path d="M50.7583 46.9004L48.7539 46.3633L48.2162 48.3699L50.2206 48.9069L50.7583 46.9004Z" fill="#F0C733"/>
<path d="M51.2974 44.8965L49.293 44.3594L48.7561 46.3631L50.7605 46.9002L51.2974 44.8965Z" fill="#F0C733"/>
<path d="M51.8364 42.8886L49.832 42.3516L49.2944 44.3581L51.2988 44.8951L51.8364 42.8886Z" fill="#F0C733"/>
<path d="M52.3716 40.8808L50.3672 40.3438L49.8303 42.3475L51.8347 42.8846L52.3716 40.8808Z" fill="#F0C733"/>
<path d="M52.9107 38.8769L50.9062 38.3398L50.3686 40.3463L52.373 40.8834L52.9107 38.8769Z" fill="#F0C733"/>
<path d="M53.4458 36.873L51.4414 36.3359L50.9045 38.3397L52.9089 38.8768L53.4458 36.873Z" fill="#F0C733"/>
<path d="M53.9849 34.8652L51.9805 34.3281L51.4428 36.3346L53.4472 36.8717L53.9849 34.8652Z" fill="#F0C733"/>
<path d="M54.52 32.8613L52.5156 32.3242L51.9787 34.3279L53.9831 34.865L54.52 32.8613Z" fill="white"/>
<path d="M55.0591 30.8535L53.0547 30.3164L52.517 32.3229L54.5214 32.86L55.0591 30.8535Z" fill="white"/>
<path d="M55.5982 28.8535L53.5938 28.3164L53.0569 30.3201L55.0613 30.8572L55.5982 28.8535Z" fill="white"/>
<path d="M44.9955 60.3972L42.9883 59.8594L42.4506 61.8659L44.4578 62.4037L44.9955 60.3972Z" fill="#E79E39"/>
<path d="M45.5345 58.3933L43.5273 57.8555L42.9905 59.8592L44.9976 60.397L45.5345 58.3933Z" fill="#E79E39"/>
<path d="M46.0697 56.3894L44.0625 55.8516L43.5248 57.8581L45.532 58.3959L46.0697 56.3894Z" fill="#E79E39"/>
<path d="M46.6088 54.3816L44.6016 53.8438L44.0647 55.8474L46.0719 56.3852L46.6088 54.3816Z" fill="#F0C733"/>
<path d="M47.1478 52.3777L45.1406 51.8398L44.603 53.8464L46.6102 54.3842L47.1478 52.3777Z" fill="#F0C733"/>
<path d="M47.6869 50.3699L45.6797 49.832L45.1428 51.8357L47.15 52.3736L47.6869 50.3699Z" fill="#F0C733"/>
<path d="M48.2181 48.3738L46.2109 47.8359L45.674 49.8396L47.6812 50.3775L48.2181 48.3738Z" fill="#F0C733"/>
<path d="M48.7572 46.366L46.75 45.8281L46.2123 47.8347L48.2195 48.3725L48.7572 46.366Z" fill="#F0C733"/>
<path d="M49.2963 44.3542L47.2891 43.8164L46.7522 45.8201L48.7594 46.3579L49.2963 44.3542Z" fill="#F0C733"/>
<path d="M49.8314 42.3542L47.8242 41.8164L47.2866 43.8229L49.2938 44.3607L49.8314 42.3542Z" fill="#F0C733"/>
<path d="M50.3705 40.3464L48.3633 39.8086L47.8264 41.8123L49.8336 42.3502L50.3705 40.3464Z" fill="#F0C733"/>
<path d="M50.9056 38.3386L48.8984 37.8008L48.3608 39.8073L50.368 40.3451L50.9056 38.3386Z" fill="#F0C733"/>
<path d="M51.4447 36.3386L49.4375 35.8008L48.9006 37.8045L50.9078 38.3424L51.4447 36.3386Z" fill="#F0C733"/>
<path d="M51.9838 34.3308L49.9766 33.793L49.4389 35.7995L51.4461 36.3373L51.9838 34.3308Z" fill="white"/>
<path d="M52.5189 32.3269L50.5117 31.7891L49.9748 33.7928L51.982 34.3306L52.5189 32.3269Z" fill="white"/>
<path d="M53.058 30.3191L51.0508 29.7812L50.5131 31.7878L52.5203 32.3256L53.058 30.3191Z" fill="white"/>
<path d="M53.597 28.3152L51.5898 27.7773L51.053 29.7811L53.0601 30.3189L53.597 28.3152Z" fill="#F0C733"/>
<path d="M54.1322 26.3113L52.125 25.7734L51.5881 27.7772L53.5953 28.315L54.1322 26.3113Z" fill="#F0C733"/>
<path d="M42.9888 59.8574L40.9844 59.3203L40.4467 61.3269L42.4511 61.8639L42.9888 59.8574Z" fill="#E79E39"/>
<path d="M43.5239 57.8535L41.5195 57.3164L40.9826 59.3201L42.987 59.8572L43.5239 57.8535Z" fill="#E79E39"/>
<path d="M44.0591 55.8535L42.0547 55.3164L41.517 57.3229L43.5214 57.86L44.0591 55.8535Z" fill="#E79E39"/>
<path d="M44.602 53.8418L42.5977 53.3047L42.0608 55.3084L44.0652 55.8454L44.602 53.8418Z" fill="#F0C733"/>
<path d="M45.1372 51.8379L43.1328 51.3008L42.5952 53.3073L44.5995 53.8444L45.1372 51.8379Z" fill="#F0C733"/>
<path d="M45.6724 49.8339L43.668 49.2969L43.1311 51.3006L45.1355 51.8377L45.6724 49.8339Z" fill="#F0C733"/>
<path d="M46.2114 47.8339L44.207 47.2969L43.6701 49.3006L45.6745 49.8377L46.2114 47.8339Z" fill="#F0C733"/>
<path d="M46.7466 45.8261L44.7422 45.2891L44.2045 47.2956L46.2089 47.8327L46.7466 45.8261Z" fill="#F0C733"/>
<path d="M47.2856 43.8183L45.2812 43.2812L44.7444 45.285L46.7487 45.822L47.2856 43.8183Z" fill="#F0C733"/>
<path d="M47.8208 41.8105L45.8164 41.2734L45.2788 43.2799L47.2832 43.817L47.8208 41.8105Z" fill="#F0C733"/>
<path d="M48.3599 39.8066L46.3555 39.2695L45.8186 41.2733L47.8229 41.8104L48.3599 39.8066Z" fill="#F0C733"/>
<path d="M48.8989 37.8027L46.8945 37.2656L46.3569 39.2721L48.3613 39.8092L48.8989 37.8027Z" fill="#F0C733"/>
<path d="M49.4341 35.7988L47.4297 35.2617L46.8928 37.2655L48.8972 37.8025L49.4341 35.7988Z" fill="white"/>
<path d="M49.9731 33.7871L47.9688 33.25L47.4311 35.2565L49.4355 35.7936L49.9731 33.7871Z" fill="white"/>
<path d="M50.5122 31.7871L48.5078 31.25L47.9709 33.2537L49.9753 33.7908L50.5122 31.7871Z" fill="white"/>
<path d="M51.0474 29.7793L49.043 29.2422L48.5053 31.2487L50.5097 31.7858L51.0474 29.7793Z" fill="#F0C733"/>
<path d="M51.5825 27.7754L49.5781 27.2383L49.0412 29.242L51.0456 29.7791L51.5825 27.7754Z" fill="#F0C733"/>
<path d="M52.1177 25.7754L50.1133 25.2383L49.5764 27.242L51.5808 27.7791L52.1177 25.7754Z" fill="white"/>
<path d="M40.4447 61.3308L38.4375 60.793L37.9006 62.7967L39.9078 63.3345L40.4447 61.3308Z" fill="#E79E39"/>
<path d="M40.9838 59.3191L38.9766 58.7812L38.4389 60.7878L40.4461 61.3256L40.9838 59.3191Z" fill="#E79E39"/>
<path d="M41.5189 57.3152L39.5117 56.7773L38.9748 58.7811L40.982 59.3189L41.5189 57.3152Z" fill="#E79E39"/>
<path d="M42.058 55.3152L40.0508 54.7773L39.5131 56.7839L41.5203 57.3217L42.058 55.3152Z" fill="#F0C733"/>
<path d="M42.597 53.3035L40.5898 52.7656L40.053 54.7693L42.0602 55.3071L42.597 53.3035Z" fill="#F0C733"/>
<path d="M43.1322 51.3035L41.125 50.7656L40.5873 52.7722L42.5945 53.31L43.1322 51.3035Z" fill="#F0C733"/>
<path d="M43.6673 49.2917L41.6602 48.7539L41.1233 50.7576L43.1305 51.2954L43.6673 49.2917Z" fill="#F0C733"/>
<path d="M44.2064 47.2956L42.1992 46.7578L41.6623 48.7615L43.6695 49.2993L44.2064 47.2956Z" fill="#F0C733"/>
<path d="M44.7416 45.2917L42.7344 44.7539L42.1967 46.7605L44.2039 47.2983L44.7416 45.2917Z" fill="#F0C733"/>
<path d="M45.2806 43.28L43.2734 42.7422L42.7365 44.7459L44.7437 45.2837L45.2806 43.28Z" fill="#F0C733"/>
<path d="M45.8197 41.2761L43.8125 40.7383L43.2749 42.7448L45.2821 43.2826L45.8197 41.2761Z" fill="#F0C733"/>
<path d="M46.3548 39.2683L44.3477 38.7305L43.8108 40.7342L45.8179 41.272L46.3548 39.2683Z" fill="#F0C733"/>
<path d="M46.8939 37.2644L44.8867 36.7266L44.3491 38.7331L46.3563 39.2709L46.8939 37.2644Z" fill="white"/>
<path d="M47.4291 35.2644L45.4219 34.7266L44.885 36.7303L46.8922 37.2681L47.4291 35.2644Z" fill="white"/>
<path d="M47.9681 33.2527L45.9609 32.7148L45.4233 34.7213L47.4305 35.2592L47.9681 33.2527Z" fill="white"/>
<path d="M48.5033 31.2488L46.4961 30.7109L45.9592 32.7147L47.9664 33.2525L48.5033 31.2488Z" fill="#F0C733"/>
<path d="M49.0423 29.2449L47.0352 28.707L46.4975 30.7136L48.5047 31.2514L49.0423 29.2449Z" fill="#F0C733"/>
<path d="M49.5775 27.241L47.5703 26.7031L47.0334 28.7068L49.0406 29.2447L49.5775 27.241Z" fill="white"/>
<path d="M50.1166 25.237L48.1094 24.6992L47.5725 26.7029L49.5797 27.2408L50.1166 25.237Z" fill="white"/>
<path d="M50.6556 23.2253L48.6484 22.6875L48.1108 24.694L50.118 25.2318L50.6556 23.2253Z" fill="#F0C733"/>
<path d="M38.438 60.791L36.4336 60.2539L35.8967 62.2577L37.9011 62.7947L38.438 60.791Z" fill="#E79E39"/>
<path d="M38.9731 58.7832L36.9688 58.2461L36.4311 60.2526L38.4355 60.7897L38.9731 58.7832Z" fill="#E79E39"/>
<path d="M39.5122 56.7793L37.5078 56.2422L36.9709 58.2459L38.9753 58.783L39.5122 56.7793Z" fill="#E79E39"/>
<path d="M40.0474 54.7754L38.043 54.2383L37.5053 56.2448L39.5097 56.7819L40.0474 54.7754Z" fill="#F0C733"/>
<path d="M40.5864 52.7675L38.582 52.2305L38.0452 54.2341L40.0495 54.7712L40.5864 52.7675Z" fill="#F0C733"/>
<path d="M41.1216 50.7675L39.1172 50.2305L38.5795 52.237L40.5839 52.7741L41.1216 50.7675Z" fill="#F0C733"/>
<path d="M41.6645 48.7558L39.6602 48.2188L39.1233 50.2225L41.1276 50.7595L41.6645 48.7558Z" fill="#F0C733"/>
<path d="M42.1958 46.7597L40.1914 46.2227L39.6545 48.2264L41.6589 48.7634L42.1958 46.7597Z" fill="#F0C733"/>
<path d="M42.7349 44.748L40.7305 44.2109L40.1928 46.2175L42.1972 46.7546L42.7349 44.748Z" fill="#F0C733"/>
<path d="M43.2739 42.7441L41.2695 42.207L40.7326 44.2107L42.737 44.7478L43.2739 42.7441Z" fill="#F0C733"/>
<path d="M43.813 40.7402L41.8086 40.2031L41.271 42.2096L43.2753 42.7467L43.813 40.7402Z" fill="#F0C733"/>
<path d="M44.3481 38.7324L42.3438 38.1953L41.8068 40.1991L43.8112 40.7361L44.3481 38.7324Z" fill="white"/>
<path d="M44.8833 36.7246L42.8789 36.1875L42.3413 38.194L44.3457 38.7311L44.8833 36.7246Z" fill="white"/>
<path d="M45.4224 34.7246L43.418 34.1875L42.8811 36.1913L44.8854 36.7283L45.4224 34.7246Z" fill="white"/>
<path d="M45.9614 32.7129L43.957 32.1758L43.4194 34.1823L45.4238 34.7193L45.9614 32.7129Z" fill="#F0C733"/>
<path d="M46.4966 30.7129L44.4922 30.1758L43.9553 32.1795L45.9597 32.7166L46.4966 30.7129Z" fill="#F0C733"/>
<path d="M47.0317 28.705L45.0273 28.168L44.4897 30.1745L46.4941 30.7116L47.0317 28.705Z" fill="white"/>
<path d="M47.5747 26.7011L45.5703 26.1641L45.0334 28.1678L47.0378 28.7048L47.5747 26.7011Z" fill="white"/>
<path d="M48.1099 24.7011L46.1055 24.1641L45.5686 26.1678L47.573 26.7049L48.1099 24.7011Z" fill="#F0C733"/>
<path d="M48.645 22.6894L46.6406 22.1523L46.103 24.1588L48.1074 24.6959L48.645 22.6894Z" fill="#F0C733"/>
<path d="M36.4302 60.2519L34.4258 59.7148L33.8889 61.7186L35.8933 62.2557L36.4302 60.2519Z" fill="#E79E39"/>
<path d="M36.9693 58.248L34.9648 57.7109L34.4272 59.7175L36.4316 60.2546L36.9693 58.248Z" fill="#E79E39"/>
<path d="M37.5044 56.2402L35.5 55.7031L34.9631 57.7068L36.9675 58.2439L37.5044 56.2402Z" fill="#F0C733"/>
<path d="M38.0396 54.2402L36.0352 53.7031L35.4975 55.7097L37.5019 56.2467L38.0396 54.2402Z" fill="#F0C733"/>
<path d="M38.5786 52.2285L36.5742 51.6914L36.0373 53.6951L38.0418 54.2322L38.5786 52.2285Z" fill="#F0C733"/>
<path d="M39.1177 50.2285L37.1133 49.6914L36.5756 51.6979L38.5801 52.235L39.1177 50.2285Z" fill="#F0C733"/>
<path d="M39.6529 48.2207L37.6484 47.6836L37.1115 49.6873L39.116 50.2244L39.6529 48.2207Z" fill="#F0C733"/>
<path d="M40.188 46.2207L38.1836 45.6836L37.6467 47.6873L39.6511 48.2244L40.188 46.2207Z" fill="#F0C733"/>
<path d="M40.731 44.2129L38.7266 43.6758L38.1889 45.6824L40.1933 46.2194L40.731 44.2129Z" fill="#F0C733"/>
<path d="M41.2661 42.2051L39.2617 41.668L38.7248 43.6717L40.7293 44.2088L41.2661 42.2051Z" fill="#F0C733"/>
<path d="M41.8013 40.2011L39.7969 39.6641L39.2592 41.6706L41.2637 42.2076L41.8013 40.2011Z" fill="white"/>
<path d="M42.3404 38.1933L40.3359 37.6562L39.799 39.66L41.8035 40.1971L42.3404 38.1933Z" fill="white"/>
<path d="M42.8794 36.1894L40.875 35.6523L40.3374 37.6588L42.3418 38.1959L42.8794 36.1894Z" fill="white"/>
<path d="M43.4146 34.1855L41.4102 33.6484L40.8733 35.6522L42.8777 36.1893L43.4146 34.1855Z" fill="#F0C733"/>
<path d="M43.9536 32.1777L41.9492 31.6406L41.4116 33.6471L43.416 34.1842L43.9536 32.1777Z" fill="#F0C733"/>
<path d="M44.4888 30.1777L42.4844 29.6406L41.9475 31.6444L43.9519 32.1814L44.4888 30.1777Z" fill="white"/>
<path d="M45.0279 28.166L43.0234 27.6289L42.4858 29.6354L44.4902 30.1725L45.0279 28.166Z" fill="white"/>
<path d="M45.563 26.1621L43.5586 25.625L43.0217 27.6287L45.0261 28.1658L45.563 26.1621Z" fill="#F0C733"/>
<path d="M46.0982 24.1582L44.0938 23.6211L43.5569 25.6248L45.5613 26.1619L46.0982 24.1582Z" fill="#F0C733"/>
<path d="M46.6411 22.1504L44.6367 21.6133L44.0991 23.6198L46.1035 24.1569L46.6411 22.1504Z" fill="#F0C733"/>
<path d="M34.9681 57.7097L32.9609 57.1719L32.4233 59.1784L34.4305 59.7162L34.9681 57.7097Z" fill="#E79E39"/>
<path d="M35.5033 55.7058L33.4961 55.168L32.9592 57.1717L34.9664 57.7095L35.5033 55.7058Z" fill="#F0C733"/>
<path d="M36.0384 53.7019L34.0312 53.1641L33.4936 55.1706L35.5008 55.7084L36.0384 53.7019Z" fill="#F0C733"/>
<path d="M36.5814 51.6902L34.5742 51.1523L34.0373 53.156L36.0445 53.6938L36.5814 51.6902Z" fill="#F0C733"/>
<path d="M37.1166 49.6902L35.1094 49.1523L34.5717 51.1589L36.5789 51.6967L37.1166 49.6902Z" fill="#F0C733"/>
<path d="M37.6517 47.6863L35.6445 47.1484L35.1076 49.1521L37.1148 49.69L37.6517 47.6863Z" fill="#F0C733"/>
<path d="M38.1908 45.6824L36.1836 45.1445L35.6467 47.1482L37.6539 47.6861L38.1908 45.6824Z" fill="#F0C733"/>
<path d="M38.7259 43.6785L36.7188 43.1406L36.1811 45.1472L38.1883 45.685L38.7259 43.6785Z" fill="#F0C733"/>
<path d="M39.265 41.6667L37.2578 41.1289L36.7209 43.1326L38.7281 43.6704L39.265 41.6667Z" fill="white"/>
<path d="M39.8002 39.6628L37.793 39.125L37.2553 41.1315L39.2625 41.6693L39.8002 39.6628Z" fill="white"/>
<path d="M40.3392 37.6589L38.332 37.1211L37.7951 39.1248L39.8023 39.6627L40.3392 37.6589Z" fill="white"/>
<path d="M40.8783 35.6511L38.8711 35.1133L38.3335 37.1198L40.3406 37.6576L40.8783 35.6511Z" fill="#F0C733"/>
<path d="M41.4134 33.6511L39.4062 33.1133L38.8693 35.117L40.8765 35.6549L41.4134 33.6511Z" fill="#F0C733"/>
<path d="M41.9486 31.6394L39.9414 31.1016L39.4038 33.1081L41.411 33.6459L41.9486 31.6394Z" fill="white"/>
<path d="M42.4877 29.6394L40.4805 29.1016L39.9436 31.1053L41.9508 31.6431L42.4877 29.6394Z" fill="white"/>
<path d="M43.0267 27.6316L41.0195 27.0938L40.4819 29.1003L42.4891 29.6381L43.0267 27.6316Z" fill="#F0C733"/>
<path d="M43.5619 25.6277L41.5547 25.0898L41.0178 27.0936L43.025 27.6314L43.5619 25.6277Z" fill="#F0C733"/>
<path d="M44.1009 23.6238L42.0938 23.0859L41.5569 25.0897L43.564 25.6275L44.1009 23.6238Z" fill="#F0C733"/>
<path d="M32.9536 57.1699L30.9492 56.6328L30.4116 58.6394L32.416 59.1764L32.9536 57.1699Z" fill="#F0C733"/>
<path d="M33.4927 55.166L31.4883 54.6289L30.9514 56.6326L32.9558 57.1697L33.4927 55.166Z" fill="#F0C733"/>
<path d="M34.0317 53.1621L32.0273 52.625L31.4897 54.6315L33.4941 55.1686L34.0317 53.1621Z" fill="#F0C733"/>
<path d="M34.5669 51.1543L32.5625 50.6172L32.0256 52.6209L34.03 53.1579L34.5669 51.1543Z" fill="#F0C733"/>
<path d="M35.102 49.1504L33.0977 48.6133L32.56 50.6198L34.5644 51.1569L35.102 49.1504Z" fill="#F0C733"/>
<path d="M35.645 47.1425L33.6406 46.6055L33.1037 48.6092L35.1081 49.1462L35.645 47.1425Z" fill="#F0C733"/>
<path d="M36.1763 45.1464L34.1719 44.6094L33.635 46.6131L35.6394 47.1502L36.1763 45.1464Z" fill="#F0C733"/>
<path d="M36.7153 43.1386L34.7109 42.6016L34.1733 44.6081L36.1777 45.1452L36.7153 43.1386Z" fill="white"/>
<path d="M37.2505 41.1308L35.2461 40.5938L34.7092 42.5975L36.7136 43.1345L37.2505 41.1308Z" fill="white"/>
<path d="M37.7934 39.1269L35.7891 38.5898L35.2514 40.5963L37.2558 41.1334L37.7934 39.1269Z" fill="white"/>
<path d="M38.3286 37.1191L36.3242 36.582L35.7873 38.5858L37.7917 39.1229L38.3286 37.1191Z" fill="#F0C733"/>
<path d="M38.8638 35.1152L36.8594 34.5781L36.3217 36.5846L38.3261 37.1217L38.8638 35.1152Z" fill="#F0C733"/>
<path d="M39.4028 33.1113L37.3984 32.5742L36.8615 34.578L38.8659 35.115L39.4028 33.1113Z" fill="white"/>
<path d="M39.9419 31.0996L37.9375 30.5625L37.3999 32.569L39.4042 33.1061L39.9419 31.0996Z" fill="white"/>
<path d="M40.477 29.0996L38.4727 28.5625L37.9358 30.5662L39.9401 31.1033L40.477 29.0996Z" fill="#F0C733"/>
<path d="M41.0122 27.0918L39.0078 26.5547L38.4702 28.5612L40.4745 29.0983L41.0122 27.0918Z" fill="#F0C733"/>
<path d="M41.5513 25.0879L39.5469 24.5508L39.01 26.5545L41.0144 27.0916L41.5513 25.0879Z" fill="#F0C733"/>
<path d="M42.0903 23.0879L40.0859 22.5508L39.549 24.5545L41.5534 25.0916L42.0903 23.0879Z" fill="#F0C733"/>
<path d="M31.4955 54.6277L29.4883 54.0898L28.9514 56.0936L30.9586 56.6314L31.4955 54.6277Z" fill="#F0C733"/>
<path d="M32.0306 52.6277L30.0234 52.0898L29.4858 54.0964L31.493 54.6342L32.0306 52.6277Z" fill="#F0C733"/>
<path d="M32.5697 50.6199L30.5625 50.082L30.0256 52.0857L32.0328 52.6235L32.5697 50.6199Z" fill="#F0C733"/>
<path d="M33.1048 48.6159L31.0977 48.0781L30.56 50.0847L32.5672 50.6225L33.1048 48.6159Z" fill="#F0C733"/>
<path d="M33.6439 46.6081L31.6367 46.0703L31.0998 48.074L33.107 48.6118L33.6439 46.6081Z" fill="#F0C733"/>
<path d="M34.179 44.612L32.1719 44.0742L31.635 46.0779L33.6422 46.6157L34.179 44.612Z" fill="white"/>
<path d="M34.7142 42.6003L32.707 42.0625L32.1694 44.0691L34.1765 44.6069L34.7142 42.6003Z" fill="white"/>
<path d="M35.2533 40.5964L33.2461 40.0586L32.7092 42.0623L34.7164 42.6001L35.2533 40.5964Z" fill="white"/>
<path d="M35.7923 38.5925L33.7852 38.0547L33.2475 40.0612L35.2547 40.599L35.7923 38.5925Z" fill="#F0C733"/>
<path d="M36.3314 36.5808L34.3242 36.043L33.7873 38.0467L35.7945 38.5845L36.3314 36.5808Z" fill="#F0C733"/>
<path d="M36.8665 34.5769L34.8594 34.0391L34.3217 36.0456L36.3289 36.5834L36.8665 34.5769Z" fill="white"/>
<path d="M37.4056 32.573L35.3984 32.0352L34.8615 34.0389L36.8687 34.5767L37.4056 32.573Z" fill="white"/>
<path d="M37.9447 30.5652L35.9375 30.0273L35.3999 32.0338L37.407 32.5717L37.9447 30.5652Z" fill="#F0C733"/>
<path d="M38.4798 28.5652L36.4727 28.0273L35.9358 30.0311L37.9429 30.5689L38.4798 28.5652Z" fill="#F0C733"/>
<path d="M39.015 26.5574L37.0078 26.0195L36.4702 28.0261L38.4773 28.5639L39.015 26.5574Z" fill="#F0C733"/>
<path d="M39.554 24.5495L37.5469 24.0117L37.01 26.0154L39.0172 26.5532L39.554 24.5495Z" fill="#F0C733"/>
<path d="M29.4888 54.0918L27.4844 53.5547L26.9475 55.5584L28.9519 56.0955L29.4888 54.0918Z" fill="#F0C733"/>
<path d="M30.0239 52.0918L28.0195 51.5547L27.4819 53.5612L29.4863 54.0983L30.0239 52.0918Z" fill="#F0C733"/>
<path d="M30.5591 50.08L28.5547 49.543L28.0178 51.5466L30.0222 52.0837L30.5591 50.08Z" fill="#F0C733"/>
<path d="M31.0981 48.0761L29.0938 47.5391L28.5561 49.5456L30.5605 50.0827L31.0981 48.0761Z" fill="#F0C733"/>
<path d="M31.6372 46.0722L29.6328 45.5352L29.0959 47.5389L31.1003 48.0759L31.6372 46.0722Z" fill="white"/>
<path d="M32.1724 44.0722L30.168 43.5352L29.6311 45.5389L31.6355 46.0759L32.1724 44.0722Z" fill="white"/>
<path d="M32.7075 42.0644L30.7031 41.5273L30.1655 43.5339L32.1698 44.071L32.7075 42.0644Z" fill="white"/>
<path d="M33.2505 40.0566L31.2461 39.5195L30.7092 41.5232L32.7136 42.0603L33.2505 40.0566Z" fill="#F0C733"/>
<path d="M33.7856 38.0527L31.7812 37.5156L31.2436 39.5221L33.248 40.0592L33.7856 38.0527Z" fill="#F0C733"/>
<path d="M34.3208 36.0449L32.3164 35.5078L31.7795 37.5116L33.7839 38.0486L34.3208 36.0449Z" fill="white"/>
<path d="M34.8599 34.041L32.8555 33.5039L32.3178 35.5104L34.3222 36.0475L34.8599 34.041Z" fill="white"/>
<path d="M35.395 32.0371L33.3906 31.5L32.8537 33.5038L34.8581 34.0408L35.395 32.0371Z" fill="#F0C733"/>
<path d="M35.9341 30.0293L33.9297 29.4922L33.392 31.4987L35.3964 32.0358L35.9341 30.0293Z" fill="#F0C733"/>
<path d="M36.4692 28.0293L34.4648 27.4922L33.9279 29.4959L35.9323 30.033L36.4692 28.0293Z" fill="#F0C733"/>
<path d="M37.0083 26.0175L35.0039 25.4805L34.4663 27.487L36.4706 28.0241L37.0083 26.0175Z" fill="#F0C733"/>
<path d="M37.5474 24.0136L35.543 23.4766L35.0061 25.4803L37.0105 26.0173L37.5474 24.0136Z" fill="#F0C733"/>
<path d="M28.015 51.5535L26.0078 51.0156L25.4702 53.0222L27.4774 53.56L28.015 51.5535Z" fill="#F0C733"/>
<path d="M28.558 49.5417L26.5508 49.0039L26.0139 51.0076L28.0211 51.5454L28.558 49.5417Z" fill="#F0C733"/>
<path d="M29.0931 47.5417L27.0859 47.0039L26.5483 49.0104L28.5555 49.5483L29.0931 47.5417Z" fill="white"/>
<path d="M29.6322 45.5339L27.625 44.9961L27.0881 46.9998L29.0953 47.5376L29.6322 45.5339Z" fill="white"/>
<path d="M30.1673 43.5339L28.1602 42.9961L27.6233 44.9998L29.6305 45.5376L30.1673 43.5339Z" fill="white"/>
<path d="M30.7064 41.53L28.6992 40.9922L28.1616 42.9988L30.1687 43.5366L30.7064 41.53Z" fill="#F0C733"/>
<path d="M31.2416 39.5183L29.2344 38.9805L28.6975 40.9842L30.7047 41.522L31.2416 39.5183Z" fill="#F0C733"/>
<path d="M31.7806 37.5144L29.7734 36.9766L29.2358 38.9831L31.243 39.5209L31.7806 37.5144Z" fill="white"/>
<path d="M32.3158 35.5105L30.3086 34.9727L29.7717 36.9764L31.7789 37.5142L32.3158 35.5105Z" fill="white"/>
<path d="M32.8548 33.5027L30.8477 32.9648L30.31 34.9713L32.3172 35.5092L32.8548 33.5027Z" fill="#F0C733"/>
<path d="M33.39 31.5027L31.3828 30.9648L30.8459 32.9686L32.8531 33.5064L33.39 31.5027Z" fill="#F0C733"/>
<path d="M33.9291 29.491L31.9219 28.9531L31.3842 30.9596L33.3914 31.4974L33.9291 29.491Z" fill="#F0C733"/>
<path d="M34.4681 27.487L32.4609 26.9492L31.924 28.9529L33.9312 29.4908L34.4681 27.487Z" fill="#F0C733"/>
<path d="M35.0033 25.4831L32.9961 24.9453L32.4584 26.9519L34.4656 27.4897L35.0033 25.4831Z" fill="#F0C733"/>
<path d="M26.5434 49.0019L24.5391 48.4648L24.0022 50.4685L26.0066 51.0056L26.5434 49.0019Z" fill="white"/>
<path d="M27.0786 47.0019L25.0742 46.4648L24.5366 48.4714L26.541 49.0085L27.0786 47.0019Z" fill="white"/>
<path d="M27.6177 44.9941L25.6133 44.457L25.0764 46.4607L27.0808 46.9978L27.6177 44.9941Z" fill="white"/>
<path d="M28.1528 42.9941L26.1484 42.457L25.6115 44.4607L27.6159 44.9978L28.1528 42.9941Z" fill="#F0C733"/>
<path d="M28.6919 40.9902L26.6875 40.4531L26.1498 42.4597L28.1542 42.9968L28.6919 40.9902Z" fill="#F0C733"/>
<path d="M29.227 38.9824L27.2227 38.4453L26.6858 40.449L28.6901 40.9861L29.227 38.9824Z" fill="white"/>
<path d="M29.7661 36.9746L27.7617 36.4375L27.2241 38.444L29.2285 38.9811L29.7661 36.9746Z" fill="white"/>
<path d="M30.3052 34.9668L28.3008 34.4297L27.7639 36.4334L29.7683 36.9705L30.3052 34.9668Z" fill="#F0C733"/>
<path d="M30.8403 32.9668L28.8359 32.4297L28.2983 34.4362L30.3027 34.9733L30.8403 32.9668Z" fill="#F0C733"/>
<path d="M31.3794 30.9629L29.375 30.4258L28.8381 32.4295L30.8425 32.9666L31.3794 30.9629Z" fill="#F0C733"/>
<path d="M31.9184 28.9511L29.9141 28.4141L29.3764 30.4206L31.3808 30.9576L31.9184 28.9511Z" fill="#F0C733"/>
<path d="M32.4536 26.9472L30.4492 26.4102L29.9123 28.4139L31.9167 28.951L32.4536 26.9472Z" fill="#F0C733"/>
<path d="M25.0814 46.4675L23.0742 45.9297L22.5366 47.9362L24.5438 48.4741L25.0814 46.4675Z" fill="white"/>
<path d="M25.6205 44.4597L23.6133 43.9219L23.0764 45.9256L25.0836 46.4634L25.6205 44.4597Z" fill="#F0C733"/>
<path d="M26.1556 42.4597L24.1484 41.9219L23.6115 43.9256L25.6187 44.4634L26.1556 42.4597Z" fill="#F0C733"/>
<path d="M26.6908 40.4519L24.6836 39.9141L24.1459 41.9206L26.1531 42.4585L26.6908 40.4519Z" fill="white"/>
<path d="M27.2298 38.448L25.2227 37.9102L24.6858 39.9139L26.693 40.4517L27.2298 38.448Z" fill="white"/>
<path d="M27.7689 36.4402L25.7617 35.9023L25.2241 37.9088L27.2313 38.4467L27.7689 36.4402Z" fill="#F0C733"/>
<path d="M28.3041 34.4324L26.2969 33.8945L25.76 35.8983L27.7672 36.4361L28.3041 34.4324Z" fill="#F0C733"/>
<path d="M28.8431 32.4285L26.8359 31.8906L26.2983 33.8971L28.3055 34.4349L28.8431 32.4285Z" fill="#F0C733"/>
<path d="M29.3822 30.4245L27.375 29.8867L26.8381 31.8905L28.8453 32.4283L29.3822 30.4245Z" fill="#F0C733"/>
<path d="M29.9173 28.4167L27.9102 27.8789L27.3725 29.8854L29.3797 30.4232L29.9173 28.4167Z" fill="#F0C733"/>
<path d="M24.6841 39.916L22.6797 39.3789L22.142 41.3855L24.1464 41.9226L24.6841 39.916Z" fill="white"/>
<path d="M25.2231 37.9043L23.2188 37.3672L22.6819 39.3709L24.6862 39.908L25.2231 37.9043Z" fill="#F0C733"/>
<path d="M25.7583 35.9004L23.7539 35.3633L23.2163 37.3698L25.2207 37.9068L25.7583 35.9004Z" fill="#F0C733"/>
<path d="M26.2974 33.8964L24.293 33.3594L23.7561 35.3631L25.7604 35.9002L26.2974 33.8964Z" fill="#F0C733"/>
</svg>
