<svg width="142" height="128" viewBox="0 0 142 128" fill="none" xmlns="http://www.w3.org/2000/svg">
<path d="M60.8042 2.35581C65.1602 2.65825 69.0756 4.44352 73.0279 6.05745C77.2589 7.94959 81.8914 8.76889 86.5147 8.44269C91.1381 8.1165 95.6096 6.65491 99.5331 4.18744C114.048 -4.46554 131.57 0.728936 139.304 15.7411C142.6 22.138 141.705 28.3563 138.832 34.5257C137.891 36.5449 136.658 38.4275 135.559 40.3727C134.795 40.8413 135.43 41.7896 134.886 42.3338C131.15 42.6946 127.419 43.2424 123.675 43.3589C121.743 43.319 119.811 43.4163 117.893 43.6498C115.373 44.0854 114.106 42.8735 114.71 40.4445C115.047 39.0889 114.336 38.7023 113.585 38.1254C111.228 36.316 108.828 34.7304 107.429 31.7839C106.178 29.148 104.438 28.7915 102.214 30.6001C98.6347 33.5097 94.2008 32.2594 90.3159 33.599C88.9457 34.0715 87.3825 34.4653 85.9146 34.8598C81.6113 36.0163 77.4179 35.2502 73.282 34.3085C70.8383 33.752 68.3642 33.2453 65.9288 32.5968C64.8815 32.4089 63.9111 31.9209 63.1357 31.1922C62.3603 30.4635 61.8131 29.5254 61.5605 28.4917C61.4352 27.5675 60.9766 26.7209 60.2708 26.1112C59.565 25.5015 58.6607 25.1707 57.7281 25.1811C57.0326 25.1646 56.3653 24.903 55.844 24.4423C55.3226 23.9817 54.9807 23.3517 54.8786 22.6635C54.3889 20.5293 53.5109 18.4957 54.1014 16.1272C54.6379 13.6597 54.6806 11.1103 54.227 8.6262C53.4213 3.22804 55.2931 1.58551 60.8042 2.35581Z" fill="#FCFCFD"/>
<path d="M134.846 42.0874C134.85 41.444 135.106 40.8278 135.56 40.3712C135.408 42.1214 135.813 43.8749 136.718 45.3806C137.925 47.162 138.519 49.288 138.41 51.437C137.553 52.7329 136.393 53.8006 135.03 54.548C133.668 55.2953 132.144 55.6998 130.59 55.7266C125.226 55.7983 119.962 57.1842 115.259 59.7629C114.867 60.0566 114.395 60.2253 113.905 60.2469C110.131 59.7271 106.767 61.7343 103.113 61.9523C99.149 62.189 95.5661 64.1464 91.4842 64.2483C87.4978 64.348 83.5629 63.8331 79.599 63.9222C79.1536 63.9245 78.7159 63.8053 78.333 63.5775C77.9502 63.3498 77.6367 63.022 77.4261 62.6294C75.3953 59.0861 72.0627 57.6041 68.3421 56.6842C65.9429 55.1443 63.2001 54.2215 60.3579 53.9981C59.2121 53.6719 58.1426 53.1209 57.2119 52.3771C56.611 51.9224 56.1072 51.3519 55.7304 50.6992C55.3536 50.0466 55.1114 49.325 55.0181 48.5772C54.9248 47.8294 54.9822 47.0705 55.1871 46.3453C55.3919 45.62 55.74 44.9432 56.2107 44.3547C56.6012 43.6832 56.7444 42.8962 56.6156 42.1302C56.3754 38.9012 57.0484 38.2244 60.4799 38.2888C58.968 36.1614 57.4668 34.9475 54.619 35.7516C52.8373 36.2546 50.5698 36.072 50.5394 33.1313C50.4533 32.3473 50.0596 31.6294 49.4447 31.1354C48.2329 29.8768 47.3562 28.3343 46.8949 26.6492C46.6722 25.6391 46.0612 24.7571 45.1938 24.1937C44.3265 23.6302 43.2723 23.4304 42.259 23.6374C37.9296 24.043 33.5633 23.7534 29.3255 22.7794C27.7961 22.4036 24.3905 24.7742 23.3966 26.772C21.9319 29.7161 19.4471 31.9988 18.1059 35.0583C17.8095 35.5745 17.3543 35.981 16.808 36.2172C16.2618 36.4535 15.6537 36.5069 15.0747 36.3694C12.3866 34.4226 12.9006 31.279 12.8257 28.7265C12.7456 25.9963 15.9971 26.1146 17.7192 25.0758C17.5199 25.0659 17.3255 25.0113 17.1502 24.9162C16.9748 24.821 16.8231 24.6876 16.7063 24.5259C16.1707 23.567 16.7746 18.7985 17.7042 18.5054C20.209 17.7156 20.9881 15.2753 22.7405 13.8044C23.205 13.4145 23.7813 12.9297 24.2778 13.1094C27.7547 14.3688 27.3386 11.5661 27.8785 9.75044C28.434 9.4165 28.9894 9.08264 29.5447 8.7488C29.9357 8.61841 30.3124 8.44602 30.7153 8.35245C32.9585 8.30952 34.5483 8.99701 34.4478 11.6343C34.3865 13.2438 35.1655 13.5112 36.4575 12.8098C38.4488 11.7287 39.7482 12.6062 40.8512 14.2611C42.3802 16.5551 44.1142 18.3586 47.3001 17.2222C48.4287 16.8196 49.2827 17.6164 50.0206 18.4922C51.9837 20.9225 53.0631 23.9476 53.0818 27.0717C53.1606 28.8213 53.773 29.5472 55.6194 29.139C58.0946 28.5917 59.6471 30.1743 60.965 31.8919C62.0398 33.3887 63.436 34.6261 65.0511 35.5133C65.9073 36.078 66.9089 36.3822 67.9345 36.3891C68.9602 36.3959 69.9658 36.1052 70.8295 35.552C71.5603 35.0777 72.3916 34.7804 73.2575 34.6838C74.1234 34.5872 74.9998 34.694 75.8172 34.9956C79.5724 36.139 83.6124 35.9043 87.21 34.334C88.4141 33.8214 88.9513 33.5633 90.127 35.0719C92.1966 37.3571 94.5671 39.3505 97.1735 40.9972C97.4054 41.1665 97.7713 41.3388 97.9941 41.2397C102.831 39.0896 106.036 44.5909 110.549 43.9003C112.907 46.4553 115.854 45.199 118.664 45.5197C123.379 46.0578 128.111 45.7852 132.787 46.4358C134.058 46.6127 134.42 46.0299 134.113 44.9289C133.803 43.8119 133.745 42.8145 134.846 42.0874Z" fill="#F4F5F8"/>
<path d="M134.846 42.0928C134.998 43.5503 135.505 44.9485 136.321 46.1654C137.321 47.93 136.46 48.6742 134.888 48.3449C131.439 47.6226 127.802 48.5196 124.578 47.7057C119.923 46.5309 115.688 47.8591 111.076 48.2826C112.099 46.0743 111.43 45.0092 109.008 45.169C107.947 45.2391 106.877 45.1465 105.814 45.1919C105.028 45.2255 104.491 45.4719 104.383 44.1519C104.343 43.807 104.222 43.4764 104.031 43.1864C103.84 42.8964 103.584 42.655 103.283 42.4816C102.982 42.3081 102.645 42.2074 102.298 42.1874C101.951 42.1674 101.604 42.2287 101.286 42.3665C96.6046 44.5249 94.4839 40.8227 91.7916 38.5031C90.6231 37.4963 89.7971 36.017 87.9366 37.3063C87.812 36.1021 89.2698 35.8993 88.9576 34.7558C87.1922 34.4361 86.4467 36.3371 85.0217 36.6652C81.9304 37.4938 78.6693 37.4438 75.6048 36.5209C75.0441 36.2511 74.4279 36.1167 73.8057 36.1286C73.1836 36.1405 72.5729 36.2983 72.023 36.5894C70.1832 37.7203 67.9725 38.082 65.8683 37.5965C63.764 37.1109 61.9353 35.817 60.7771 33.9944C59.9209 32.8216 58.9069 31.7728 57.7636 30.8777C57.4933 30.6006 57.1381 30.4219 56.7544 30.3702C56.3708 30.3184 55.981 30.3966 55.6469 30.5921C53.1854 31.8904 52.0804 31.0123 51.6297 28.3903C51.1556 25.6324 51.9824 22.2914 48.8339 20.3767C48.189 19.9845 49.0008 18.8126 48.1636 18.3033C45.6934 20.3487 40.7734 18.7427 39.7856 15.6302C39.2892 14.0666 38.7294 12.3861 36.7788 14.6144C35.904 15.2757 34.8285 15.6162 33.7325 15.5787C31.9702 15.7409 32.0943 13.759 32.6006 12.5883C33.4852 10.5426 32.7776 9.49241 30.9121 8.82116C31.8963 6.9505 34.0944 6.88635 35.5443 5.7088C43.6103 1.92355 51.9379 0.110753 60.8043 2.3599C56.2757 2.55332 54.511 4.79234 55.8264 9.17438C56.2997 11.5503 56.2355 14.0021 55.6384 16.35C55.4623 18.0636 55.5937 19.7949 56.0264 21.4623C56.406 23.2746 57.0681 24.2796 59.2196 23.5063C61.1913 22.7975 62.0546 24.7079 62.1829 25.8681C62.64 29.9969 65.435 31.3806 68.8259 31.8795C72.4584 32.4138 75.9373 33.6809 79.66 33.8038C83.5284 33.8982 87.3825 33.2999 91.0403 32.0372C92.9691 31.3816 94.9977 31.0681 97.0345 31.111C99.3953 31.1698 101.158 29.623 102.737 28.0641C104.116 26.7028 105.099 26.9064 106.375 28.2453C109.369 31.3882 111.306 35.5072 115.246 37.7869C115.668 38.0536 115.969 38.4743 116.086 38.9596C116.203 39.4448 116.126 39.9565 115.871 40.3859C115.122 42.1413 116.03 42.6421 117.466 42.2855C121.917 41.1805 126.552 42.4201 130.983 41.1014C132.35 40.9261 133.732 41.2809 134.846 42.0928Z" fill="#F8F9FB"/>
<path d="M19.1284 66.6672C17.146 66.1994 15.1273 65.8483 13.1889 65.2402C11.2356 64.7534 9.48283 63.6692 8.17493 62.1389C6.86704 60.6086 6.06919 58.7083 5.89258 56.703C6.74439 55.5502 7.88854 55.6896 9.05209 56.0154C14.1922 57.4542 19.5022 58.0735 24.6919 59.2706C28.5034 59.9768 32.3669 60.3658 36.2426 60.4336C40.8845 60.6904 45.5069 61.2235 50.0854 62.0298C52.1328 62.4028 54.1242 61.4806 56.1423 62.0017C57.3184 62.2909 58.5438 62.3166 59.7309 62.0769C65.314 62.2536 70.8662 63.2609 76.473 62.6708C76.9806 62.6333 77.487 62.7576 77.9194 63.0261C78.3301 63.2436 78.6806 63.5594 78.9396 63.9453C79.287 65.0486 78.641 65.6111 77.7434 65.9041C74.5118 66.9585 73.0224 68.9767 72.2802 72.4934C71.9601 74.2485 71.2748 75.9168 70.2689 77.3901C69.2629 78.8635 67.9587 80.1092 66.4407 81.0464C66.0006 81.3553 65.4605 81.4874 64.9275 81.4166C64.3945 81.3458 63.9076 81.0772 63.5634 80.6641C60.8795 77.0286 61.9722 72.8068 61.7312 68.7944C61.6604 67.6154 61.7173 66.4072 60.3817 65.825C59.7526 65.5522 59.0632 65.4484 58.3816 65.5236C57.7 65.5989 57.0499 65.8506 56.4954 66.2541C55.3212 67.0049 55.4572 68.2542 55.3951 69.4058C55.1064 74.7537 54.0135 79.8134 50.3941 84.032C48.6933 86.1781 46.4536 87.8347 43.9036 88.8327C42.7384 89.2515 41.4967 89.4146 40.2628 89.3108C39.029 89.207 37.832 88.8387 36.7531 88.2311C35.6742 87.6235 34.7388 86.7908 34.0105 85.7895C33.2821 84.7881 32.7779 83.6417 32.532 82.4282C32.5837 82.0364 32.7186 81.6603 32.9276 81.3249C33.1366 80.9896 33.4149 80.7029 33.7439 80.4839C34.0728 80.265 34.4448 80.119 34.8349 80.0557C35.2249 79.9923 35.624 80.0131 36.0053 80.1166C39.2632 80.7737 41.5899 78.789 44.0059 77.3324C45.8824 76.2014 45.2101 73.5366 43.2235 72.6078C37.3593 69.8657 30.9047 70.0313 24.7436 68.7812C22.7534 68.4441 20.8469 67.7263 19.1284 66.6672Z" fill="#C2D9F7"/>
<path d="M76.4382 105.76C75.2505 99.9093 75.82 93.9862 75.8003 88.0965C75.7913 85.4218 75.3301 84.5282 72.6377 85.9766C71.8502 86.484 70.9107 86.7015 69.9803 86.5918C69.05 86.482 68.1868 86.0519 67.5391 85.3751C68.935 84.7153 70.0296 83.5518 70.6032 82.1183C71.1768 80.6848 71.187 79.0875 70.6315 77.6468C70.4744 77.173 70.4716 76.6617 70.6235 76.1862C70.7755 75.7108 71.0745 75.2958 71.4772 75.001C75.7956 72.4795 77.9155 68.021 81.0222 64.4322C82.6032 64.309 84.1925 64.5192 85.6871 65.0493C87.1816 65.5794 88.5482 66.4176 89.6982 67.5095C91.9215 69.6157 95.5052 69.7363 98.6451 70.158C99.0802 70.2384 99.5112 70.3434 99.9452 70.427C102.579 71.0794 105.349 70.926 107.895 69.9866C108.172 69.9365 108.454 69.921 108.735 69.9406C109.819 70.2186 110.929 70.3859 112.047 70.44C112.331 70.461 112.613 70.5108 112.887 70.5886C113.279 70.782 113.656 71.0031 114.017 71.25C115.314 72.0739 116.369 72.9316 114.431 74.206C113.354 75.611 113.427 77.4302 112.715 78.9668C107.42 79.9794 102.459 82.2916 98.2787 85.6957C97.512 86.4403 96.5019 86.8825 95.4347 86.9406C92.8747 87.3371 90.9632 89.1599 88.6935 90.1924C85.977 91.4619 83.385 92.9822 80.9512 94.7337C80.4143 95.1283 79.9859 95.6524 79.7059 96.257C79.4259 96.8617 79.3034 97.5273 79.3498 98.192C79.2395 100.881 79.3245 103.791 77.1955 105.992C77.0599 106.015 76.9209 106.005 76.7895 105.965C76.6581 105.925 76.5378 105.854 76.4382 105.76Z" fill="#C2CBF5"/>
<path d="M56.0309 63.7054C48.5257 63.0439 41.0267 62.2973 33.5134 61.7451C26.1026 61.0621 18.751 59.8434 11.5162 58.0983C9.63556 57.6822 7.77599 57.1705 5.90677 56.7026C4.27036 52.3435 6.45711 48.9093 8.6241 45.4702C16.5734 46.3103 24.4421 47.7898 32.1537 49.8943C33.0354 50.3082 34.013 50.475 34.9821 50.3767C39.0799 49.2368 42.9962 50.4009 46.9496 51.136C49.3428 51.0395 50.1368 53.4049 51.8471 54.317C54.2534 55.6001 53.9289 57.4318 53.2766 59.477C52.9119 60.6205 53.5445 61.2803 54.5247 61.7292C55.3699 62.1164 56.4473 62.3479 56.0309 63.7054Z" fill="#CBDEF5"/>
<path d="M78.2074 63.7294C77.8191 63.7201 77.4309 63.7107 77.0427 63.7013C76.4898 63.2966 75.7312 63.3904 75.1962 62.94C72.5701 62.2036 71.2917 59.7224 69.2073 58.2685C68.9716 58.1399 68.7699 57.957 68.6189 57.735C68.4679 57.5129 68.3719 57.2582 68.3389 56.9917C68.306 56.7252 68.337 56.4547 68.4294 56.2026C68.5217 55.9504 68.6728 55.724 68.8701 55.5418C71.2885 56.2519 73.5739 57.354 75.6353 58.8044C75.9285 59.0515 76.4487 59.1264 76.6085 59.42C79.8175 65.315 85.3446 62.9204 89.944 62.8318C96.2105 62.7112 102.177 59.698 108.295 59.3287C114.82 58.9346 120.021 54.8737 126.333 54.5191C126.804 54.4926 127.287 54.1222 127.727 54.1841C129.155 54.4712 130.63 54.4406 132.045 54.0946C133.461 53.7485 134.783 53.0954 135.918 52.1815C136.694 51.7811 137.539 51.5317 138.409 51.4468C138.493 56.9332 135.103 61.3431 130.289 62.0081C128.762 62.3428 127.209 62.5222 127.485 64.8133C127.541 65.4041 127.369 65.9941 127.005 66.4624C126.64 66.9306 126.11 67.2416 125.524 67.3317C120.174 68.8932 114.998 71.2802 109.207 70.6691C108.948 70.6025 108.69 70.527 108.436 70.4414C107.512 70.3109 106.57 70.4181 105.699 70.7527C105.443 70.8362 105.184 70.9054 104.92 70.9601C102.744 71.0268 100.565 70.9841 98.3925 70.8322C93.8881 69.434 89.2628 68.3827 85.5334 65.1442C84.3095 64.0816 82.4801 64.4826 80.9363 64.4624C79.976 64.4783 79.0305 64.2243 78.2074 63.7294Z" fill="#EDEFF8"/>
<path d="M95.1527 85.9015C96.9362 85.1624 98.5518 84.0703 99.9025 82.6908C102.994 79.9421 107.027 79.432 110.573 77.7887C111.66 77.2848 112.442 77.7641 112.713 78.9638C110.404 91.3355 110.101 103.939 108.379 116.377C108.262 118.217 107.762 120.013 106.91 121.648C104.869 120.451 102.142 120.54 100.645 118.313C101.053 116.064 102.078 114.105 101.786 111.491C101.39 107.939 98.9595 106.198 96.955 104.255C94.6921 101.933 93.1135 99.031 92.3928 95.8695C91.1809 91.7275 92.726 88.8015 95.1527 85.9015Z" fill="#C1D8F5"/>
<path d="M95.1515 85.8989C95.5043 87.4641 93.4668 89.1076 95.3254 90.6617C95.547 90.8469 95.2793 91.6105 94.8672 91.5309C91.2492 90.8326 93.564 93.1199 93.612 94.1091C93.6664 95.4651 93.8736 96.8106 94.2298 98.1201C94.8298 100.241 95.3478 102.58 98.4272 102.241C98.9547 102.183 99.5528 102.401 99.6256 102.871C100.205 106.612 103.699 109.085 103.645 113.307C103.613 115.821 103.618 117.391 100.989 118.016C99.3874 120.18 97.3029 120.031 95.0863 119.25C93.9151 116.471 93.3244 113.483 93.3503 110.468C92.9409 108.424 92.7643 106.341 92.8241 104.257C92.7861 104.662 92.8364 105.361 92.7808 106.056C92.7671 106.795 92.1901 107.275 91.8513 107.824C90.9244 109.327 89.7089 109.58 88.7423 107.885C87.8378 106.299 86.9471 105.909 85.6647 107.417C85.5401 107.566 85.3967 107.699 85.2382 107.811C84.4809 108.338 83.1448 108.803 82.8393 108.243C81.4989 105.788 77.792 109.195 77.0464 105.752C77.6079 103.822 76.7324 101.665 77.9865 99.8337C78.0626 99.7137 78.1094 99.5775 78.1232 99.436C78.137 99.2946 78.1174 99.1519 78.0659 99.0195C75.2573 95.3513 78.936 94.3304 80.8009 93.1433C85.1981 90.0292 90.0347 87.5875 95.1515 85.8989Z" fill="#C0D1F4"/>
<path d="M27.8781 9.75781C30.2702 12.047 29.0883 14.4362 27.7776 17.0529C27.3032 14.8232 24.8102 15.4615 23.5841 14.0582C21.1676 15.8747 21.0296 18.3553 22.1914 21.0593C20.0517 21.6976 19.3895 20.2075 18.5918 18.5573C17.8785 20.5517 19.2113 22.4923 17.4411 23.8373C18.6946 24.6778 19.7977 23.3787 21.1588 24.1373C18.8455 25.0135 17.4498 26.9598 15.229 27.6788C14.3273 27.9706 13.4382 28.7401 14.0175 29.6041C15.3079 31.529 15.1195 33.5987 15.1433 35.6859C17.0043 36.6549 18.3299 37.8506 17.0382 40.1575C16.2425 40.5243 15.3708 40.696 14.4954 40.6587C13.62 40.6213 12.7661 40.3758 12.0045 39.9425C8.18554 38.4307 4.10542 37.4418 0.920715 34.6075C-1.5791 28.2235 1.10176 23.5901 7.86528 22.5613C10.8502 22.1443 13.6568 20.8933 15.9624 18.9523C19.6794 15.5705 23.6643 12.4956 27.8781 9.75781Z" fill="#F4F5F7"/>
<path d="M19.1367 66.6665C27.8794 67.7416 36.6743 68.5364 45.0766 71.4552C47.0984 72.1576 48.6862 73.0869 46.8315 75.4536C46.5578 75.728 46.3579 76.067 46.2505 76.4393C46.143 76.8116 46.1313 77.2051 46.2167 77.5831C46.7829 79.6261 45.816 79.652 44.2421 79.2435C43.6063 79.0785 42.1388 78.55 42.9128 80.3616C43.1162 80.8378 42.7627 81.2386 42.4064 81.1326C40.1516 80.4615 38.2039 83.0589 35.8165 81.6166C34.7167 80.9521 33.6437 82.1447 32.5406 82.4274C31.0907 79.7413 31.7695 76.7228 31.2988 73.7371C29.9096 73.9493 29.3697 75.1232 28.4844 75.7755C25.706 77.8232 23.6278 77.1849 21.78 74.2659C20.2683 71.8778 20.9815 68.8486 19.1367 66.6665Z" fill="#BFD7F5"/>
<path d="M47.2593 52.0404C43.135 51.6153 38.9827 51.5314 34.8447 51.7897C31.1233 51.9404 27.2707 50.4701 23.5835 49.3581C20.4387 48.3679 17.1558 47.8866 13.8591 47.9325C12.8428 48.0632 11.8103 47.9015 10.8826 47.4664C9.95483 47.0314 9.1703 46.3409 8.6209 45.4759C9.35052 42.9848 9.23617 40.8315 6.34375 39.7909C6.43021 39.564 6.56259 39.3572 6.73255 39.1837C6.90251 39.0102 7.1064 38.8736 7.33155 38.7824C7.55669 38.6913 7.79823 38.6475 8.04104 38.6539C8.28385 38.6603 8.52276 38.7168 8.74278 38.8197C13.3182 40.5558 18.0866 39.7284 22.7758 39.9413C25.4912 40.9574 28.0881 42.2869 30.8897 43.0872C31.7704 43.1784 32.3893 43.9143 33.2572 44.0429C33.5377 44.109 33.8133 44.1878 34.0882 44.2732C36.3217 44.9398 38.6106 45.4047 40.9272 45.6623C42.0971 45.7819 43.198 46.2732 44.0683 47.0641C44.2669 47.2519 44.4545 47.455 44.6338 47.6608C45.8475 49.0866 47.4337 48.8403 49.019 48.6163C49.3235 48.6212 49.6239 48.6875 49.9022 48.8112C53.2356 51.47 53.361 52.0541 51.0317 54.0037C49.6151 53.7155 48.308 53.0353 47.2593 52.0404Z" fill="#DBE6F6"/>
<path d="M127.305 77.814C127.254 81.9988 126.166 86.1057 124.14 89.7675C123.566 91.0824 122.52 92.1344 121.209 92.716C119.897 93.2977 118.416 93.3667 117.056 92.9095C113.894 92.1177 113.597 89.4958 113.553 86.9488C113.49 84.6192 113.785 82.2937 114.428 80.0539C114.839 79.5484 114.687 78.9453 114.713 78.3755C114.863 75.1001 115.309 74.4597 118.491 73.9656C120.802 73.6069 122.885 72.4828 125.233 72.259C126.936 72.0967 127.869 72.4323 127.573 74.3722C127.399 75.509 127.825 76.6987 127.305 77.814Z" fill="#C1DAF4"/>
<path d="M77.0494 105.762C78.1567 106.94 78.8627 106.335 79.4987 105.237C79.8335 104.66 79.666 103.487 80.9149 103.895C81.7082 104.154 82.2578 104.433 81.7958 105.559C81.3843 106.563 82.619 106.707 83.1928 107.032C84.1586 107.578 84.1478 106.655 84.447 106.051C85.0876 104.76 86.6283 104.501 87.7218 103.914C89.0818 103.185 89.0744 104.991 89.4831 105.874C89.824 106.61 89.5267 107.858 90.6566 107.958C91.5599 108.039 91.6523 106.903 92.1401 106.338C92.2336 106.404 92.3115 106.489 92.3682 106.588C92.4249 106.687 92.4592 106.797 92.4684 106.911C92.4777 107.025 92.4619 107.139 92.4219 107.246C92.382 107.353 92.319 107.45 92.2374 107.53C91.6914 110.93 90.2825 114.134 88.1453 116.835C84.6295 116.904 81.0502 117.254 78.1584 114.571C76.975 111.788 76.389 108.788 76.4384 105.765L77.0494 105.762Z" fill="#BCCCF3"/>
<path d="M81.1331 64.8548C80.2772 68.0455 79.2109 71.1691 76.282 73.0665C74.9085 73.9562 74.01 75.3817 72.4514 76.0545C71.7967 76.337 71.8033 77.2664 72.1826 77.881C73.1233 79.4054 72.4534 80.9019 72.1871 82.3886C71.7176 85.0083 70.5647 86.6856 67.5347 85.3746C65.6929 84.3276 64.2862 82.6567 63.5684 80.6635C66.2622 79.7248 68.9749 78.7864 68.6773 75.1159C68.6093 74.2778 69.1481 74.2902 69.6945 74.0385C70.9597 73.4558 72.5415 72.796 70.2369 71.3966C70.1262 71.3405 70.0323 71.256 69.9649 71.1518C69.8975 71.0475 69.859 70.9273 69.8533 70.8033C69.8476 70.6793 69.8749 70.556 69.9324 70.446C69.9899 70.3361 70.0756 70.2433 70.1807 70.1773C72.8402 67.9103 74.2884 63.856 78.7945 64.2963C79.679 64.0427 80.6689 63.3483 81.1331 64.8548Z" fill="#C2D1F5"/>
<path d="M95.0898 119.256C96.9371 118.399 98.9562 117.977 100.992 118.022C103.243 118.779 106.042 118.642 106.912 121.652C106.689 122.178 106.465 122.705 106.242 123.231C104.927 123.493 103.713 124.12 102.74 125.041C101.286 125.754 99.6895 126.129 98.0701 126.139C95.4141 124.564 95.6318 121.745 95.0898 119.256Z" fill="#CCDDF5"/>
<path d="M108.588 70.1332C112.447 69.3583 116.662 70.1941 120.05 67.1993C120.92 66.4298 122.683 66.7647 123.914 66.2826C125.26 65.7549 127.171 65.9579 127.29 63.5211C127.362 62.0328 128.976 61.9233 130.293 61.9999C129.893 62.0621 129.509 62.2058 129.166 62.422C128.823 62.6383 128.528 62.9225 128.299 63.2571C128.071 63.5917 127.913 63.9697 127.835 64.3677C127.758 64.7657 127.764 65.1753 127.851 65.5712C127.975 67.0877 127.862 68.6237 127.854 70.1509C127.692 70.7961 127.312 71.3652 126.778 71.7615C126.243 72.1578 125.588 72.3568 124.924 72.3246C122.367 72.5787 119.795 72.6398 117.229 72.5073C115.615 72.4721 114.323 71.2063 112.672 71.3066L112.087 71.298C111.008 70.5613 109.661 71.4612 108.582 70.7231L108.581 70.7272C108.523 70.6807 108.48 70.6182 108.457 70.5475C108.435 70.4768 108.434 70.401 108.454 70.3297C108.499 70.1988 108.544 70.1333 108.588 70.1332Z" fill="#E2E7F7"/>
<path d="M117.358 70.7384C120.865 70.7418 124.467 72.4363 127.847 70.1538C128.158 72.7205 127.973 75.323 127.3 77.8194C127.2 73.0306 127.201 73.0363 122.42 74.5426C121.705 74.8304 120.953 75.0134 120.186 75.0859C116.821 75.1132 114.783 76.5927 114.423 80.0599C114.424 78.1098 114.425 76.1597 114.426 74.2095C115.097 72.8946 113.997 72.4727 113.248 71.8735C113.104 70.9727 113.773 71.0844 114.307 71.018C115.321 70.8916 116.383 71.2923 117.358 70.7384Z" fill="#BFD1F3"/>
<path d="M22.7381 41.5282C17.3859 39.8876 11.7252 41.1636 6.34455 39.7933C5.09652 39.4173 3.95497 38.7518 3.01296 37.8509C2.07095 36.9501 1.35511 35.8394 0.923828 34.6094C4.13135 35.1738 7.21183 36.3083 10.0193 37.9591C12.0743 39.2452 14.4713 39.8771 16.8933 39.7712C19.5483 38.0203 22.004 38.7587 22.7381 41.5282Z" fill="#E4EBF5"/>
<path d="M78.1582 114.563C81.4521 115.472 85.2309 114.243 88.1449 116.827C84.4597 120.843 80.3153 119.904 78.1582 114.563Z" fill="#CBD9F3"/>
<path d="M98.0723 126.14C99.9288 124.187 102.488 123.547 104.849 122.55C104.985 122.494 105.131 122.468 105.277 122.473C105.424 122.478 105.568 122.514 105.699 122.579C105.831 122.643 105.948 122.735 106.042 122.848C106.135 122.96 106.204 123.092 106.244 123.233C104.098 127.817 101.825 128.626 98.0723 126.14Z" fill="#DCE3F3"/>
<path d="M92.2351 107.522C92.2031 107.125 92.171 106.728 92.1387 106.331C92.4002 104.425 92.6623 102.52 92.9249 100.614L93.3514 100.615C93.3514 103.901 93.3513 107.186 93.3511 110.471C92.979 109.488 92.6071 108.505 92.2351 107.522Z" fill="#B1BED3"/>
<path d="M35.5469 5.71387C34.1485 6.9532 32.5906 7.99993 30.9146 8.82622C30.4588 8.80404 30.0029 8.78175 29.5469 8.75935C31.3095 7.33206 33.3543 6.29414 35.5469 5.71387Z" fill="#F4F5F7"/>
<path d="M22.7383 41.5234C21.0527 40.0641 18.8777 40.2329 16.8935 39.7664C15.9499 38.59 15.3458 37.1779 15.1465 35.683C16.2182 35.0269 17.0838 34.0827 17.6445 32.9582C20.0403 27.9524 23.6036 23.5954 28.0344 20.2538C28.8788 19.6492 29.2954 19.7843 29.9432 20.5196C31.2508 22.0035 36.5773 22.7055 38.3777 21.667C38.7959 21.4257 39.1123 20.8861 39.5388 21.4638C41.0238 23.4748 42.7009 22.132 44.2211 21.667C45.3105 21.3337 45.6462 21.2422 46.3811 22.4468C48.5496 26.001 49.7773 29.9651 51.6563 33.6374C52.4311 35.1519 53.2228 34.7483 54.1845 34.3639C57.0246 33.2285 61.342 34.5897 61.8253 37.3118C62.0399 38.5218 61.4383 39.5833 63.1261 39.8909C62.9294 40.1997 62.8012 40.6101 62.5229 40.7983C61.7197 41.3413 60.8333 41.4761 60.2231 40.5502C59.7842 39.8846 59.8093 38.751 58.489 39.6055C57.4606 40.271 57.8326 41.0194 58.0023 41.8895C58.2743 43.2844 60.4585 45.1931 57.1053 45.7645C58.0631 47.2608 54.5182 49.4936 57.8876 50.6285C57.8796 50.9051 57.8428 51.1802 57.7777 51.4492C55.9528 52.8881 54.0747 52.2746 52.3542 51.3697C51.2521 50.7901 50.1587 50.1993 49.0187 49.6954L49.0199 49.6959C48.6055 49.2831 48.0333 49.4605 47.55 49.3031C46.6199 49.3433 45.7086 49.0566 44.7756 49.1484C44.3787 49.061 44.0218 48.8448 43.7604 48.5336C43.752 48.3433 43.7457 48.1528 43.7414 47.9622C43.6526 47.845 43.5883 47.7111 43.5523 47.5685C43.5163 47.4259 43.5093 47.2775 43.5318 47.1322C43.5543 46.9868 43.6057 46.8475 43.6831 46.7225C43.7606 46.5974 43.8624 46.4893 43.9824 46.4044C46.5313 45.2284 47.2135 42.4303 49.0871 40.6266C50.6783 39.0947 50.3455 36.4748 49.7697 34.3343C49.2298 32.3276 47.3278 32.1119 45.582 31.8669C45.039 31.6556 44.5794 31.2736 44.2725 30.7782C43.3209 29.3587 41.9037 27.8808 40.4402 27.8927C37.6675 27.9154 34.8524 26.9462 32.0889 27.9993C31.5573 28.2316 31.1251 28.6448 30.8691 29.1655C30.7338 29.4522 30.5374 29.7058 30.2938 29.9086C30.0501 30.1114 29.765 30.2585 29.4585 30.3395C29.1519 30.4205 28.8314 30.4335 28.5193 30.3776C28.2073 30.3216 27.9112 30.1981 27.6519 30.0156C27.5356 29.9367 27.4321 29.8403 27.3451 29.7299C27.4402 29.8484 27.5536 29.9509 27.681 30.0335C28.267 30.2013 28.792 30.535 29.1926 30.9945C29.5932 31.4539 29.8524 32.0195 29.9389 32.6229C30.9151 36.0782 31.5913 39.8089 34.7666 42.213C35.5791 42.8285 36.266 43.712 35.7668 44.6969C35.223 45.7695 34.163 45.4231 33.2478 45.0305L33.2475 45.0317C32.936 44.7506 32.5602 44.5503 32.1533 44.4482C31.7463 44.3461 31.3205 44.3454 30.9132 44.4461C28.1883 43.472 25.4633 42.4977 22.7383 41.5234Z" fill="#F1F3F9"/>
<path d="M49.0098 49.6929L57.7687 51.4466L60.6886 52.6154C61.47 53.4811 62.4379 54.1579 63.5191 54.5947C63.9729 54.7661 64.3806 55.0408 64.71 55.397C65.0393 55.7533 65.2812 56.1812 65.4165 56.647C65.7813 57.8573 66.5011 58.9301 67.4826 59.7265C68.4642 60.5229 69.6623 61.0062 70.9218 61.1137C72.6392 61.3127 74.3112 61.7974 75.8688 62.5477C76.2588 62.9297 76.6487 63.3117 77.0384 63.6936C71.1994 63.697 65.3604 63.7004 59.5215 63.704C57.6049 63.177 56.6174 62.1374 57.0689 59.9599C57.6194 57.3053 56.8712 56.172 54.3886 55.2066C53.1792 54.7365 51.7006 54.9417 50.7652 53.7804C52.8517 51.2704 50.137 50.8225 49.0098 49.6929Z" fill="#E2E8F6"/>
<path d="M75.8696 62.5451C72.3963 62.3446 68.7164 63.165 65.7479 60.4686C65.4038 60.1562 64.6038 59.9224 64.621 59.6991C64.873 56.4438 61.3088 55.3422 60.6895 52.6128C63.4439 53.5053 66.6306 53.1869 68.8667 55.5314C71.2011 57.8693 73.5354 60.2072 75.8696 62.5451Z" fill="#E8ECF6"/>
<path d="M26.3428 18.1612C26.7974 18.1478 27.0744 18.3883 27.049 18.8164C27.0557 18.9579 27.0335 19.0993 26.9839 19.232C26.9343 19.3647 26.8582 19.4859 26.7603 19.5884C26.6624 19.6908 26.5447 19.7722 26.4144 19.8278C26.2841 19.8834 26.1438 19.9119 26.0021 19.9116C25.8744 19.8803 25.7568 19.817 25.6604 19.7276C25.564 19.6381 25.4921 19.5256 25.4513 19.4006C25.4095 19.1187 25.4792 18.8315 25.6457 18.6001C25.8121 18.3687 26.0622 18.2112 26.3428 18.1612Z" fill="#F4F5F7"/>
<path d="M114.241 39.1251L113.7 39.5941C113.604 39.4528 113.397 39.2611 113.434 39.1798C113.56 38.9732 113.714 38.7854 113.893 38.6221L114.241 39.1251Z" fill="#FCFCFD"/>
<path d="M50.7697 53.7801C53.5007 53.5875 56.2444 52.9643 58.2981 55.791C59.2446 57.0936 59.9367 58.0229 58.9035 59.563C58.6566 59.8695 58.4759 60.2239 58.373 60.6039C58.2701 60.9838 58.2471 61.3809 58.3056 61.7702C58.3641 62.1594 58.5028 62.5322 58.7129 62.8651C58.923 63.198 59.1999 63.4836 59.5261 63.7039L56.0238 63.7058C55.0992 63.4548 54.1467 63.2772 53.256 62.9375C51.4953 62.2657 50.1544 60.8549 51.395 59.1813C53.3718 56.5147 51.8574 55.438 49.9092 54.1693C48.9629 53.5532 47.7195 53.2642 47.2559 52.0352C48.427 52.6169 49.5983 53.1985 50.7697 53.7801Z" fill="#D6E2F7"/>
<path d="M81.1388 64.8547C80.4452 64.4086 79.6205 64.2116 78.8002 64.2961C78.6037 64.1042 78.4073 63.9123 78.2109 63.7204C81.8193 63.4451 85.1936 63.6839 88.2002 66.2417C91.1634 68.7627 95.4949 68.4412 98.6568 70.7172C98.8649 70.8429 98.9349 70.9697 98.8668 71.0974C98.799 71.2257 98.7304 71.2899 98.6612 71.2899C94.2516 70.3705 89.8294 69.5469 86.3382 66.2856C84.9254 64.9659 82.7596 65.7687 81.1388 64.8547Z" fill="#DADFF7"/>
<path d="M98.6548 71.2933C98.6522 71.1025 98.6507 70.9117 98.6504 70.7207C100.691 69.3946 102.915 70.1147 105.078 70.1456C105.659 71.1455 105.128 71.641 104.219 71.5538C102.748 71.4128 101.243 71.9339 99.8067 71.3138C99.4228 71.307 99.0388 71.3002 98.6548 71.2933Z" fill="#E2E7F7"/>
<path d="M99.8066 71.3094C101.524 70.7434 103.67 72.1065 105.077 70.1412C105.27 70.1365 105.463 70.1329 105.656 70.1305C106.112 69.9107 106.611 69.7966 107.117 69.7969C107.623 69.7971 108.122 69.9117 108.577 70.132L108.58 70.1317L108.573 70.7254C105.703 71.7067 102.824 72.5481 99.8066 71.3094Z" fill="#DADFF7"/>
<path d="M117.355 70.73C115.985 71.1085 114.616 71.4869 113.246 71.8653C113.051 71.6772 112.857 71.4892 112.662 71.3013C114.138 70.3844 115.777 70.8123 117.355 70.73Z" fill="#DADFF7"/>
<path d="M108.576 70.7243C109.776 70.5599 110.997 70.7603 112.082 71.2995C110.882 71.4776 109.656 71.2765 108.576 70.7243Z" fill="#DADFF7"/>
<path d="M108.587 70.1317L105.666 70.1302C106.084 69.8051 106.598 69.6286 107.127 69.6289C107.656 69.6292 108.17 69.8061 108.587 70.1317Z" fill="#E2E7F7"/>
<path d="M27.3995 29.8365C29.963 29.708 30.3972 28.2306 29.4581 26.0302C32.1806 26.8838 34.5629 25.7519 37.0413 26.0945C40.319 26.5478 43.3538 27.0446 45.5002 29.8373C44.5937 30.7329 43.3739 31.2402 42.0996 31.2515C38.6328 30.7883 37.4773 33.4301 36.1018 35.6466C35.0757 37.3006 35.7866 38.1781 37.7278 38.0025C38.0005 38.0664 38.2564 38.1876 38.4785 38.3581C39.2535 39.3629 40.5293 39.7331 41.3674 40.7035C41.5529 40.9981 41.8184 41.2338 42.1329 41.3832C42.4474 41.5326 42.7979 41.5895 43.1434 41.5471C43.489 41.5048 43.8155 41.3651 44.0846 41.1443C44.3538 40.9234 44.5545 40.6306 44.6635 40.2999C45.5526 38.0038 47.392 35.7957 46.2025 33.0065C46.04 32.3517 46.0003 31.6724 46.0856 31.0031C46.6514 30.2007 47.4637 30.0209 48.0318 30.7703C49.6946 32.964 52.6213 34.6295 51.3433 38.1778C51.275 38.403 51.2596 38.641 51.2984 38.8731C51.3371 39.1053 51.4289 39.3254 51.5666 39.5163C53.0554 40.9145 52.1105 41.2972 50.8134 41.8215C49.1905 42.4773 47.2309 42.9872 48.3586 45.6066C48.6523 46.2891 47.6075 46.3124 47.1159 46.3918C45.8517 46.546 44.6678 47.093 43.7309 47.9556C40.3241 46.652 36.4871 46.8883 33.2371 45.0241C33.8379 44.8019 35.6372 45.0751 34.3546 43.9044C33.379 43.0139 32.7853 41.2157 30.7464 41.4432C29.3862 41.595 30.2025 40.4427 30.2646 39.7914C30.5154 37.1668 29.2613 35.1601 27.1836 35.1774C27.6766 33.3956 29.6912 31.6149 27.3995 29.8365Z" fill="#EDEEF7"/>
<path d="M43.7578 48.5281C44.1475 48.5277 44.5372 48.5272 44.9267 48.5269C45.7988 49.2298 46.9699 48.4093 47.8445 49.0994C48.2354 49.2963 48.6263 49.4934 49.0172 49.6904C47.2498 49.3682 44.9358 51.518 43.7578 48.5281Z" fill="#E2E8F6"/>
<path d="M30.9121 44.4484C31.9205 43.7253 32.6384 44.1607 33.2464 45.0339C32.4684 44.8388 31.6903 44.6437 30.9121 44.4484Z" fill="#EDEEF7"/>
<path d="M37.9214 38.599C37.3478 38.9778 37.048 40.1772 36.1013 39.4519C35.3033 38.8406 34.0374 38.3673 34.2163 37.092C34.2872 35.5351 34.8525 34.0414 35.8302 32.8278C36.6724 31.9578 38.418 31.8914 37.5859 29.8333C37.2882 29.0968 39.0223 28.8155 39.3683 29.0498C41.3289 30.3777 43.5428 29.0953 45.5104 29.8399C45.7056 30.2285 45.9008 30.6171 46.0958 31.0057C46.6615 31.288 47.1543 31.6971 47.5358 32.2012C47.9174 32.7052 48.1774 33.2905 48.2955 33.9116C48.4137 34.5326 48.3868 35.1725 48.217 35.7815C48.0472 36.3904 47.7391 36.9519 47.3166 37.4222C46.955 37.8856 47.0385 38.7012 46.9311 39.3569C46.8447 40.2444 46.4833 41.0829 45.8974 41.7551C45.3115 42.4274 44.5303 42.8999 43.6629 43.1067C41.6049 43.7978 40.9104 43.0341 39.9624 41.5322C39.337 40.5414 37.5615 40.3322 37.9214 38.5988V38.599Z" fill="#EAEAF7"/>
<path d="M27.3234 29.8767C26.9248 28.5277 27.3035 27.9843 28.6939 27.9399L27.3234 29.8767Z" fill="#EDEEF7"/>
<path d="M47.8416 49.1031C46.8327 49.2319 45.8092 49.0311 44.9238 48.5305C45.9325 48.4083 46.954 48.6087 47.8416 49.1031Z" fill="#EDEEF7"/>
<path d="M37.9195 38.6074C37.8018 38.1834 36.6842 37.8564 37.6381 37.3683C37.7859 37.2782 37.9564 37.2322 38.1295 37.2355C38.3025 37.2389 38.4711 37.2915 38.6154 37.3872C38.7596 37.4829 38.8736 37.6177 38.944 37.7759C39.0143 37.9341 39.0381 38.109 39.0126 38.2802C38.9891 39.3218 38.4262 38.9635 37.9195 38.6073V38.6074Z" fill="#EDEEF7"/>
</svg>
