<svg width="54" height="40" viewBox="0 0 54 40" fill="none" xmlns="http://www.w3.org/2000/svg">
<path d="M22.0727 0.359304C23.1419 0.388965 24.191 0.656102 25.1441 1.14135C26.0973 1.6266 26.9305 2.3178 27.5835 3.16488C28.718 4.50029 30.0612 5.64328 31.561 6.54949C32.6722 7.25308 33.9299 7.69241 35.2375 7.83368C36.5451 7.97495 37.8677 7.81441 39.1035 7.36439C43.6158 5.92091 49.1165 7.54943 51.7456 10.8748C52.5561 12.8227 52.3896 13.4004 50.6445 14.3879C49.6822 14.8503 48.8159 15.4904 48.0912 16.2745C47.8929 16.5172 47.6548 16.8095 47.3573 16.8385C44.5973 17.1078 42.2897 18.8104 39.5875 19.2602C38.3996 19.43 37.1883 19.2273 36.1204 18.6801C33.8571 17.6763 31.4068 17.1631 28.9309 17.1743C26.1323 17.1394 23.3576 16.6548 20.7128 15.7392C18.5419 14.9424 17.2688 12.2916 17.7163 10.0427C17.8517 9.42736 17.8162 8.78665 17.6136 8.18999C17.3652 7.60738 17.3529 6.95099 17.5794 6.35949C18.075 5.06421 18.1772 3.65142 17.8731 2.2983C17.5545 0.464277 17.7982 0.209882 19.6483 0.219642C20.4585 0.127416 21.2785 0.17466 22.0727 0.359304Z" fill="#FCFCFE"/>
<path d="M22.0692 0.360648C21.8815 0.36975 21.6939 0.382839 21.506 0.38729C18.6186 0.455458 18.6197 0.455118 19.0508 3.33352C19.0877 3.58015 19.2025 3.88491 19.1055 4.0714C17.9015 6.38778 19.3331 8.96488 18.3457 11.327C17.9534 12.2656 20.297 14.6901 21.7117 15.0855C23.9311 15.7059 26.2489 15.7363 28.5054 16.2201C30.1148 16.5652 32.0147 15.9162 33.7464 16.6249C34.111 16.7017 34.4666 16.816 34.8076 16.9661C38.0655 19.2653 41.0951 18.3548 44.0631 16.3607C44.2175 16.257 44.423 16.0837 44.5586 16.1191C47.2226 16.8152 48.356 14.155 50.3916 13.4559C50.9125 13.2925 51.3473 12.9291 51.6005 12.4454C51.8537 11.9617 51.9046 11.3974 51.7421 10.8762C52.3477 11.3372 52.7631 12.0044 52.9099 12.7512C53.1659 13.524 53.1502 14.3611 52.8651 15.1237C51.5079 16.7194 49.4998 17.4144 47.8742 18.6544C46.9838 19.3336 46.3931 20.362 45.3184 20.7984C43.4779 21.0525 41.8788 22.0808 40.0728 22.4447C36.45 21.1721 32.4989 22.1863 28.9116 20.9633C25.4095 19.7694 21.6884 19.105 18.5174 17.0257C18.1868 16.8612 17.8731 16.6648 17.5808 16.4393C17.2099 16.0689 17.0884 15.5166 16.6548 15.1917C14.4162 13.2667 11.9068 13.9215 9.40125 14.3847C7.37302 14.7595 5.47075 15.7682 3.2741 15.3399C1.99838 15.0912 1.89593 14.5267 2.28866 13.5305C4.63627 4.62904 12.9772 0.181451 19.8717 0.0249173C20.6209 -0.0556783 21.3782 0.0600248 22.0692 0.360648Z" fill="#F7F8FD"/>
<path d="M24.9763 27.9194C23.9427 28.157 24.1322 29.0607 24.0347 29.753C23.7109 32.0524 23.5061 34.3698 23.1351 36.6608C22.9106 38.0473 22.4716 39.5015 20.7237 39.5903C19.9882 39.6343 19.2605 39.4196 18.6666 38.9835C18.0728 38.5473 17.6502 37.9172 17.4722 37.2022C16.994 35.7515 16.6615 35.7028 15.4529 36.7129C13.5868 38.2725 10.589 37.0613 9.84716 34.6704C8.64087 30.7826 8.61927 30.7598 4.93521 29.0558C4.77187 28.9628 4.61708 28.8555 4.47266 28.7352C4.48408 28.6741 4.47605 28.5741 4.50974 28.5572C7.47956 27.0673 9.73368 24.1824 13.3761 24.002C15.8794 24.4149 18.2456 25.3866 20.6784 25.9424C22.8526 26.4391 25.2384 27.4486 27.5943 26.0107C28.4914 25.4632 29.5126 26.2187 30.4673 26.439C31.0235 26.985 30.7325 27.4551 30.2988 27.8645C29.121 28.9761 26.1421 28.996 24.9763 27.9194Z" fill="#BEC8F6"/>
<path d="M13.2515 24.5269C11.2481 24.6207 10.1252 26.2743 8.62195 27.2251C7.38978 28.0736 5.96124 28.5932 4.47187 28.7346C2.90975 27.9332 1.64495 26.6531 0.862416 25.0814C0.079881 23.5098 -0.179358 21.729 0.122605 19.9995C0.238527 18.6935 0.590631 17.4194 1.16175 16.2393C2.58285 16.3175 3.60282 17.1799 4.63737 18.0143C7.30761 19.8838 9.70572 22.1466 12.6757 23.5827C13.0812 23.7789 13.4926 23.9474 13.2515 24.5269Z" fill="#C2D5F7"/>
<path d="M4.20143 18.5074C3.34016 17.548 1.90518 17.3569 1.16211 16.2393C1.28203 15.967 1.40205 15.6946 1.52215 15.4219C3.3148 16.5944 5.43575 17.1623 7.57446 17.0422C8.9537 16.938 10.2783 16.2339 11.7163 16.6381C15.7035 18.0554 19.7448 19.2294 24.0138 19.4037C24.6499 19.8305 25.4812 19.8888 26.0423 20.4596C26.2883 20.8181 26.4722 21.2154 26.5863 21.6349C26.7064 21.9598 26.7177 22.315 26.6186 22.6469C26.5194 22.9788 26.3151 23.2695 26.0365 23.4753C25.8942 23.6014 25.7282 23.698 25.5482 23.7594C25.3682 23.8207 25.1778 23.8457 24.9881 23.8328C24.7984 23.8199 24.6131 23.7694 24.4431 23.6842C24.273 23.5991 24.1216 23.4809 23.9977 23.3367C22.8779 21.9504 21.5609 22.1383 20.1164 22.5256C18.5928 22.9342 16.8975 22.4071 15.4667 23.3586C15.3148 23.4528 15.1455 23.5157 14.969 23.5435C13.8965 23.022 12.7126 23.796 11.6415 23.2587C9.40146 22.8818 8.48683 20.6581 6.66079 19.6378C5.85256 19.1863 4.8464 19.2286 4.20143 18.5074Z" fill="#D7E0F8"/>
<path d="M24.9746 27.9193C27.0136 28.3674 28.7452 27.2864 30.5943 26.7894C30.7899 25.2584 32.0111 26.1091 32.7569 25.8578C34.281 26.1261 35.9432 25.2592 37.3606 26.415C36.2154 27.3063 34.868 27.9014 33.4378 28.1477C32.1897 28.4428 31.6447 29.0359 31.6658 30.3446C31.6901 31.9197 31.4105 33.4848 30.8422 34.9541C30.4992 35.8446 30.0446 36.776 28.9538 36.8363C27.7405 36.9033 26.9882 36.0833 26.5293 35.0587C25.8631 33.429 25.4507 31.7068 25.3065 29.9522C25.2266 29.271 25.087 28.5967 24.9746 27.9193Z" fill="#BCC6F4"/>
<path d="M32.8589 26.4158C32.134 26.7207 31.2737 26.205 30.5948 26.7892C29.1883 26.6592 27.7701 26.7685 26.4001 27.1124C24.1379 27.7033 21.8534 27.1876 19.6893 26.38C17.5869 25.5954 15.4093 25.1026 13.2515 24.527C9.74012 23.2639 7.17571 20.5771 4.20117 18.5071C6.34441 18.4165 7.88044 19.5274 9.06926 21.1347C9.38221 21.5625 9.78264 21.9188 10.244 22.1799C10.7053 22.4409 11.2169 22.6008 11.7448 22.6488C12.7683 23.7416 13.9622 23.3012 15.1378 23.0259H15.1381C16.7968 22.6686 18.3095 23.3036 19.7841 23.855C20.6817 24.1906 21.489 24.5739 22.4661 24.3154C22.8985 24.2091 23.3553 24.2768 23.7383 24.504C24.3292 24.8609 25.0047 25.0533 25.6949 25.0613C26.3851 25.0694 27.0649 24.8928 27.664 24.5499C27.8495 24.4285 28.0585 24.3477 28.2774 24.3126C28.4963 24.2774 28.7202 24.2889 28.9344 24.3461C30.7267 25.1569 32.2903 24.5408 33.9155 23.7861C35.0609 23.1608 36.3697 22.8993 37.6675 23.0366C38.604 23.1858 39.2221 22.3902 40.0312 22.1278C40.235 22.0928 40.4342 22.0625 40.6384 22.0341C43.3239 21.079 46.015 20.4818 48.7821 21.7303C49.2461 21.9397 49.7077 22.1151 49.8628 22.665C49.5904 23.0435 49.1942 23.3148 48.7428 23.4318C47.6679 23.7091 46.5973 23.9 45.5673 23.2781C44.1137 22.8683 43.0273 23.8949 41.9746 24.4715C39.5711 25.756 36.8593 26.351 34.1388 26.1907C33.7017 26.1836 33.2674 26.26 32.8589 26.4158Z" fill="#CED7F7"/>
<path d="M49.8633 22.6654C46.6038 21.9935 43.3382 21.4686 40.0186 22.2613C39.9224 22.1777 39.8902 22.094 39.922 22.0101C39.9538 21.9262 39.9858 21.8842 40.0178 21.8842C41.653 21.2574 43.2882 20.6306 44.9234 20.0038C46.0822 19.1596 47.3068 18.4097 48.5855 17.7613C50.0022 17.0796 51.2131 16.0348 52.0951 14.7333C52.8194 14.2588 52.8315 13.491 52.9113 12.751C53.6796 14.494 53.7944 16.4554 53.2346 18.2761C52.6749 20.0969 51.4781 21.6551 49.8633 22.6654Z" fill="#DDE5F6"/>
<path d="M2.29089 13.5307C2.63122 14.0782 3.15912 14.4832 3.77609 14.6702C4.39306 14.8571 5.05696 14.8132 5.64396 14.5467C8.86885 13.3889 12.1376 11.8999 15.5851 13.7545C16.1849 14.0772 17.6034 12.9714 17.3986 14.7313C17.3397 14.8004 17.2811 14.8695 17.2227 14.9387C17.1499 14.992 17.0766 15.045 17.0041 15.0992C14.0738 15.1664 11.4514 16.6553 8.56979 16.9365C6.85837 17.0927 5.13314 16.9872 3.45354 16.6234C2.98622 16.5512 2.55517 16.3286 2.2256 15.9895C1.89603 15.6504 1.68587 15.2131 1.62695 14.744L2.29089 13.5307Z" fill="#F0F3FB"/>
<path d="M1.62723 14.7424C1.92169 15.1769 2.32456 15.5268 2.79594 15.7575C3.26732 15.9882 3.79082 16.0917 4.31453 16.0578C7.81986 16.1325 11.3155 15.6621 14.6764 14.6634C15.4619 14.45 16.2546 14.1817 17.0212 14.7298C15.726 16.839 13.4127 17.039 11.3687 17.7439C10.9249 17.4709 10.4097 17.3366 9.88916 17.3583C9.36859 17.38 8.86639 17.5568 8.44695 17.8659C6.92314 18.8924 2.89371 17.3626 1.52344 15.421C1.55799 15.1948 1.59259 14.9686 1.62723 14.7424Z" fill="#E9ECF9"/>
<path d="M32.8594 26.418C34.0382 25.3814 35.6747 25.6999 36.9461 25.5471C39.4933 25.241 41.3671 23.7927 43.5498 22.9008C44.197 22.5147 44.9325 22.3013 45.6859 22.2812C46.469 23.5196 45.9212 24.1599 44.7222 24.6351C43.6736 25.0509 42.4443 24.9199 41.5303 25.7148C40.1408 25.9488 38.7512 26.1829 37.3617 26.417C35.8712 26.6651 34.35 26.6655 32.8594 26.418Z" fill="#C6D1F4"/>
<path d="M41.5312 25.7119C41.8324 24.7108 42.7459 24.5603 43.552 24.3079C44.6129 23.9757 45.4882 23.4956 45.6868 22.2783C46.706 22.6626 47.725 23.0469 48.7441 23.4311C46.6867 25.0233 44.13 25.8317 41.5312 25.7119Z" fill="#BDCAF3"/>
<path d="M40.0165 21.8832C40.0168 22.009 40.0171 22.1348 40.0173 22.2605L40.0236 22.2735C39.6688 22.4916 39.293 22.6735 38.9018 22.8164C37.7041 23.2144 36.4612 22.9327 35.2447 23.0577C32.5943 23.2155 30.121 21.8763 27.4423 22.1567C26.7326 22.231 26.3081 21.436 25.6965 21.1334L23.8058 20.388C22.0353 20.1515 20.529 19.1143 18.7496 18.8033C17.4296 18.5726 17.5371 17.2912 18.9003 16.2441C20.0107 17.3237 21.1985 18.118 22.8909 17.9856C23.6494 17.9419 24.4015 18.1466 25.0332 18.5686C28.4732 21.0355 32.4795 20.8529 36.385 21.0849C37.6349 21.12 38.867 21.3909 40.0165 21.8832Z" fill="#E9ECF9"/>
<path d="M18.9011 16.2456C18.2162 17.3665 18.502 18.0088 19.7629 18.4778C21.1552 18.9957 22.4624 19.7423 23.8066 20.3895C20.7097 19.603 17.4349 19.7219 14.4175 18.4856C13.4697 18.0117 12.4268 17.7587 11.3672 17.7456C12.9933 16.3179 14.928 15.2862 17.0197 14.7314L17.0205 14.7328C17.3425 15.1604 17.7229 15.5407 18.1505 15.8627C18.4007 15.9903 18.6509 16.118 18.9011 16.2456Z" fill="#E0E3F7"/>
<path d="M52.0936 14.7334C51.4396 17.3158 48.9157 17.7274 47.122 18.9719C46.42 19.3792 45.6838 19.7245 44.9219 20.0039C45.5539 18.9009 46.7572 18.5445 47.7318 17.9077C49.2686 16.9684 50.7273 15.9069 52.0936 14.7334Z" fill="#EBEFF8"/>
<path d="M18.1496 15.8627C17.865 15.8203 17.6015 15.6876 17.3981 15.4842C17.1946 15.2808 17.0619 15.0174 17.0195 14.7328C17.1452 14.7318 17.2708 14.7313 17.3964 14.7315C17.6475 15.1086 17.8985 15.4856 18.1496 15.8627Z" fill="#E9ECF9"/>
<path d="M38.8931 22.2629C39.2704 22.2667 39.6478 22.2705 40.0251 22.2744C39.4876 23.094 38.8339 23.7861 37.7718 23.751C36.0602 23.6944 34.6688 24.5779 33.2003 25.2276C31.9096 25.7986 30.6309 26.2634 29.2896 25.4312C29.0546 25.2667 28.7673 25.1941 28.4823 25.2271C28.1973 25.2602 27.9343 25.3967 27.7432 25.6107C27.5037 25.867 27.1918 26.0442 26.849 26.1185C26.5062 26.1929 26.1489 26.1609 25.8248 26.0268C23.6652 25.0714 21.188 26.0076 19.0088 24.574C17.9523 23.8791 16.2577 24.0375 15.1387 23.0263C15.7089 21.6513 17.0294 21.7311 18.1345 21.6631C18.8765 21.6983 19.6202 21.6543 20.3529 21.5317C21.9531 21.089 23.5634 20.5704 24.5262 22.6359C24.6744 22.9538 25.1621 23.2546 25.4888 23.0349C26.2359 22.5323 25.5908 21.7715 25.698 21.1344C28.8955 20.6927 31.9336 22.2246 35.122 21.8958C36.3407 22.4115 37.6736 21.7555 38.8931 22.2629Z" fill="#D5DAF8"/>
<path d="M15.1391 23.0265C13.7109 24.2525 12.9986 24.1734 11.7461 22.6494C12.8478 23.039 14.0558 22.4716 15.1391 23.0265Z" fill="#D5DAF8"/>
<path d="M38.8942 22.2636C37.6342 22.171 36.3286 22.5475 35.123 21.8965C36.3824 21.995 37.6878 21.621 38.8942 22.2636Z" fill="#DDE5F6"/>
</svg>
