<svg width="72" height="73" viewBox="0 0 72 73" fill="none" xmlns="http://www.w3.org/2000/svg">
<rect y="16.0117" width="58.0078" height="58.0078" rx="22" transform="rotate(-15 0 16.0117)" fill="#FFDE46" fill-opacity="0.2"/>
<g clip-path="url(#clip0_293_10042)">
<path d="M48.0988 26.6195L46.9331 22.2692L44.7579 22.8521L44.1751 20.677L42 21.2598L41.4172 19.0846L37.0669 20.2503L36.4841 18.0752L24.8835 21.1835L25.4663 23.3586L21.116 24.5243L21.6988 26.6995L19.5237 27.2823L20.1066 29.4574L17.9314 30.0402L19.097 34.3905L16.9219 34.9733L20.0303 46.5739L22.2054 45.9911L23.3711 50.3414L25.5462 49.7586L26.1291 51.9337L28.3042 51.3508L28.887 53.526L33.2373 52.3604L33.8201 54.5355L45.4207 51.4271L44.8379 49.252L49.1882 48.0863L48.6053 45.9112L50.7804 45.3283L50.1976 43.1532L52.3728 42.5704L51.2071 38.2201L53.3822 37.6373L50.2739 26.0367L48.0988 26.6195Z" fill="#FFDE46"/>
<path d="M32.6946 41.6281L30.5195 42.2109L31.1023 44.386L33.2775 43.8032L32.6946 41.6281Z" fill="black"/>
<path d="M41.1478 35.4758L38.9727 36.0586L40.5268 41.8589L42.7019 41.2761L41.1478 35.4758Z" fill="black"/>
<path d="M29.7767 30.7531L27.6016 31.3359L28.9615 36.4112L31.1366 35.8284L29.7767 30.7531Z" fill="black"/>
<path d="M38.3871 33.8854L31.1367 35.8281L31.7195 38.0032L38.9699 36.0605L38.3871 33.8854Z" fill="black"/>
<path d="M33.5453 27.4103L32.7682 24.5101L30.5931 25.093L31.3702 27.9932L29.1951 28.576L29.7779 30.7511L37.0283 28.8083L36.4455 26.6332L33.5453 27.4103Z" fill="black"/>
<path d="M39.2024 28.2258L37.0273 28.8086L37.6102 30.9837L39.7853 30.4009L39.2024 28.2258Z" fill="black"/>
<path d="M33.2734 43.8008L33.8563 45.9759L36.0314 45.3931L36.8085 48.2933L38.9836 47.7104L38.2065 44.8103L41.1066 44.0332L40.5238 41.858L33.2734 43.8008Z" fill="black"/>
<path d="M21.6985 26.6984L19.5234 27.2812L20.1063 29.4564L22.2814 28.8735L21.6985 26.6984Z" fill="black"/>
<path d="M41.4152 19.0831L37.065 20.2487L36.4821 18.0736L24.8815 21.182L25.4643 23.3571L21.1141 24.5228L21.6969 26.6979L26.0472 25.5323L25.4643 23.3571L37.065 20.2487L37.6478 22.4239L41.9981 21.2583L42.5809 23.4334L44.756 22.8505L44.1732 20.6754L41.9981 21.2583L41.4152 19.0831Z" fill="black"/>
<path d="M46.9329 22.2687L44.7578 22.8516L45.9235 27.2018L48.0986 26.619L46.9329 22.2687Z" fill="black"/>
<path d="M50.2728 26.0383L48.0977 26.6211L51.206 38.2218L53.3811 37.639L50.2728 26.0383Z" fill="black"/>
<path d="M51.2064 38.2219L49.0312 38.8047L50.1969 43.155L52.372 42.5721L51.2064 38.2219Z" fill="black"/>
<path d="M19.0986 34.3886L16.9235 34.9714L20.0318 46.572L22.2069 45.9892L23.3726 50.3394L25.5478 49.7566L26.1306 51.9317L28.3057 51.3489L27.7229 49.1738L25.5478 49.7566L24.3821 45.4063L22.2069 45.9892L19.0986 34.3886L21.2737 33.8057L20.1081 29.4554L17.9329 30.0383L19.0986 34.3886Z" fill="black"/>
<path d="M33.2378 52.3611L33.8206 54.5362L45.4212 51.4278L44.8384 49.2527L49.1887 48.0871L48.6059 45.9119L44.2556 47.0775L44.8384 49.2527L33.2378 52.3611L32.655 50.1859L28.3047 51.3516L28.8875 53.5267L33.2378 52.3611Z" fill="black"/>
<path d="M50.1985 43.1555L48.0234 43.7383L48.6063 45.9134L50.7814 45.3306L50.1985 43.1555Z" fill="black"/>
</g>
<defs>
<clipPath id="clip0_293_10042">
<rect width="34.5285" height="34.5285" fill="white" transform="translate(14.0078 24.0977) rotate(-15)"/>
</clipPath>
</defs>
</svg>
