<svg width="59" height="59" viewBox="0 0 59 59" fill="none" xmlns="http://www.w3.org/2000/svg">
<g clip-path="url(#clip0_293_9287)">
<path d="M35.8174 7.65792L32.0078 6.14062L30.4905 9.95025L34.3001 11.4675L35.8174 7.65792Z" fill="#EA5353" stroke="#EA5353" stroke-width="0.35" stroke-miterlimit="10"/>
<path d="M39.626 9.17257L35.8164 7.65527L34.2991 11.4649L38.1087 12.9822L39.626 9.17257Z" fill="#EA5353" stroke="#EA5353" stroke-width="0.35" stroke-miterlimit="10"/>
<path d="M43.4385 10.6892L39.6289 9.17188L38.1116 12.9815L41.9212 14.4988L43.4385 10.6892Z" fill="#EA5353" stroke="#EA5353" stroke-width="0.35" stroke-miterlimit="10"/>
<path d="M47.251 12.2087L43.4414 10.6914L41.9241 14.501L45.7337 16.0183L47.251 12.2087Z" fill="#EA5353" stroke="#EA5353" stroke-width="0.35" stroke-miterlimit="10"/>
<path d="M51.0596 13.7243L47.25 12.207L45.7327 16.0167L49.5423 17.5339L51.0596 13.7243Z" fill="#EA5353" stroke="#EA5353" stroke-width="0.35" stroke-miterlimit="10"/>
<path d="M30.4854 9.95089L26.6758 8.43359L25.1585 12.2432L28.9681 13.7605L30.4854 9.95089Z" fill="#D62B2B" stroke="#D62B2B" stroke-width="0.35" stroke-miterlimit="10"/>
<path d="M34.2979 11.4704L30.4883 9.95312L28.971 13.7627L32.7806 15.28L34.2979 11.4704Z" fill="#F48989" stroke="#F48989" stroke-width="0.35" stroke-miterlimit="10"/>
<path d="M38.1065 12.986L34.2969 11.4688L32.7796 15.2784L36.5892 16.7957L38.1065 12.986Z" fill="#D62B2B" stroke="#D62B2B" stroke-width="0.35" stroke-miterlimit="10"/>
<path d="M41.919 14.5056L38.1094 12.9883L36.5921 16.7979L40.4017 18.3152L41.919 14.5056Z" fill="#D62B2B" stroke="#D62B2B" stroke-width="0.35" stroke-miterlimit="10"/>
<path d="M45.7315 16.0212L41.9219 14.5039L40.4046 18.3135L44.2142 19.8308L45.7315 16.0212Z" fill="#C11E1E" stroke="#C11E1E" stroke-width="0.35" stroke-miterlimit="10"/>
<path d="M49.5401 17.5407L45.7305 16.0234L44.2132 19.8331L48.0228 21.3504L49.5401 17.5407Z" fill="#D62B2B" stroke="#D62B2B" stroke-width="0.35" stroke-miterlimit="10"/>
<path d="M53.3487 19.0564L49.5391 17.5391L48.0218 21.3487L51.8314 22.866L53.3487 19.0564Z" fill="#EA5353" stroke="#EA5353" stroke-width="0.35" stroke-miterlimit="10"/>
<path d="M28.9698 13.7595L25.1602 12.2422L23.6429 16.0518L27.4525 17.5691L28.9698 13.7595Z" fill="#F48989" stroke="#F48989" stroke-width="0.35" stroke-miterlimit="10"/>
<path d="M32.7823 15.279L28.9727 13.7617L27.4554 17.5713L31.265 19.0886L32.7823 15.279Z" fill="#EA5353" stroke="#EA5353" stroke-width="0.35" stroke-miterlimit="10"/>
<path d="M36.5909 16.7946L32.7812 15.2773L31.264 19.087L35.0736 20.6043L36.5909 16.7946Z" fill="#D62B2B" stroke="#D62B2B" stroke-width="0.35" stroke-miterlimit="10"/>
<path d="M40.4034 18.3142L36.5938 16.7969L35.0765 20.6065L38.8861 22.1238L40.4034 18.3142Z" fill="#C11E1E" stroke="#C11E1E" stroke-width="0.35" stroke-miterlimit="10"/>
<path d="M44.212 19.8337L40.4023 18.3164L38.885 22.126L42.6947 23.6433L44.212 19.8337Z" fill="#C11E1E" stroke="#C11E1E" stroke-width="0.35" stroke-miterlimit="10"/>
<path d="M48.0245 21.3493L44.2148 19.832L42.6976 23.6417L46.5072 25.1589L48.0245 21.3493Z" fill="#C11E1E" stroke="#C11E1E" stroke-width="0.35" stroke-miterlimit="10"/>
<path d="M51.8331 22.8659L48.0234 21.3486L46.5061 25.1583L50.3158 26.6755L51.8331 22.8659Z" fill="#D62B2B" stroke="#D62B2B" stroke-width="0.35" stroke-miterlimit="10"/>
<path d="M23.6417 16.0524L19.832 14.5352L18.3147 18.3448L22.1244 19.8621L23.6417 16.0524Z" fill="#D62B2B" stroke="#D62B2B" stroke-width="0.35" stroke-miterlimit="10"/>
<path d="M27.4502 17.572L23.6406 16.0547L22.1233 19.8643L25.933 21.3816L27.4502 17.572Z" fill="#F48989" stroke="#F48989" stroke-width="0.35" stroke-miterlimit="10"/>
<path d="M31.2628 19.0876L27.4531 17.5703L25.9358 21.3799L29.7455 22.8972L31.2628 19.0876Z" fill="#EA5353" stroke="#EA5353" stroke-width="0.35" stroke-miterlimit="10"/>
<path d="M35.0752 20.6071L31.2656 19.0898L29.7483 22.8995L33.558 24.4168L35.0752 20.6071Z" fill="#D62B2B" stroke="#D62B2B" stroke-width="0.35" stroke-miterlimit="10"/>
<path d="M38.8838 22.1228L35.0742 20.6055L33.5569 24.4151L37.3665 25.9324L38.8838 22.1228Z" fill="#D62B2B" stroke="#D62B2B" stroke-width="0.35" stroke-miterlimit="10"/>
<path d="M42.6963 23.6413L38.8867 22.124L37.3694 25.9336L41.179 27.4509L42.6963 23.6413Z" fill="#C11E1E" stroke="#C11E1E" stroke-width="0.35" stroke-miterlimit="10"/>
<path d="M22.1221 19.865L18.3125 18.3477L16.7952 22.1573L20.6048 23.6746L22.1221 19.865Z" fill="#F48989" stroke="#F48989" stroke-width="0.35" stroke-miterlimit="10"/>
<path d="M25.9346 21.3806L22.125 19.8633L20.6077 23.6729L24.4173 25.1902L25.9346 21.3806Z" fill="#EA5353" stroke="#EA5353" stroke-width="0.35" stroke-miterlimit="10"/>
<path d="M29.7471 22.9001L25.9375 21.3828L24.4202 25.1924L28.2298 26.7097L29.7471 22.9001Z" fill="#D62B2B" stroke="#D62B2B" stroke-width="0.35" stroke-miterlimit="10"/>
<path d="M33.5557 24.4196L29.7461 22.9023L28.2288 26.712L32.0384 28.2293L33.5557 24.4196Z" fill="#D62B2B" stroke="#D62B2B" stroke-width="0.35" stroke-miterlimit="10"/>
<path d="M37.3643 25.9353L33.5547 24.418L32.0374 28.2276L35.847 29.7449L37.3643 25.9353Z" fill="#D62B2B" stroke="#D62B2B" stroke-width="0.35" stroke-miterlimit="10"/>
<path d="M41.1768 27.4548L37.3672 25.9375L35.8499 29.7471L39.6595 31.2644L41.1768 27.4548Z" fill="#C11E1E" stroke="#C11E1E" stroke-width="0.35" stroke-miterlimit="10"/>
<path d="M16.7979 22.1579L12.9883 20.6406L11.471 24.4502L15.2806 25.9675L16.7979 22.1579Z" fill="#D62B2B" stroke="#D62B2B" stroke-width="0.35" stroke-miterlimit="10"/>
<path d="M20.6065 23.6745L16.7969 22.1572L15.2796 25.9668L19.0892 27.4841L20.6065 23.6745Z" fill="#EA5353" stroke="#EA5353" stroke-width="0.35" stroke-miterlimit="10"/>
<path d="M24.4151 25.1931L20.6055 23.6758L19.0882 27.4854L22.8978 29.0027L24.4151 25.1931Z" fill="#D62B2B" stroke="#D62B2B" stroke-width="0.35" stroke-miterlimit="10"/>
<path d="M28.2276 26.7087L24.418 25.1914L22.9007 29.001L26.7103 30.5183L28.2276 26.7087Z" fill="#D62B2B" stroke="#D62B2B" stroke-width="0.35" stroke-miterlimit="10"/>
<path d="M32.0401 28.2282L28.2305 26.7109L26.7132 30.5206L30.5228 32.0379L32.0401 28.2282Z" fill="#D62B2B" stroke="#D62B2B" stroke-width="0.35" stroke-miterlimit="10"/>
<path d="M35.8487 29.7448L32.0391 28.2275L30.5218 32.0372L34.3314 33.5544L35.8487 29.7448Z" fill="#D62B2B" stroke="#D62B2B" stroke-width="0.35" stroke-miterlimit="10"/>
<path d="M39.6612 31.2634L35.8516 29.7461L34.3343 33.5557L38.1439 35.073L39.6612 31.2634Z" fill="#C11E1E" stroke="#C11E1E" stroke-width="0.35" stroke-miterlimit="10"/>
<path d="M15.2784 25.9665L11.4688 24.4492L9.95146 28.2588L13.7611 29.7761L15.2784 25.9665Z" fill="#D62B2B" stroke="#D62B2B" stroke-width="0.35" stroke-miterlimit="10"/>
<path d="M19.0909 27.486L15.2812 25.9688L13.764 29.7784L17.5736 31.2957L19.0909 27.486Z" fill="#C11E1E" stroke="#C11E1E" stroke-width="0.35" stroke-miterlimit="10"/>
<path d="M22.8995 29.0017L19.0898 27.4844L17.5726 31.294L21.3822 32.8113L22.8995 29.0017Z" fill="#D62B2B" stroke="#D62B2B" stroke-width="0.35" stroke-miterlimit="10"/>
<path d="M26.712 30.5202L22.9023 29.0029L21.385 32.8126L25.1947 34.3298L26.712 30.5202Z" fill="#C11E1E" stroke="#C11E1E" stroke-width="0.35" stroke-miterlimit="10"/>
<path d="M30.5206 32.0368L26.7109 30.5195L25.1936 34.3292L29.0033 35.8464L30.5206 32.0368Z" fill="#D62B2B" stroke="#D62B2B" stroke-width="0.35" stroke-miterlimit="10"/>
<path d="M34.3292 33.5564L30.5195 32.0391L29.0022 35.8487L32.8119 37.366L34.3292 33.5564Z" fill="#C11E1E" stroke="#C11E1E" stroke-width="0.35" stroke-miterlimit="10"/>
<path d="M38.1417 35.072L34.332 33.5547L32.8147 37.3643L36.6244 38.8816L38.1417 35.072Z" fill="#C11E1E" stroke="#C11E1E" stroke-width="0.35" stroke-miterlimit="10"/>
<path d="M41.9542 36.5915L38.1445 35.0742L36.6272 38.8838L40.4369 40.4011L41.9542 36.5915Z" fill="#AD0E0E" stroke="#AD0E0E" stroke-width="0.35" stroke-miterlimit="10"/>
<path d="M45.7628 38.1081L41.9531 36.5908L40.4358 40.4004L44.2455 41.9177L45.7628 38.1081Z" fill="#AD0E0E" stroke="#AD0E0E" stroke-width="0.35" stroke-miterlimit="10"/>
<path d="M13.7588 29.779L9.94922 28.2617L8.43192 32.0713L12.2415 33.5886L13.7588 29.779Z" fill="#C11E1E" stroke="#C11E1E" stroke-width="0.35" stroke-miterlimit="10"/>
<path d="M17.5713 31.2985L13.7617 29.7812L12.2444 33.5909L16.054 35.1082L17.5713 31.2985Z" fill="#C11E1E" stroke="#C11E1E" stroke-width="0.35" stroke-miterlimit="10"/>
<path d="M21.3799 32.8142L17.5703 31.2969L16.053 35.1065L19.8626 36.6238L21.3799 32.8142Z" fill="#C11E1E" stroke="#C11E1E" stroke-width="0.35" stroke-miterlimit="10"/>
<path d="M25.1924 34.3337L21.3828 32.8164L19.8655 36.626L23.6751 38.1433L25.1924 34.3337Z" fill="#C11E1E" stroke="#C11E1E" stroke-width="0.35" stroke-miterlimit="10"/>
<path d="M29.001 35.8493L25.1914 34.332L23.6741 38.1417L27.4837 39.659L29.001 35.8493Z" fill="#C11E1E" stroke="#C11E1E" stroke-width="0.35" stroke-miterlimit="10"/>
<path d="M32.8135 37.3689L29.0039 35.8516L27.4866 39.6612L31.2962 41.1785L32.8135 37.3689Z" fill="#C11E1E" stroke="#C11E1E" stroke-width="0.35" stroke-miterlimit="10"/>
<path d="M36.626 38.8845L32.8164 37.3672L31.2991 41.1768L35.1087 42.6941L36.626 38.8845Z" fill="#C11E1E" stroke="#C11E1E" stroke-width="0.35" stroke-miterlimit="10"/>
<path d="M40.4346 40.403L36.625 38.8857L35.1077 42.6954L38.9173 44.2127L40.4346 40.403Z" fill="#C11E1E" stroke="#C11E1E" stroke-width="0.35" stroke-miterlimit="10"/>
<path d="M44.2432 41.9196L40.4336 40.4023L38.9163 44.212L42.7259 45.7293L44.2432 41.9196Z" fill="#C11E1E" stroke="#C11E1E" stroke-width="0.35" stroke-miterlimit="10"/>
<path d="M8.43072 32.072L4.62109 30.5547L3.1038 34.3643L6.91342 35.8816L8.43072 32.072Z" fill="white" stroke="white" stroke-width="0.35" stroke-miterlimit="10"/>
<path d="M12.2432 33.5876L8.43359 32.0703L6.9163 35.8799L10.7259 37.3972L12.2432 33.5876Z" fill="white" stroke="white" stroke-width="0.35" stroke-miterlimit="10"/>
<path d="M16.0518 35.1071L12.2422 33.5898L10.7249 37.3995L14.5345 38.9168L16.0518 35.1071Z" fill="white" stroke="white" stroke-width="0.35" stroke-miterlimit="10"/>
<path d="M19.8643 36.6228L16.0547 35.1055L14.5374 38.9151L18.347 40.4324L19.8643 36.6228Z" fill="white" stroke="white" stroke-width="0.35" stroke-miterlimit="10"/>
<path d="M23.6768 38.1423L19.8672 36.625L18.3499 40.4346L22.1595 41.9519L23.6768 38.1423Z" fill="#E6E6E6" stroke="#E6E6E6" stroke-width="0.35" stroke-miterlimit="10"/>
<path d="M27.4854 39.6579L23.6758 38.1406L22.1585 41.9503L25.9681 43.4675L27.4854 39.6579Z" fill="white" stroke="white" stroke-width="0.35" stroke-miterlimit="10"/>
<path d="M31.294 41.1774L27.4844 39.6602L25.9671 43.4698L29.7767 44.9871L31.294 41.1774Z" fill="#E6E6E6" stroke="#E6E6E6" stroke-width="0.35" stroke-miterlimit="10"/>
<path d="M35.1065 42.6931L31.2969 41.1758L29.7796 44.9854L33.5892 46.5027L35.1065 42.6931Z" fill="white" stroke="white" stroke-width="0.35" stroke-miterlimit="10"/>
<path d="M38.919 44.2126L35.1094 42.6953L33.5921 46.5049L37.4017 48.0222L38.919 44.2126Z" fill="#E6E6E6" stroke="#E6E6E6" stroke-width="0.35" stroke-miterlimit="10"/>
<path d="M42.7276 45.7282L38.918 44.2109L37.4007 48.0206L41.2103 49.5379L42.7276 45.7282Z" fill="white" stroke="white" stroke-width="0.35" stroke-miterlimit="10"/>
<path d="M46.5381 47.2478L42.7285 45.7305L41.2112 49.5401L45.0208 51.0574L46.5381 47.2478Z" fill="#E6E6E6" stroke="#E6E6E6" stroke-width="0.35" stroke-miterlimit="10"/>
<path d="M6.91509 35.8806L3.10547 34.3633L1.58817 38.1729L5.3978 39.6902L6.91509 35.8806Z" fill="white" stroke="white" stroke-width="0.35" stroke-miterlimit="10"/>
<path d="M10.7276 37.4001L6.91797 35.8828L5.40067 39.6924L9.21029 41.2097L10.7276 37.4001Z" fill="#E6E6E6" stroke="#E6E6E6" stroke-width="0.35" stroke-miterlimit="10"/>
<path d="M14.5362 38.9157L10.7266 37.3984L9.20927 41.2081L13.0189 42.7254L14.5362 38.9157Z" fill="#E6E6E6" stroke="#E6E6E6" stroke-width="0.35" stroke-miterlimit="10"/>
<path d="M18.3448 40.4314L14.5352 38.9141L13.0179 42.7237L16.8275 44.241L18.3448 40.4314Z" fill="#E6E6E6" stroke="#E6E6E6" stroke-width="0.35" stroke-miterlimit="10"/>
<path d="M22.1573 41.9509L18.3477 40.4336L16.8304 44.2432L20.64 45.7605L22.1573 41.9509Z" fill="#E6E6E6" stroke="#E6E6E6" stroke-width="0.35" stroke-miterlimit="10"/>
<path d="M25.9659 43.4665L22.1562 41.9492L20.639 45.7588L24.4486 47.2761L25.9659 43.4665Z" fill="#E6E6E6" stroke="#E6E6E6" stroke-width="0.35" stroke-miterlimit="10"/>
<path d="M29.7784 44.986L25.9688 43.4688L24.4515 47.2784L28.2611 48.7957L29.7784 44.986Z" fill="#CCCCCC" stroke="#CCCCCC" stroke-width="0.35" stroke-miterlimit="10"/>
<path d="M33.5909 46.5056L29.7812 44.9883L28.264 48.7979L32.0736 50.3152L33.5909 46.5056Z" fill="#E6E6E6" stroke="#E6E6E6" stroke-width="0.35" stroke-miterlimit="10"/>
<path d="M37.3995 48.0212L33.5898 46.5039L32.0725 50.3135L35.8822 51.8308L37.3995 48.0212Z" fill="#CCCCCC" stroke="#CCCCCC" stroke-width="0.35" stroke-miterlimit="10"/>
<path d="M41.2081 49.5407L37.3984 48.0234L35.8811 51.8331L39.6908 53.3504L41.2081 49.5407Z" fill="#E6E6E6" stroke="#E6E6E6" stroke-width="0.35" stroke-miterlimit="10"/>
<path d="M45.0206 51.0564L41.2109 49.5391L39.6936 53.3487L43.5033 54.866L45.0206 51.0564Z" fill="#CCCCCC" stroke="#CCCCCC" stroke-width="0.35" stroke-miterlimit="10"/>
<path d="M5.39556 39.6921L1.58594 38.1748L0.0686452 41.9844L3.87827 43.5017L5.39556 39.6921Z" fill="#CCCCCC" stroke="#CCCCCC" stroke-width="0.35" stroke-miterlimit="10"/>
<path d="M9.20806 41.2126L5.39844 39.6953L3.88115 43.5049L7.69077 45.0222L9.20806 41.2126Z" fill="#CCCCCC" stroke="#CCCCCC" stroke-width="0.35" stroke-miterlimit="10"/>
<path d="M13.0167 42.7282L9.20703 41.2109L7.68974 45.0206L11.4994 46.5378L13.0167 42.7282Z" fill="#CCCCCC" stroke="#CCCCCC" stroke-width="0.35" stroke-miterlimit="10"/>
<path d="M16.8292 44.2439L13.0195 42.7266L11.5022 46.5362L15.3119 48.0535L16.8292 44.2439Z" fill="#CCCCCC" stroke="#CCCCCC" stroke-width="0.35" stroke-miterlimit="10"/>
<path d="M20.6417 45.7634L16.832 44.2461L15.3147 48.0557L19.1244 49.573L20.6417 45.7634Z" fill="#CCCCCC" stroke="#CCCCCC" stroke-width="0.35" stroke-miterlimit="10"/>
<path d="M24.4502 47.279L20.6406 45.7617L19.1233 49.5713L22.933 51.0886L24.4502 47.279Z" fill="#CCCCCC" stroke="#CCCCCC" stroke-width="0.35" stroke-miterlimit="10"/>
<path d="M28.2588 48.7985L24.4492 47.2812L22.9319 51.0909L26.7415 52.6082L28.2588 48.7985Z" fill="#CCCCCC" stroke="#CCCCCC" stroke-width="0.35" stroke-miterlimit="10"/>
<path d="M32.0713 50.3181L28.2617 48.8008L26.7444 52.6104L30.554 54.1277L32.0713 50.3181Z" fill="#CCCCCC" stroke="#CCCCCC" stroke-width="0.35" stroke-miterlimit="10"/>
<path d="M35.8838 51.8337L32.0742 50.3164L30.5569 54.126L34.3665 55.6433L35.8838 51.8337Z" fill="#CCCCCC" stroke="#CCCCCC" stroke-width="0.35" stroke-miterlimit="10"/>
<path d="M39.6924 53.3493L35.8828 51.832L34.3655 55.6416L38.1752 57.1589L39.6924 53.3493Z" fill="#CCCCCC" stroke="#CCCCCC" stroke-width="0.35" stroke-miterlimit="10"/>
<path d="M43.5049 54.8689L39.6953 53.3516L38.178 57.1612L41.9876 58.6785L43.5049 54.8689Z" fill="#CCCCCC" stroke="#CCCCCC" stroke-width="0.35" stroke-miterlimit="10"/>
<path d="M46.5049 25.1579L42.6953 23.6406L41.178 27.4502L44.9876 28.9675L46.5049 25.1579Z" fill="white" stroke="white" stroke-width="0.35" stroke-miterlimit="10"/>
<path d="M50.3135 26.6735L46.5039 25.1562L44.9866 28.9659L48.7962 30.4832L50.3135 26.6735Z" fill="white" stroke="white" stroke-width="0.35" stroke-miterlimit="10"/>
<path d="M54.126 28.1931L50.3164 26.6758L48.7991 30.4854L52.6087 32.0027L54.126 28.1931Z" fill="#E6E6E6" stroke="#E6E6E6" stroke-width="0.35" stroke-miterlimit="10"/>
<path d="M44.9893 28.9704L41.1797 27.4531L39.6624 31.2627L43.472 32.78L44.9893 28.9704Z" fill="#E6E6E6" stroke="#E6E6E6" stroke-width="0.35" stroke-miterlimit="10"/>
<path d="M48.7979 30.486L44.9883 28.9688L43.471 32.7784L47.2806 34.2957L48.7979 30.486Z" fill="#E6E6E6" stroke="#E6E6E6" stroke-width="0.35" stroke-miterlimit="10"/>
<path d="M52.6104 32.0056L48.8008 30.4883L47.2835 34.2979L51.0931 35.8152L52.6104 32.0056Z" fill="#CCCCCC" stroke="#CCCCCC" stroke-width="0.35" stroke-miterlimit="10"/>
<path d="M43.4698 32.78L39.6602 31.2627L38.1429 35.0723L41.9525 36.5896L43.4698 32.78Z" fill="#CCCCCC" stroke="#CCCCCC" stroke-width="0.35" stroke-miterlimit="10"/>
<path d="M47.2784 34.2985L43.4688 32.7812L41.9515 36.5909L45.7611 38.1082L47.2784 34.2985Z" fill="#CCCCCC" stroke="#CCCCCC" stroke-width="0.35" stroke-miterlimit="10"/>
<path d="M51.0909 35.8181L47.2812 34.3008L45.764 38.1104L49.5736 39.6277L51.0909 35.8181Z" fill="#CCCCCC" stroke="#CCCCCC" stroke-width="0.35" stroke-miterlimit="10"/>
</g>
<defs>
<clipPath id="clip0_293_9287">
<rect width="45.227" height="45.227" fill="white" transform="translate(16.7344) rotate(21.7164)"/>
</clipPath>
</defs>
</svg>
