<svg width="73" height="73" viewBox="0 0 73 73" fill="none" xmlns="http://www.w3.org/2000/svg">
<rect y="19.125" width="56.414" height="56.414" rx="12" transform="rotate(-19.8156 0 19.125)" fill="#DB365E" fill-opacity="0.1"/>
<path d="M36.6898 51.3601L37.0078 53.0977L38.7459 52.7793L38.4278 51.0418L36.6898 51.3601Z" fill="#222221"/>
<path d="M32.5569 28.7819L32.875 30.5195L34.6131 30.2012L34.295 28.4636L32.5569 28.7819Z" fill="#222221"/>
<path d="M34.5921 49.9421L34.9102 51.6797L36.6482 51.3614L36.3302 49.6238L34.5921 49.9421Z" fill="#222221"/>
<path d="M30.4668 27.3719L30.7852 29.1094L32.5233 28.7907L32.2049 27.0532L30.4668 27.3719Z" fill="#222221"/>
<path d="M32.5804 48.5242L32.8984 50.2617L34.6366 49.9434L34.3185 48.2058L32.5804 48.5242Z" fill="#222221"/>
<path d="M28.4437 25.9499L28.7617 27.6875L30.4998 27.3692L30.1817 25.6316L28.4437 25.9499Z" fill="#222221"/>
<path d="M30.4788 47.1062L30.7969 48.8438L32.535 48.5254L32.2169 46.7879L30.4788 47.1062Z" fill="#222221"/>
<path d="M26.3613 24.532L26.6797 26.2695L28.4177 25.9509L28.0994 24.2133L26.3613 24.532Z" fill="#222221"/>
<path d="M28.4632 45.6843L28.7812 47.4219L30.5194 47.1035L30.2013 45.3659L28.4632 45.6843Z" fill="#222221"/>
<path d="M24.3418 23.1062L24.6602 24.8438L26.3982 24.5251L26.0799 22.7876L24.3418 23.1062Z" fill="#222221"/>
<path d="M26.3695 44.2703L26.6875 46.0078L28.4256 45.6895L28.1076 43.9519L26.3695 44.2703Z" fill="#222221"/>
<path d="M22.596 23.4265L22.9141 25.1641L24.6522 24.8457L24.3341 23.1082L22.596 23.4265Z" fill="#222221"/>
<path d="M24.3499 42.8484L24.668 44.5859L26.4061 44.2676L26.0881 42.53L24.3499 42.8484Z" fill="#222221"/>
<path d="M20.8577 23.7507L21.1758 25.4883L22.9139 25.17L22.5958 23.4324L20.8577 23.7507Z" fill="#222221"/>
<path d="M22.2676 41.4343L22.5859 43.1719L24.3239 42.8533L24.0056 41.1157L22.2676 41.4343Z" fill="#222221"/>
<path d="M19.4082 25.8015L19.7266 27.5391L21.4646 27.2204L21.1463 25.4829L19.4082 25.8015Z" fill="#222221"/>
<path d="M20.2168 40.0164L20.5352 41.7539L22.2732 41.4353L21.9548 39.6978L20.2168 40.0164Z" fill="#222221"/>
<path d="M18.0179 27.8562L18.3359 29.5938L20.0741 29.2754L19.756 27.5378L18.0179 27.8562Z" fill="#222221"/>
<path d="M18.1976 38.5945L18.5156 40.332L20.2537 40.0137L19.9357 38.2761L18.1976 38.5945Z" fill="#222221"/>
<path d="M16.5609 29.9187L16.8789 31.6562L18.617 31.3379L18.2989 29.6004L16.5609 29.9187Z" fill="#222221"/>
<path d="M16.096 37.1804L16.4141 38.918L18.1522 38.5996L17.8341 36.862L16.096 37.1804Z" fill="#222221"/>
<path d="M15.8148 35.4382L16.1328 37.1758L17.8709 36.8575L17.5528 35.1199L15.8148 35.4382Z" fill="#222221"/>
<path d="M15.4593 33.7038L15.7773 35.4414L17.5154 35.1231L17.1974 33.3855L15.4593 33.7038Z" fill="#222221"/>
<path d="M15.1819 31.9694L15.5 33.707L17.2381 33.3887L16.92 31.6511L15.1819 31.9694Z" fill="#222221"/>
<path d="M38.4202 51.0437L38.7383 52.7812L40.4764 52.4629L40.1583 50.7254L38.4202 51.0437Z" fill="#222221"/>
<path d="M34.2952 28.4694L34.6133 30.207L36.3514 29.8887L36.0333 28.1511L34.2952 28.4694Z" fill="#222221"/>
<path d="M39.8105 48.989L40.1289 50.7266L41.8669 50.4079L41.5485 48.6704L39.8105 48.989Z" fill="#222221"/>
<path d="M35.6778 26.4148L35.9961 28.1523L37.7342 27.8337L37.4159 26.0962L35.6778 26.4148Z" fill="#222221"/>
<path d="M41.2601 46.9382L41.5781 48.6758L43.3162 48.3574L42.9982 46.6199L41.2601 46.9382Z" fill="#222221"/>
<path d="M37.1273 24.3561L37.4453 26.0938L39.1834 25.7754L38.8653 24.0378L37.1273 24.3561Z" fill="#222221"/>
<path d="M42.6429 44.8796L42.9609 46.6172L44.699 46.2989L44.381 44.5613L42.6429 44.8796Z" fill="#222221"/>
<path d="M38.5176 22.3055L38.8359 24.043L40.574 23.7243L40.2556 21.9868L38.5176 22.3055Z" fill="#222221"/>
<path d="M44.1113 42.8249L44.4297 44.5625L46.1677 44.2439L45.8494 42.5063L44.1113 42.8249Z" fill="#222221"/>
<path d="M39.9671 20.2468L40.2852 21.9844L42.0233 21.666L41.7052 19.9285L39.9671 20.2468Z" fill="#222221"/>
<path d="M45.4827 40.7663L45.8008 42.5039L47.5389 42.1856L47.2208 40.448L45.4827 40.7663Z" fill="#222221"/>
<path d="M41.7054 19.9226L42.0234 21.6602L43.7616 21.3418L43.4435 19.6043L41.7054 19.9226Z" fill="#222221"/>
<path d="M46.9359 38.7156L47.2539 40.4531L48.992 40.1348L48.674 38.3972L46.9359 38.7156Z" fill="#222221"/>
<path d="M43.4437 19.6101L43.7617 21.3477L45.4998 21.0293L45.1818 19.2918L43.4437 19.6101Z" fill="#222221"/>
<path d="M48.3226 36.6608L48.6406 38.3984L50.3787 38.0801L50.0606 36.3425L48.3226 36.6608Z" fill="#222221"/>
<path d="M45.4593 21.0242L45.7773 22.7617L47.5155 22.4434L47.1974 20.7058L45.4593 21.0242Z" fill="#222221"/>
<path d="M49.7481 34.6023L50.0664 36.3398L51.8045 36.0212L51.4861 34.2837L49.7481 34.6023Z" fill="#222221"/>
<path d="M47.553 22.4421L47.8711 24.1797L49.6092 23.8614L49.2911 22.1238L47.553 22.4421Z" fill="#222221"/>
<path d="M51.1976 32.5476L51.5156 34.2852L53.2537 33.9668L52.9356 32.2292L51.1976 32.5476Z" fill="#222221"/>
<path d="M49.5687 23.8679L49.8867 25.6055L51.6248 25.2871L51.3068 23.5496L49.5687 23.8679Z" fill="#222221"/>
<path d="M52.5726 30.4968L52.8906 32.2344L54.6287 31.9161L54.3106 30.1784L52.5726 30.4968Z" fill="#222221"/>
<path d="M52.3067 28.7547L52.625 30.4922L54.363 30.1736L54.0447 28.4361L52.3067 28.7547Z" fill="#222221"/>
<path d="M51.9398 27.0241L52.2578 28.7617L53.9959 28.4434L53.6778 26.7058L51.9398 27.0241Z" fill="#222221"/>
<path d="M51.6624 25.282L51.9805 27.0195L53.7185 26.7012L53.4005 24.9636L51.6624 25.282Z" fill="#222221"/>
<path d="M50.8457 30.8171L51.1641 32.5547L52.9021 32.2361L52.5837 30.4985L50.8457 30.8171Z" fill="#AD1843"/>
<path d="M50.557 29.0788L50.875 30.8164L52.6131 30.4981L52.2951 28.7605L50.557 29.0788Z" fill="#AD1843"/>
<path d="M50.1976 27.3366L50.5156 29.0742L52.2537 28.7559L51.9356 27.0183L50.1976 27.3366Z" fill="#AD1843"/>
<path d="M49.928 25.6023L50.2461 27.3398L51.9842 27.0215L51.6661 25.284L49.928 25.6023Z" fill="#DB365E"/>
<path d="M49.4593 32.8679L49.7773 34.6055L51.5154 34.2871L51.1974 32.5495L49.4593 32.8679Z" fill="#AD1843"/>
<path d="M49.0999 31.1335L49.418 32.8711L51.156 32.5528L50.838 30.8152L49.0999 31.1335Z" fill="#AD1843"/>
<path d="M48.834 29.3914L49.1523 31.1289L50.8904 30.8103L50.572 29.0728L48.834 29.3914Z" fill="#DB365E"/>
<path d="M48.4632 27.6569L48.7812 29.3945L50.5193 29.0762L50.2013 27.3386L48.4632 27.6569Z" fill="#DB365E"/>
<path d="M48.1859 25.9147L48.5039 27.6523L50.242 27.334L49.924 25.5964L48.1859 25.9147Z" fill="#DB365E"/>
<path d="M47.8304 24.1843L48.1484 25.9219L49.8866 25.6035L49.5685 23.866L47.8304 24.1843Z" fill="#DB365E"/>
<path d="M48.0098 34.9226L48.3281 36.6602L50.0662 36.3415L49.7478 34.604L48.0098 34.9226Z" fill="#AD1843"/>
<path d="M47.721 33.1804L48.0391 34.918L49.7771 34.5996L49.4591 32.862L47.721 33.1804Z" fill="#AD1843"/>
<path d="M47.3616 31.446L47.6797 33.1836L49.4178 32.8653L49.0997 31.1277L47.3616 31.446Z" fill="#DB365E"/>
<path d="M47.0843 29.7077L47.4023 31.4453L49.1405 31.127L48.8224 29.3894L47.0843 29.7077Z" fill="#DB365E"/>
<path d="M46.7324 27.9734L47.0508 29.7109L48.7888 29.3923L48.4704 27.6548L46.7324 27.9734Z" fill="#DB365E"/>
<path d="M46.4515 26.239L46.7695 27.9766L48.5076 27.6582L48.1896 25.9206L46.4515 26.239Z" fill="#DB365E"/>
<path d="M46.0921 24.5007L46.4102 26.2383L48.1483 25.9199L47.8302 24.1824L46.0921 24.5007Z" fill="#DB365E"/>
<path d="M45.8226 22.7624L46.1406 24.5L47.8787 24.1817L47.5607 22.4441L45.8226 22.7624Z" fill="#DB365E"/>
<path d="M46.5843 36.9811L46.9023 38.7188L48.6404 38.4004L48.3224 36.6628L46.5843 36.9811Z" fill="#AD1843"/>
<path d="M46.2754 35.243L46.5938 36.9805L48.3318 36.6618L48.0135 34.9243L46.2754 35.243Z" fill="#AD1843"/>
<path d="M45.9827 33.5046L46.3008 35.2422L48.0389 34.9239L47.7208 33.1863L45.9827 33.5046Z" fill="#DB365E"/>
<path d="M45.6273 31.7702L45.9453 33.5078L47.6834 33.1895L47.3654 31.4519L45.6273 31.7702Z" fill="#DB365E"/>
<path d="M45.3499 30.0281L45.668 31.7656L47.4061 31.4473L47.0881 29.7097L45.3499 30.0281Z" fill="#DB365E"/>
<path d="M45.002 28.2937L45.3203 30.0312L47.0583 29.7126L46.74 27.9751L45.002 28.2937Z" fill="#DB365E"/>
<path d="M44.7132 26.5554L45.0312 28.293L46.7693 27.9746L46.4513 26.237L44.7132 26.5554Z" fill="#DB365E"/>
<path d="M44.3577 24.8249L44.6758 26.5625L46.4139 26.2442L46.0959 24.5066L44.3577 24.8249Z" fill="#DB365E"/>
<path d="M44.0804 23.0827L44.3984 24.8203L46.1365 24.502L45.8185 22.7644L44.0804 23.0827Z" fill="#DB365E"/>
<path d="M43.7171 21.3445L44.0352 23.082L45.7732 22.7637L45.4552 21.0261L43.7171 21.3445Z" fill="#DB365E"/>
<path d="M45.209 39.032L45.5273 40.7695L47.2654 40.4509L46.947 38.7134L45.209 39.032Z" fill="#AD1843"/>
<path d="M44.8421 37.2936L45.1602 39.0312L46.8982 38.7129L46.5802 36.9753L44.8421 37.2936Z" fill="#AD1843"/>
<path d="M44.5257 35.5593L44.8438 37.2969L46.5819 36.9785L46.2638 35.241L44.5257 35.5593Z" fill="#DB365E"/>
<path d="M44.2523 33.821L44.5703 35.5586L46.3084 35.2403L45.9903 33.5027L44.2523 33.821Z" fill="#DB365E"/>
<path d="M43.9004 32.0828L44.2188 33.8203L45.9568 33.5017L45.6384 31.7641L43.9004 32.0828Z" fill="#DB365E"/>
<path d="M43.6116 30.3445L43.9297 32.082L45.6678 31.7637L45.3497 30.0261L43.6116 30.3445Z" fill="#DB365E"/>
<path d="M43.2562 28.6101L43.5742 30.3477L45.3123 30.0293L44.9942 28.2917L43.2562 28.6101Z" fill="#DB365E"/>
<path d="M42.9788 26.8796L43.2969 28.6172L45.0349 28.2989L44.7169 26.5613L42.9788 26.8796Z" fill="#DB365E"/>
<path d="M42.6309 25.1375L42.9492 26.875L44.6873 26.5564L44.3689 24.8188L42.6309 25.1375Z" fill="#DB365E"/>
<path d="M42.3421 23.403L42.6602 25.1406L44.3982 24.8223L44.0802 23.0847L42.3421 23.403Z" fill="#DB365E"/>
<path d="M41.9827 21.6648L42.3008 23.4023L44.0389 23.084L43.7208 21.3465L41.9827 21.6648Z" fill="#DB365E"/>
<path d="M43.7445 41.0866L44.0625 42.8242L45.8006 42.5059L45.4826 40.7683L43.7445 41.0866Z" fill="#AD1843"/>
<path d="M43.4671 39.3523L43.7852 41.0898L45.5233 40.7715L45.2052 39.0339L43.4671 39.3523Z" fill="#AD1843"/>
<path d="M43.1152 37.614L43.4336 39.3516L45.1716 39.0329L44.8533 37.2954L43.1152 37.614Z" fill="#DB365E"/>
<path d="M42.7874 35.8757L43.1055 37.6133L44.8435 37.295L44.5255 35.5574L42.7874 35.8757Z" fill="#DB365E"/>
<path d="M42.514 34.1413L42.832 35.8789L44.5701 35.5606L44.2521 33.823L42.514 34.1413Z" fill="#DB365E"/>
<path d="M42.166 32.4031L42.4844 34.1406L44.2224 33.822L43.904 32.0845L42.166 32.4031Z" fill="#DB365E"/>
<path d="M41.8734 30.6687L42.1914 32.4062L43.9295 32.0879L43.6114 30.3504L41.8734 30.6687Z" fill="#DB365E"/>
<path d="M41.5179 28.9304L41.8359 30.668L43.574 30.3496L43.256 28.612L41.5179 28.9304Z" fill="#DB365E"/>
<path d="M41.2405 27.196L41.5586 28.9336L43.2967 28.6153L42.9787 26.8776L41.2405 27.196Z" fill="#DB365E"/>
<path d="M40.8926 25.4578L41.2109 27.1953L42.949 26.8767L42.6307 25.1391L40.8926 25.4578Z" fill="#DB365E"/>
<path d="M40.6077 23.7194L40.9258 25.457L42.6639 25.1387L42.3458 23.4011L40.6077 23.7194Z" fill="#DB365E"/>
<path d="M40.2445 21.989L40.5625 23.7266L42.3006 23.4082L41.9826 21.6707L40.2445 21.989Z" fill="#DB365E"/>
<path d="M42.3655 43.1452L42.6836 44.8828L44.4217 44.5645L44.1036 42.8269L42.3655 43.1452Z" fill="#AD1843"/>
<path d="M42.0062 41.4031L42.3242 43.1406L44.0624 42.8223L43.7444 41.0847L42.0062 41.4031Z" fill="#AD1843"/>
<path d="M41.7288 39.6648L42.0469 41.4023L43.785 41.084L43.467 39.3464L41.7288 39.6648Z" fill="#DB365E"/>
<path d="M41.3809 37.9343L41.6992 39.6719L43.4372 39.3533L43.1189 37.6157L41.3809 37.9343Z" fill="#DB365E"/>
<path d="M41.0491 36.196L41.3672 37.9336L43.1053 37.6153L42.7873 35.8777L41.0491 36.196Z" fill="#DB365E"/>
<path d="M40.7718 34.4538L41.0898 36.1914L42.828 35.8731L42.5099 34.1355L40.7718 34.4538Z" fill="#DB365E"/>
<path d="M40.4163 32.7233L40.7344 34.4609L42.4724 34.1426L42.1544 32.405L40.4163 32.7233Z" fill="#DB365E"/>
<path d="M40.1465 30.9812L40.4648 32.7188L42.2028 32.4001L41.8845 30.6626L40.1465 30.9812Z" fill="#DB365E"/>
<path d="M39.7835 29.2507L40.1016 30.9883L41.8396 30.67L41.5216 28.9324L39.7835 29.2507Z" fill="#DB365E"/>
<path d="M39.5023 27.5085L39.8203 29.2461L41.5584 28.9278L41.2403 27.1902L39.5023 27.5085Z" fill="#DB365E"/>
<path d="M39.1429 25.7781L39.4609 27.5156L41.199 27.1973L40.881 25.4597L39.1429 25.7781Z" fill="#DB365E"/>
<path d="M38.8655 24.0358L39.1836 25.7734L40.9217 25.4551L40.6036 23.7175L38.8655 24.0358Z" fill="#DB365E"/>
<path d="M40.916 45.1961L41.2344 46.9336L42.9724 46.615L42.6541 44.8774L40.916 45.1961Z" fill="#AD1843"/>
<path d="M40.6234 43.4577L40.9414 45.1953L42.6795 44.877L42.3614 43.1394L40.6234 43.4577Z" fill="#AD1843"/>
<path d="M40.2679 41.7273L40.5859 43.4648L42.324 43.1465L42.006 41.4089L40.2679 41.7273Z" fill="#DB365E"/>
<path d="M39.9945 39.9812L40.3125 41.7188L42.0506 41.4004L41.7326 39.6628L39.9945 39.9812Z" fill="#DB365E"/>
<path d="M39.6351 38.2468L39.9531 39.9844L41.6912 39.6661L41.3731 37.9284L39.6351 38.2468Z" fill="#DB365E"/>
<path d="M39.3223 36.5125L39.6406 38.25L41.3787 37.9314L41.0603 36.1938L39.3223 36.5125Z" fill="#DB365E"/>
<path d="M39.0374 34.7781L39.3555 36.5156L41.0936 36.1973L40.7756 34.4597L39.0374 34.7781Z" fill="#DB365E"/>
<path d="M38.678 33.0397L38.9961 34.7773L40.7342 34.459L40.4161 32.7214L38.678 33.0397Z" fill="#DB365E"/>
<path d="M38.4007 31.3015L38.7188 33.0391L40.4568 32.7207L40.1388 30.9832L38.4007 31.3015Z" fill="#DB365E"/>
<path d="M38.0527 29.5671L38.3711 31.3047L40.1091 30.9861L39.7907 29.2485L38.0527 29.5671Z" fill="#DB365E"/>
<path d="M37.7679 27.8327L38.0859 29.5703L39.824 29.252L39.506 27.5144L37.7679 27.8327Z" fill="#DB365E"/>
<path d="M37.4046 26.0984L37.7227 27.8359L39.4607 27.5176L39.1427 25.78L37.4046 26.0984Z" fill="#DB365E"/>
<path d="M39.5257 47.2507L39.8438 48.9883L41.5818 48.67L41.2638 46.9324L39.5257 47.2507Z" fill="#AD1843"/>
<path d="M39.1663 45.5163L39.4844 47.2539L41.2225 46.9356L40.9045 45.198L39.1663 45.5163Z" fill="#AD1843"/>
<path d="M38.889 43.778L39.207 45.5156L40.9451 45.1973L40.627 43.4597L38.889 43.778Z" fill="#DB365E"/>
<path d="M38.541 42.0398L38.8594 43.7773L40.5974 43.4587L40.279 41.7212L38.541 42.0398Z" fill="#DB365E"/>
<path d="M38.2601 40.3054L38.5781 42.043L40.3162 41.7246L39.9982 39.9871L38.2601 40.3054Z" fill="#DB365E"/>
<path d="M37.8929 38.5671L38.2109 40.3047L39.949 39.9864L39.631 38.2488L37.8929 38.5671Z" fill="#DB365E"/>
<path d="M37.5879 36.8328L37.9062 38.5703L39.6443 38.2517L39.326 36.5142L37.5879 36.8328Z" fill="#DB365E"/>
<path d="M37.2991 35.0945L37.6172 36.832L39.3553 36.5137L39.0373 34.7761L37.2991 35.0945Z" fill="#DB365E"/>
<path d="M36.9437 33.36L37.2617 35.0977L38.9998 34.7793L38.6818 33.0417L36.9437 33.36Z" fill="#DB365E"/>
<path d="M36.6663 31.6218L36.9844 33.3594L38.7225 33.041L38.4044 31.3035L36.6663 31.6218Z" fill="#DB365E"/>
<path d="M36.3184 29.8914L36.6367 31.6289L38.3747 31.3103L38.0564 29.5727L36.3184 29.8914Z" fill="#DB365E"/>
<path d="M36.0296 28.1491L36.3477 29.8867L38.0858 29.5684L37.7677 27.8308L36.0296 28.1491Z" fill="#DB365E"/>
<path d="M38.0762 49.3015L38.3945 51.0391L40.1326 50.7204L39.8142 48.9829L38.0762 49.3015Z" fill="#AD1843"/>
<path d="M37.7874 47.5671L38.1055 49.3047L39.8435 48.9864L39.5255 47.2488L37.7874 47.5671Z" fill="#AD1843"/>
<path d="M37.428 45.8406L37.7461 47.5781L39.4842 47.2598L39.1661 45.5222L37.428 45.8406Z" fill="#DB365E"/>
<path d="M37.1546 44.0944L37.4727 45.832L39.2107 45.5137L38.8927 43.7761L37.1546 44.0944Z" fill="#DB365E"/>
<path d="M36.8027 42.3562L37.1211 44.0938L38.8591 43.7751L38.5408 42.0376L36.8027 42.3562Z" fill="#DB365E"/>
<path d="M36.5179 40.6179L36.8359 42.3555L38.5741 42.0371L38.256 40.2996L36.5179 40.6179Z" fill="#DB365E"/>
<path d="M36.1546 38.8874L36.4727 40.625L38.2107 40.3067L37.8927 38.5691L36.1546 38.8874Z" fill="#DB365E"/>
<path d="M35.8421 37.1492L36.1602 38.8867L37.8982 38.5684L37.5802 36.8308L35.8421 37.1492Z" fill="#DB365E"/>
<path d="M35.5684 35.4148L35.8867 37.1523L37.6248 36.8337L37.3064 35.0962L35.5684 35.4148Z" fill="#DB365E"/>
<path d="M35.2015 33.6765L35.5195 35.4141L37.2576 35.0957L36.9396 33.3581L35.2015 33.6765Z" fill="#DB365E"/>
<path d="M34.9281 31.9421L35.2461 33.6797L36.9842 33.3613L36.6662 31.6238L34.9281 31.9421Z" fill="#DB365E"/>
<path d="M34.5726 30.1999L34.8906 31.9375L36.6287 31.6192L36.3107 29.8816L34.5726 30.1999Z" fill="#DB365E"/>
<path d="M36.3265 49.6257L36.6445 51.3633L38.3826 51.045L38.0645 49.3074L36.3265 49.6257Z" fill="#AD1843"/>
<path d="M36.0491 47.8913L36.3672 49.6289L38.1053 49.3106L37.7872 47.573L36.0491 47.8913Z" fill="#DB365E"/>
<path d="M35.7012 46.1531L36.0195 47.8906L37.7576 47.572L37.4392 45.8345L35.7012 46.1531Z" fill="#DB365E"/>
<path d="M35.4202 44.4186L35.7383 46.1562L37.4764 45.8379L37.1583 44.1003L35.4202 44.4186Z" fill="#DB365E"/>
<path d="M35.0531 42.6804L35.3711 44.418L37.1092 44.0996L36.7912 42.3621L35.0531 42.6804Z" fill="#DB365E"/>
<path d="M34.7796 40.9421L35.0977 42.6797L36.8358 42.3613L36.5177 40.6238L34.7796 40.9421Z" fill="#DB365E"/>
<path d="M34.4316 39.2078L34.75 40.9453L36.488 40.6267L36.1696 38.8891L34.4316 39.2078Z" fill="#DB365E"/>
<path d="M34.1038 37.4656L34.4219 39.2031L36.16 38.8848L35.8419 37.1472L34.1038 37.4656Z" fill="#DB365E"/>
<path d="M33.8265 35.7351L34.1445 37.4727L35.8827 37.1543L35.5646 35.4167L33.8265 35.7351Z" fill="#DB365E"/>
<path d="M33.4746 34.0007L33.793 35.7383L35.531 35.4197L35.2126 33.6821L33.4746 34.0007Z" fill="#DB365E"/>
<path d="M33.1859 32.2546L33.5039 33.9922L35.242 33.6738L34.924 31.9363L33.1859 32.2546Z" fill="#DB365E"/>
<path d="M32.8304 30.5202L33.1484 32.2578L34.8865 31.9395L34.5685 30.2019L32.8304 30.5202Z" fill="#DB365E"/>
<path d="M34.3187 48.2038L34.6367 49.9414L36.3748 49.6231L36.0568 47.8855L34.3187 48.2038Z" fill="#DB365E"/>
<path d="M33.9668 46.4695L34.2852 48.207L36.0232 47.8884L35.7049 46.1509L33.9668 46.4695Z" fill="#DB365E"/>
<path d="M33.678 44.7311L33.9961 46.4688L35.7342 46.1504L35.4162 44.4128L33.678 44.7311Z" fill="#DB365E"/>
<path d="M33.3226 43.0007L33.6406 44.7383L35.3787 44.4199L35.0607 42.6824L33.3226 43.0007Z" fill="#DB365E"/>
<path d="M33.0452 41.2546L33.3633 42.9922L35.1014 42.6738L34.7834 40.9363L33.0452 41.2546Z" fill="#DB365E"/>
<path d="M32.6973 39.5203L33.0156 41.2578L34.7536 40.9392L34.4353 39.2016L32.6973 39.5203Z" fill="#DB365E"/>
<path d="M32.3695 37.7898L32.6875 39.5273L34.4256 39.209L34.1076 37.4714L32.3695 37.7898Z" fill="#DB365E"/>
<path d="M32.0843 36.0437L32.4023 37.7812L34.1404 37.4629L33.8224 35.7254L32.0843 36.0437Z" fill="#DB365E"/>
<path d="M31.7363 34.3132L32.0547 36.0508L33.7927 35.7321L33.4744 33.9946L31.7363 34.3132Z" fill="#DB365E"/>
<path d="M31.4515 32.571L31.7695 34.3086L33.5076 33.9903L33.1896 32.2527L31.4515 32.571Z" fill="#DB365E"/>
<path d="M31.0921 30.8406L31.4102 32.5781L33.1482 32.2598L32.8302 30.5222L31.0921 30.8406Z" fill="#DB365E"/>
<path d="M30.8226 29.1022L31.1406 30.8398L32.8787 30.5215L32.5606 28.7839L30.8226 29.1022Z" fill="#DB365E"/>
<path d="M32.2285 46.7937L32.5469 48.5312L34.2849 48.2126L33.9666 46.4751L32.2285 46.7937Z" fill="#DB365E"/>
<path d="M31.9398 45.0554L32.2578 46.793L33.9959 46.4746L33.6779 44.737L31.9398 45.0554Z" fill="#DB365E"/>
<path d="M31.5804 43.3132L31.8984 45.0508L33.6366 44.7324L33.3185 42.9949L31.5804 43.3132Z" fill="#DB365E"/>
<path d="M31.307 41.5788L31.625 43.3164L33.3631 42.9981L33.045 41.2605L31.307 41.5788Z" fill="#DB365E"/>
<path d="M30.959 39.8406L31.2773 41.5781L33.0153 41.2595L32.697 39.522L30.959 39.8406Z" fill="#DB365E"/>
<path d="M30.6312 38.1062L30.9492 39.8438L32.6873 39.5254L32.3693 37.7878L30.6312 38.1062Z" fill="#DB365E"/>
<path d="M30.3499 36.3679L30.668 38.1055L32.406 37.7871L32.088 36.0496L30.3499 36.3679Z" fill="#DB365E"/>
<path d="M29.9905 34.6335L30.3086 36.3711L32.0467 36.0528L31.7286 34.3152L29.9905 34.6335Z" fill="#DB365E"/>
<path d="M29.7246 32.8953L30.043 34.6328L31.781 34.3142L31.4626 32.5767L29.7246 32.8953Z" fill="#DB365E"/>
<path d="M29.3577 31.1648L29.6758 32.9023L31.4139 32.584L31.0958 30.8465L29.3577 31.1648Z" fill="#DB365E"/>
<path d="M29.0765 29.4226L29.3945 31.1602L31.1326 30.8418L30.8146 29.1042L29.0765 29.4226Z" fill="#DB365E"/>
<path d="M28.7171 27.6843L29.0352 29.4219L30.7732 29.1036L30.4552 27.366L28.7171 27.6843Z" fill="#DB365E"/>
<path d="M30.2054 45.3678L30.5234 47.1055L32.2616 46.7871L31.9435 45.0495L30.2054 45.3678Z" fill="#DB365E"/>
<path d="M29.8535 43.6336L30.1719 45.3711L31.9099 45.0525L31.5915 43.315L29.8535 43.6336Z" fill="#DB365E"/>
<path d="M29.5687 41.8991L29.8867 43.6367L31.6248 43.3184L31.3067 41.5808L29.5687 41.8991Z" fill="#DB365E"/>
<path d="M29.2132 40.1608L29.5312 41.8984L31.2693 41.5801L30.9513 39.8425L29.2132 40.1608Z" fill="#DB365E"/>
<path d="M28.9043 38.4266L29.2227 40.1641L30.9607 39.8454L30.6423 38.1079L28.9043 38.4266Z" fill="#DB365E"/>
<path d="M28.6117 36.6882L28.9297 38.4258L30.6678 38.1074L30.3498 36.3699L28.6117 36.6882Z" fill="#DB365E"/>
<path d="M28.2562 34.9499L28.5742 36.6875L30.3123 36.3692L29.9942 34.6316L28.2562 34.9499Z" fill="#DB365E"/>
<path d="M27.9827 33.2117L28.3008 34.9492L30.0389 34.6309L29.7209 32.8933L27.9827 33.2117Z" fill="#DB365E"/>
<path d="M27.6309 31.4773L27.9492 33.2148L29.6873 32.8962L29.3689 31.1587L27.6309 31.4773Z" fill="#DB365E"/>
<path d="M27.3382 29.7429L27.6562 31.4805L29.3943 31.1621L29.0763 29.4245L27.3382 29.7429Z" fill="#DB365E"/>
<path d="M26.9827 28.0046L27.3008 29.7422L29.0389 29.4239L28.7208 27.6863L26.9827 28.0046Z" fill="#DB365E"/>
<path d="M26.7054 26.2624L27.0234 28L28.7616 27.6817L28.4435 25.9441L26.7054 26.2624Z" fill="white"/>
<path d="M28.1152 43.95L28.4336 45.6875L30.1716 45.3689L29.8532 43.6314L28.1152 43.95Z" fill="#DB365E"/>
<path d="M27.8304 42.2077L28.1484 43.9453L29.8866 43.627L29.5685 41.8894L27.8304 42.2077Z" fill="#DB365E"/>
<path d="M27.4788 40.4772L27.7969 42.2148L29.5349 41.8965L29.2169 40.1589L27.4788 40.4772Z" fill="#DB365E"/>
<path d="M27.1621 38.7391L27.4805 40.4766L29.2185 40.1579L28.9001 38.4204L27.1621 38.7391Z" fill="#DB365E"/>
<path d="M26.8812 37.0085L27.1992 38.7461L28.9373 38.4278L28.6193 36.6902L26.8812 37.0085Z" fill="#DB365E"/>
<path d="M26.5179 35.2663L26.8359 37.0039L28.574 36.6856L28.256 34.948L26.5179 35.2663Z" fill="#DB365E"/>
<path d="M26.2406 33.5281L26.5586 35.2656L28.2967 34.9473L27.9787 33.2097L26.2406 33.5281Z" fill="#DB365E"/>
<path d="M25.8926 31.7976L26.2109 33.5352L27.949 33.2165L27.6306 31.479L25.8926 31.7976Z" fill="#DB365E"/>
<path d="M25.5999 30.0593L25.918 31.7969L27.656 31.4786L27.338 29.7409L25.5999 30.0593Z" fill="#DB365E"/>
<path d="M25.2445 28.3249L25.5625 30.0625L27.3006 29.7442L26.9826 28.0066L25.2445 28.3249Z" fill="#DB365E"/>
<path d="M24.971 26.5827L25.2891 28.3203L27.0272 28.002L26.7091 26.2644L24.971 26.5827Z" fill="#DB365E"/>
<path d="M24.6155 24.8444L24.9336 26.582L26.6717 26.2637L26.3536 24.5261L24.6155 24.8444Z" fill="white"/>
<path d="M26.0957 42.532L26.4141 44.2695L28.1521 43.9509L27.8337 42.2134L26.0957 42.532Z" fill="#DB365E"/>
<path d="M25.7405 40.7976L26.0586 42.5352L27.7967 42.2168L27.4786 40.4792L25.7405 40.7976Z" fill="#DB365E"/>
<path d="M25.4202 39.0632L25.7383 40.8008L27.4764 40.4825L27.1583 38.7449L25.4202 39.0632Z" fill="#DB365E"/>
<path d="M25.1429 37.3171L25.4609 39.0547L27.1991 38.7363L26.881 36.9988L25.1429 37.3171Z" fill="#DB365E"/>
<path d="M24.791 35.5867L25.1094 37.3242L26.8474 37.0056L26.529 35.268L24.791 35.5867Z" fill="#DB365E"/>
<path d="M24.4984 33.8484L24.8164 35.5859L26.5545 35.2676L26.2365 33.53L24.4984 33.8484Z" fill="#DB365E"/>
<path d="M24.1429 32.1179L24.4609 33.8555L26.199 33.5371L25.881 31.7996L24.1429 32.1179Z" fill="#DB365E"/>
<path d="M23.8655 30.3757L24.1836 32.1133L25.9217 31.7949L25.6037 30.0573L23.8655 30.3757Z" fill="#DB365E"/>
<path d="M23.5176 28.6453L23.8359 30.3828L25.574 30.0642L25.2557 28.3266L23.5176 28.6453Z" fill="#DB365E"/>
<path d="M23.2288 26.903L23.5469 28.6406L25.285 28.3223L24.9669 26.5847L23.2288 26.903Z" fill="#DB365E"/>
<path d="M22.8734 25.1647L23.1914 26.9023L24.9295 26.584L24.6114 24.8464L22.8734 25.1647Z" fill="white"/>
<path d="M24.002 41.114L24.3203 42.8516L26.0583 42.5329L25.74 40.7954L24.002 41.114Z" fill="#DB365E"/>
<path d="M23.6781 39.3796L23.9961 41.1172L25.7342 40.7988L25.4162 39.0613L23.6781 39.3796Z" fill="#DB365E"/>
<path d="M23.4046 37.6413L23.7227 39.3789L25.4608 39.0606L25.1427 37.323L23.4046 37.6413Z" fill="#DB365E"/>
<path d="M23.0527 35.907L23.3711 37.6445L25.1091 37.3259L24.7907 35.5884L23.0527 35.907Z" fill="#DB365E"/>
<path d="M22.7679 34.1687L23.0859 35.9062L24.8241 35.5879L24.506 33.8503L22.7679 34.1687Z" fill="#DB365E"/>
<path d="M22.4124 32.4304L22.7305 34.168L24.4686 33.8496L24.1505 32.1121L22.4124 32.4304Z" fill="#DB365E"/>
<path d="M22.1273 30.696L22.4453 32.4336L24.1834 32.1153L23.8654 30.3776L22.1273 30.696Z" fill="#DB365E"/>
<path d="M21.7793 28.9578L22.0977 30.6953L23.8357 30.3767L23.5173 28.6392L21.7793 28.9578Z" fill="#DB365E"/>
<path d="M21.4945 27.2234L21.8125 28.9609L23.5506 28.6426L23.2326 26.905L21.4945 27.2234Z" fill="#DB365E"/>
<path d="M21.139 25.485L21.457 27.2227L23.1951 26.9043L22.8771 25.1667L21.139 25.485Z" fill="white"/>
<path d="M21.9437 39.6999L22.2617 41.4375L23.9998 41.1192L23.6818 39.3816L21.9437 39.6999Z" fill="#DB365E"/>
<path d="M21.6663 37.9577L21.9844 39.6953L23.7225 39.377L23.4045 37.6394L21.6663 37.9577Z" fill="#DB365E"/>
<path d="M21.303 36.2311L21.6211 37.9688L23.3592 37.6504L23.0411 35.9128L21.303 36.2311Z" fill="#DB365E"/>
<path d="M21.0332 34.4852L21.3516 36.2227L23.0896 35.904L22.7712 34.1665L21.0332 34.4852Z" fill="#DB365E"/>
<path d="M20.6702 32.7507L20.9883 34.4883L22.7264 34.17L22.4083 32.4324L20.6702 32.7507Z" fill="#DB365E"/>
<path d="M20.3929 31.0085L20.7109 32.7461L22.4491 32.4278L22.131 30.6901L20.3929 31.0085Z" fill="#DB365E"/>
<path d="M20.0335 29.2742L20.3516 31.0117L22.0897 30.6934L21.7716 28.9558L20.0335 29.2742Z" fill="#DB365E"/>
<path d="M19.7562 27.5359L20.0742 29.2734L21.8123 28.9551L21.4943 27.2175L19.7562 27.5359Z" fill="white"/>
<path d="M19.9241 38.2781L20.2422 40.0156L21.9803 39.6973L21.6622 37.9597L19.9241 38.2781Z" fill="#DB365E"/>
<path d="M19.5765 36.5436L19.8945 38.2812L21.6326 37.9629L21.3145 36.2253L19.5765 36.5436Z" fill="#DB365E"/>
<path d="M19.2913 34.8093L19.6094 36.5469L21.3475 36.2285L21.0295 34.491L19.2913 34.8093Z" fill="#DB365E"/>
<path d="M18.9473 33.0672L19.2656 34.8047L21.0037 34.486L20.6853 32.7485L18.9473 33.0672Z" fill="#DB365E"/>
<path d="M18.6546 31.3249L18.9727 33.0625L20.7108 32.7442L20.3927 31.0065L18.6546 31.3249Z" fill="#DB365E"/>
<path d="M18.2991 29.5945L18.6172 31.332L20.3553 31.0137L20.0373 29.2761L18.2991 29.5945Z" fill="white"/>
<path d="M17.8343 36.86L18.1523 38.5977L19.8904 38.2793L19.5724 36.5417L17.8343 36.86Z" fill="white"/>
<path d="M17.5531 35.1179L17.8711 36.8555L19.6092 36.5371L19.2911 34.7996L17.5531 35.1179Z" fill="white"/>
<path d="M17.209 33.3797L17.5273 35.1172L19.2654 34.7985L18.947 33.061L17.209 33.3797Z" fill="white"/>
<path d="M16.9202 31.6452L17.2383 33.3828L18.9764 33.0645L18.6583 31.3269L16.9202 31.6452Z" fill="white"/>
</svg>
