<svg width="83" height="83" viewBox="0 0 83 83" fill="none" xmlns="http://www.w3.org/2000/svg">
<rect x="15.8125" width="68.6355" height="68.6355" rx="22" transform="rotate(13.318 15.8125 0)" fill="#9BFBFF" fill-opacity="0.2"/>
<g clip-path="url(#clip0_293_9668)">
<path d="M41.8184 64.0907L43.3207 57.7443L46.4939 58.4954L45.7427 61.6686L52.0891 63.1709L52.8403 59.9977L56.0134 60.7489L57.5157 54.4025L54.3426 53.6514L55.0937 50.4782L61.4401 51.9806L62.1913 48.8074L62.1913 48.8073L62.1913 48.8074L65.3644 49.5586L66.366 45.3276L63.1928 44.5765L63.944 41.4033L57.5976 39.901L58.3487 36.7279L61.5219 37.479L63.0242 31.1326L59.8511 30.3815L60.6022 27.2083L54.2558 25.706L53.5047 28.8792L50.3315 28.128L51.8339 21.7816L48.6607 21.0305L48.6605 21.0304L48.6607 21.0305L49.4119 17.8573L45.181 16.8558L44.4298 20.0289L44.4296 20.0289L41.2567 19.2778L39.7543 25.6241L36.5812 24.873L37.3323 21.6998L30.986 20.1975L30.2348 23.3707L27.0617 22.6195L25.5593 28.9659L28.7325 29.717L27.9813 32.8902L21.6349 31.3879L20.8838 34.561L17.7106 33.8099L16.7091 38.0408L19.8822 38.7919L19.8823 38.7918L19.8822 38.7919L19.1311 41.9651L25.4775 43.4674L24.7263 46.6406L21.5532 45.8894L20.0508 52.2358L23.224 52.9869L22.4728 56.1601L28.8192 57.6624L29.5704 54.4893L32.7435 55.2404L31.2412 61.5868L34.4141 62.3379L34.4143 62.338L33.6632 65.5111L37.8941 66.5126L38.6452 63.3395L38.6451 63.3395" fill="#9BFBFF"/>
<path d="M49.4106 17.857L45.1797 16.8555L44.4285 20.0286L48.6595 21.0302L49.4106 17.857Z" fill="black"/>
<path d="M37.3308 21.7006L30.9844 20.1982L30.2332 23.3714L36.5796 24.8737L37.3308 21.7006Z" fill="black"/>
<path d="M30.2356 23.3683L27.0625 22.6172L25.5602 28.9636L28.7333 29.7147L30.2356 23.3683Z" fill="black"/>
<path d="M34.3283 34.3926L31.1551 33.6415L31.9062 30.4683L28.7331 29.7172L27.982 32.8903L21.6356 31.388L20.8844 34.5611L33.5772 37.5658L34.3283 34.3926Z" fill="black"/>
<path d="M39.0017 28.798L38.2505 31.9713L41.4237 32.7224L42.1748 29.5492L42.926 26.376L44.4283 20.0296L41.2552 19.2785L39.7528 25.6249L36.5797 24.8737L35.8286 28.0469L39.0017 28.798Z" fill="black"/>
<path d="M60.6003 27.2094L54.2539 25.707L53.5028 28.8802L59.8491 30.3825L60.6003 27.2094Z" fill="black"/>
<path d="M63.0247 31.1301L59.8516 30.3789L58.3492 36.7253L61.5224 37.4764L63.0247 31.1301Z" fill="black"/>
<path d="M54.426 39.1509L51.2528 38.3997L50.5016 41.5729L63.1944 44.5775L63.9455 41.4044L57.5991 39.902L58.3503 36.7289L55.1771 35.9777L54.426 39.1509Z" fill="black"/>
<path d="M46.4067 30.5498L45.6555 33.723L48.8286 34.4742L49.5798 31.301L52.753 32.0521L53.5041 28.879L50.331 28.1278L51.8333 21.7814L48.6602 21.0303L47.1578 27.3767L46.4067 30.5498Z" fill="black"/>
<path d="M38.645 63.3375L34.4141 62.3359L33.6629 65.5091L37.8938 66.5106L38.645 63.3375Z" fill="black"/>
<path d="M29.569 54.4906L23.2227 52.9883L22.4715 56.1614L28.8179 57.6638L29.569 54.4906Z" fill="black"/>
<path d="M24.7278 46.6408L21.5547 45.8896L20.0524 52.236L23.2255 52.9872L24.7278 46.6408Z" fill="black"/>
<path d="M28.6512 44.2196L31.8244 44.9708L32.5756 41.7976L19.8828 38.793L19.1317 41.9661L25.478 43.4684L24.7269 46.6416L27.9 47.3927L28.6512 44.2196Z" fill="black"/>
<path d="M36.6693 52.8201L37.4205 49.6468L34.2474 48.8957L33.4962 52.0689L30.323 51.3178L29.5719 54.4909L32.745 55.2421L31.2427 61.5885L34.4159 62.3396L35.9182 55.9932L36.6693 52.8201Z" fill="black"/>
<path d="M52.8386 59.9984L46.4922 58.4961L45.741 61.6692L52.0874 63.1716L52.8386 59.9984Z" fill="black"/>
<path d="M57.5169 54.4025L54.3438 53.6514L52.8414 59.9978L56.0146 60.7489L57.5169 54.4025Z" fill="black"/>
<path d="M48.7488 48.9739L51.9221 49.7251L51.1709 52.8982L54.3441 53.6494L55.0952 50.4763L61.4416 51.9786L62.1928 48.8054L49.5 45.8008L48.7488 48.9739Z" fill="black"/>
<path d="M44.0704 54.5728L44.8216 51.3996L41.6484 50.6484L40.8973 53.8217L40.1461 56.9948L38.6438 63.3412L41.8169 64.0924L43.3193 57.746L46.4924 58.4971L47.2436 55.324L44.0704 54.5728Z" fill="black"/>
<path d="M20.8841 34.5597L17.7109 33.8086L16.7094 38.0395L19.8825 38.7907L20.8841 34.5597Z" fill="black"/>
<path d="M66.3645 45.3293L63.1914 44.5781L62.1899 48.8091L65.363 49.5602L66.3645 45.3293Z" fill="black"/>
</g>
<defs>
<clipPath id="clip0_293_9668">
<rect width="50" height="50" fill="white" transform="translate(22.9688 11.5977) rotate(13.318)"/>
</clipPath>
</defs>
</svg>
