<svg width="104" height="104" viewBox="0 0 104 104" fill="none" xmlns="http://www.w3.org/2000/svg">
<rect x="0.5625" y="22.3008" width="84" height="84" rx="22" transform="rotate(-15 0.5625 22.3008)" fill="#F0C733" fill-opacity="0.1"/>
<path d="M77.5486 37.588L74.9219 38.4531L75.7868 41.0789L78.4134 40.2138L77.5486 37.588Z" fill="#222221"/>
<path d="M76.6775 34.9552L74.0508 35.8203L74.9166 38.4489L77.5433 37.5839L76.6775 34.9552Z" fill="#222221"/>
<path d="M75.7819 41.0754L73.1523 41.9414L74.0172 44.5672L76.6468 43.7012L75.7819 41.0754Z" fill="#222221"/>
<path d="M74.9186 38.4504L72.2891 39.3164L73.1539 41.9422L75.7834 41.0762L74.9186 38.4504Z" fill="#E79E39"/>
<path d="M74.0514 35.8215L71.4219 36.6875L72.2877 39.3161L74.9172 38.4501L74.0514 35.8215Z" fill="#222221"/>
<path d="M74.0173 44.5646L71.3906 45.4297L72.2565 48.0583L74.8831 47.1932L74.0173 44.5646Z" fill="#222221"/>
<path d="M73.154 41.9435L70.5273 42.8086L71.3922 45.4344L74.0189 44.5693L73.154 41.9435Z" fill="#E79E39"/>
<path d="M72.2868 39.3185L69.6602 40.1836L70.525 42.8094L73.1517 41.9443L72.2868 39.3185Z" fill="#E79E39"/>
<path d="M71.4235 36.6857L68.7969 37.5508L69.6627 40.1794L72.2893 39.3143L71.4235 36.6857Z" fill="#222221"/>
<path d="M79.1803 69.0793L76.5508 69.9453L77.4157 72.5711L80.0452 71.7051L79.1803 69.0793Z" fill="#222221"/>
<path d="M78.3131 66.4504L75.6836 67.3164L76.5494 69.945L79.1789 69.079L78.3131 66.4504Z" fill="#222221"/>
<path d="M77.4537 63.8254L74.8242 64.6914L75.6891 67.3172L78.3186 66.4512L77.4537 63.8254Z" fill="#222221"/>
<path d="M72.2584 48.0598L69.6289 48.9258L70.4938 51.5515L73.1233 50.6855L72.2584 48.0598Z" fill="#222221"/>
<path d="M71.3951 45.427L68.7656 46.293L69.6314 48.9216L72.2609 48.0556L71.3951 45.427Z" fill="#E79E39"/>
<path d="M70.5279 42.8098L67.8984 43.6758L68.7633 46.3015L71.3928 45.4355L70.5279 42.8098Z" fill="#E79E39"/>
<path d="M69.6647 40.1809L67.0352 41.0469L67.9 43.6726L70.5296 42.8066L69.6647 40.1809Z" fill="#E79E39"/>
<path d="M68.7975 37.5481L66.168 38.4141L67.0338 41.0427L69.6633 40.1767L68.7975 37.5481Z" fill="#F0C733"/>
<path d="M67.9342 34.9309L65.3047 35.7969L66.1696 38.4226L68.7991 37.5566L67.9342 34.9309Z" fill="#222221"/>
<path d="M76.5524 69.9474L73.9258 70.8125L74.7907 73.4383L77.4173 72.5732L76.5524 69.9474Z" fill="#222221"/>
<path d="M75.6853 67.3146L73.0586 68.1797L73.9244 70.8083L76.5511 69.9432L75.6853 67.3146Z" fill="#E79E39"/>
<path d="M74.8219 64.6896L72.1953 65.5547L73.0602 68.1805L75.6868 67.3154L74.8219 64.6896Z" fill="#F0C733"/>
<path d="M73.9548 62.0607L71.3281 62.9258L72.194 65.5544L74.8206 64.6893L73.9548 62.0607Z" fill="#222221"/>
<path d="M73.0876 59.4357L70.4609 60.3008L71.3258 62.9266L73.9525 62.0615L73.0876 59.4357Z" fill="#222221"/>
<path d="M72.2204 56.8029L69.5938 57.668L70.4596 60.2966L73.0862 59.4315L72.2204 56.8029Z" fill="#222221"/>
<path d="M71.361 54.1818L68.7344 55.0469L69.5993 57.6726L72.2259 56.8076L71.361 54.1818Z" fill="#222221"/>
<path d="M70.49 51.549L67.8633 52.4141L68.7291 55.0427L71.3558 54.1776L70.49 51.549Z" fill="#222221"/>
<path d="M69.6306 48.9318L67.0039 49.7969L67.8688 52.4226L70.4954 51.5576L69.6306 48.9318Z" fill="#E79E39"/>
<path d="M68.7634 46.2951L66.1367 47.1602L67.0025 49.7888L69.6292 48.9237L68.7634 46.2951Z" fill="#E79E39"/>
<path d="M67.8962 43.674L65.2695 44.5391L66.1344 47.1648L68.7611 46.2998L67.8962 43.674Z" fill="#E79E39"/>
<path d="M67.0329 41.049L64.4062 41.9141L65.2711 44.5398L67.8978 43.6748L67.0329 41.049Z" fill="#F0C733"/>
<path d="M66.1657 38.4162L63.5391 39.2812L64.4049 41.9099L67.0316 41.0448L66.1657 38.4162Z" fill="#F0C733"/>
<path d="M65.3024 35.7951L62.6758 36.6602L63.5407 39.2859L66.1673 38.4208L65.3024 35.7951Z" fill="#222221"/>
<path d="M73.9225 70.8098L71.293 71.6758L72.1579 74.3015L74.7874 73.4355L73.9225 70.8098Z" fill="#222221"/>
<path d="M73.0631 68.177L70.4336 69.043L71.2994 71.6716L73.9289 70.8056L73.0631 68.177Z" fill="#E79E39"/>
<path d="M72.192 65.5559L69.5625 66.4219L70.4274 69.0476L73.0569 68.1816L72.192 65.5559Z" fill="#E79E39"/>
<path d="M71.3288 62.923L68.6992 63.7891L69.565 66.4177L72.1946 65.5517L71.3288 62.923Z" fill="#F0C733"/>
<path d="M70.4654 60.2981L67.8359 61.1641L68.7008 63.7898L71.3303 62.9238L70.4654 60.2981Z" fill="#F0C733"/>
<path d="M69.5982 57.6691L66.9688 58.5352L67.8346 61.1638L70.4641 60.2978L69.5982 57.6691Z" fill="#F0C733"/>
<path d="M68.7311 55.048L66.1016 55.9141L66.9665 58.5398L69.596 57.6738L68.7311 55.048Z" fill="#F0C733"/>
<path d="M67.8678 52.4191L65.2383 53.2852L66.1041 55.9138L68.7336 55.0478L67.8678 52.4191Z" fill="#F0C733"/>
<path d="M67.0045 49.7941L64.375 50.6602L65.2399 53.2859L67.8694 52.4199L67.0045 49.7941Z" fill="#E79E39"/>
<path d="M66.1373 47.1613L63.5078 48.0273L64.3736 50.656L67.0031 49.7899L66.1373 47.1613Z" fill="#E79E39"/>
<path d="M65.274 44.5402L62.6445 45.4062L63.5094 48.032L66.1389 47.166L65.274 44.5402Z" fill="#E79E39"/>
<path d="M64.4068 41.9152L61.7773 42.7812L62.6422 45.407L65.2717 44.541L64.4068 41.9152Z" fill="#F0C733"/>
<path d="M63.5436 39.2785L60.9141 40.1445L61.7799 42.7731L64.4094 41.9071L63.5436 39.2785Z" fill="#F0C733"/>
<path d="M62.6725 36.6613L60.043 37.5273L60.9079 40.1531L63.5374 39.2871L62.6725 36.6613Z" fill="#222221"/>
<path d="M70.4275 69.0412L67.8008 69.9062L68.6666 72.5349L71.2933 71.6698L70.4275 69.0412Z" fill="#222221"/>
<path d="M69.5642 66.4201L66.9375 67.2852L67.8024 69.9109L70.4291 69.0458L69.5642 66.4201Z" fill="#E79E39"/>
<path d="M68.697 63.7873L66.0703 64.6523L66.9361 67.281L69.5628 66.4159L68.697 63.7873Z" fill="#E79E39"/>
<path d="M67.8298 61.1701L65.2031 62.0352L66.068 64.6609L68.6947 63.7959L67.8298 61.1701Z" fill="#F0C733"/>
<path d="M66.9704 58.5373L64.3438 59.4023L65.2096 62.031L67.8362 61.1659L66.9704 58.5373Z" fill="#F0C733"/>
<path d="M66.1032 55.9123L63.4766 56.7773L64.3414 59.4031L66.9681 58.538L66.1032 55.9123Z" fill="#F0C733"/>
<path d="M65.2361 53.2834L62.6094 54.1484L63.4752 56.777L66.1019 55.912L65.2361 53.2834Z" fill="#F0C733"/>
<path d="M64.3727 50.6623L61.7461 51.5273L62.611 54.1531L65.2376 53.288L64.3727 50.6623Z" fill="#E79E39"/>
<path d="M63.5056 48.0256L60.8789 48.8906L61.7447 51.5192L64.3714 50.6542L63.5056 48.0256Z" fill="#E79E39"/>
<path d="M62.6384 45.4045L60.0117 46.2695L60.8766 48.8953L63.5033 48.0302L62.6384 45.4045Z" fill="#E79E39"/>
<path d="M61.7751 42.7834L59.1484 43.6484L60.0133 46.2742L62.64 45.4091L61.7751 42.7834Z" fill="#F0C733"/>
<path d="M60.9079 40.1466L58.2812 41.0117L59.1471 43.6403L61.7737 42.7753L60.9079 40.1466Z" fill="#F0C733"/>
<path d="M60.0446 37.5256L57.418 38.3906L58.2829 41.0164L60.9095 40.1513L60.0446 37.5256Z" fill="#222221"/>
<path d="M67.8014 69.9074L65.1719 70.7734L66.0377 73.4021L68.6672 72.5361L67.8014 69.9074Z" fill="#222221"/>
<path d="M66.9381 67.2863L64.3086 68.1523L65.1735 70.7781L67.803 69.9121L66.9381 67.2863Z" fill="#E79E39"/>
<path d="M66.0748 64.6535L63.4453 65.5195L64.3111 68.1481L66.9406 67.2821L66.0748 64.6535Z" fill="#E79E39"/>
<path d="M65.2076 62.0324L62.5781 62.8984L63.443 65.5242L66.0725 64.6582L65.2076 62.0324Z" fill="#E79E39"/>
<path d="M64.3404 59.3996L61.7109 60.2656L62.5768 62.8942L65.2063 62.0282L64.3404 59.3996Z" fill="#F0C733"/>
<path d="M63.4772 56.7785L60.8477 57.6445L61.7125 60.2703L64.342 59.4043L63.4772 56.7785Z" fill="#F0C733"/>
<path d="M62.61 54.1496L59.9805 55.0156L60.8463 57.6442L63.4758 56.7782L62.61 54.1496Z" fill="#F0C733"/>
<path d="M61.7467 51.5207L59.1172 52.3867L59.9821 55.0125L62.6116 54.1465L61.7467 51.5207Z" fill="#E79E39"/>
<path d="M60.8795 48.8918L58.25 49.7578L59.1158 52.3864L61.7453 51.5204L60.8795 48.8918Z" fill="#E79E39"/>
<path d="M60.0162 46.2707L57.3867 47.1367L58.2516 49.7625L60.8811 48.8965L60.0162 46.2707Z" fill="#F0C733"/>
<path d="M59.153 43.6457L56.5234 44.5117L57.3883 47.1375L60.0178 46.2715L59.153 43.6457Z" fill="#F0C733"/>
<path d="M58.2857 41.009L55.6562 41.875L56.5221 44.5036L59.1516 43.6376L58.2857 41.009Z" fill="#F0C733"/>
<path d="M57.4225 38.3918L54.793 39.2578L55.6579 41.8836L58.2874 41.0176L57.4225 38.3918Z" fill="#E79E39"/>
<path d="M56.5553 35.759L53.9258 36.625L54.7916 39.2536L57.4211 38.3876L56.5553 35.759Z" fill="#222221"/>
<path d="M55.692 33.1379L53.0625 34.0039L53.9274 36.6297L56.5569 35.7637L55.692 33.1379Z" fill="#222221"/>
<path d="M64.3064 68.1545L61.6797 69.0195L62.5446 71.6453L65.1712 70.7802L64.3064 68.1545Z" fill="#222221"/>
<path d="M63.4392 65.5216L60.8125 66.3867L61.6783 69.0153L64.305 68.1503L63.4392 65.5216Z" fill="#E79E39"/>
<path d="M62.5798 62.8966L59.9531 63.7617L60.818 66.3875L63.4447 65.5224L62.5798 62.8966Z" fill="#E79E39"/>
<path d="M61.7126 60.2677L59.0859 61.1328L59.9518 63.7614L62.5784 62.8964L61.7126 60.2677Z" fill="#E79E39"/>
<path d="M60.8454 57.6466L58.2188 58.5117L59.0836 61.1375L61.7103 60.2724L60.8454 57.6466Z" fill="#E79E39"/>
<path d="M59.9782 55.0099L57.3516 55.875L58.2174 58.5036L60.8441 57.6385L59.9782 55.0099Z" fill="#F0C733"/>
<path d="M59.1188 52.3888L56.4922 53.2539L57.3571 55.8797L59.9837 55.0146L59.1188 52.3888Z" fill="#E79E39"/>
<path d="M58.2478 49.7599L55.6211 50.625L56.4869 53.2536L59.1136 52.3885L58.2478 49.7599Z" fill="#E79E39"/>
<path d="M57.3844 47.131L54.7578 47.9961L55.6227 50.6219L58.2493 49.7568L57.3844 47.131Z" fill="#F0C733"/>
<path d="M56.5173 44.5099L53.8906 45.375L54.7555 48.0008L57.3822 47.1357L56.5173 44.5099Z" fill="#E79E39"/>
<path d="M55.654 41.8771L53.0273 42.7422L53.8932 45.3708L56.5199 44.5057L55.654 41.8771Z" fill="#E79E39"/>
<path d="M54.7907 39.256L52.1641 40.1211L53.0289 42.7469L55.6556 41.8818L54.7907 39.256Z" fill="#E79E39"/>
<path d="M53.9235 36.6271L51.2969 37.4922L52.1627 40.1208L54.7894 39.2557L53.9235 36.6271Z" fill="#E79E39"/>
<path d="M53.0603 34.0021L50.4336 34.8672L51.2985 37.493L53.9252 36.6279L53.0603 34.0021Z" fill="#E79E39"/>
<path d="M52.1931 31.3732L49.5664 32.2383L50.4322 34.8669L53.0589 34.0018L52.1931 31.3732Z" fill="#222221"/>
<path d="M51.3298 28.7482L48.7031 29.6133L49.568 32.239L52.1947 31.374L51.3298 28.7482Z" fill="#222221"/>
<path d="M60.817 66.384L58.1875 67.25L59.0533 69.8786L61.6828 69.0126L60.817 66.384Z" fill="#222221"/>
<path d="M59.9498 63.7629L57.3203 64.6289L58.1852 67.2547L60.8147 66.3887L59.9498 63.7629Z" fill="#E79E39"/>
<path d="M59.0865 61.1301L56.457 61.9961L57.3229 64.6247L59.9524 63.7587L59.0865 61.1301Z" fill="#E79E39"/>
<path d="M58.2233 58.509L55.5938 59.375L56.4586 62.0008L59.0881 61.1348L58.2233 58.509Z" fill="#E79E39"/>
<path d="M57.3561 55.8762L54.7266 56.7422L55.5924 59.3708L58.2219 58.5048L57.3561 55.8762Z" fill="#E79E39"/>
<path d="M56.4928 53.2551L53.8633 54.1211L54.7282 56.7469L57.3577 55.8809L56.4928 53.2551Z" fill="#E79E39"/>
<path d="M55.6256 50.6223L52.9961 51.4883L53.8619 54.1169L56.4914 53.2509L55.6256 50.6223Z" fill="#E79E39"/>
<path d="M54.7584 48.0012L52.1289 48.8672L52.9938 51.493L55.6233 50.627L54.7584 48.0012Z" fill="#E79E39"/>
<path d="M53.8912 45.3723L51.2617 46.2383L52.1266 48.864L54.7561 47.998L53.8912 45.3723Z" fill="#E79E39"/>
<path d="M53.0279 42.7395L50.3984 43.6055L51.2643 46.2341L53.8938 45.3681L53.0279 42.7395Z" fill="#E79E39"/>
<path d="M52.1647 40.1223L49.5352 40.9883L50.4 43.6141L53.0296 42.748L52.1647 40.1223Z" fill="#E79E39"/>
<path d="M51.3014 37.4934L48.6719 38.3594L49.5377 40.988L52.1672 40.122L51.3014 37.4934Z" fill="#E79E39"/>
<path d="M50.4303 34.8684L47.8008 35.7344L48.6657 38.3601L51.2951 37.4941L50.4303 34.8684Z" fill="#E79E39"/>
<path d="M49.567 32.2395L46.9375 33.1055L47.8033 35.7341L50.4328 34.8681L49.567 32.2395Z" fill="#E79E39"/>
<path d="M48.7037 29.6105L46.0742 30.4766L46.9391 33.1023L49.5686 32.2363L48.7037 29.6105Z" fill="#E79E39"/>
<path d="M47.8365 26.9816L45.207 27.8477L46.0729 30.4763L48.7024 29.6103L47.8365 26.9816Z" fill="#222221"/>
<path d="M46.9733 24.3605L44.3438 25.2266L45.2086 27.8523L47.8382 26.9863L46.9733 24.3605Z" fill="#222221"/>
<path d="M58.1853 67.2521L55.5586 68.1172L56.4244 70.7458L59.0511 69.8807L58.1853 67.2521Z" fill="#222221"/>
<path d="M57.322 64.6271L54.6953 65.4922L55.5602 68.1179L58.1869 67.2529L57.322 64.6271Z" fill="#E79E39"/>
<path d="M56.4548 61.9982L53.8281 62.8633L54.694 65.4919L57.3206 64.6268L56.4548 61.9982Z" fill="#E79E39"/>
<path d="M55.5915 59.3732L52.9648 60.2383L53.8297 62.864L56.4564 61.999L55.5915 59.3732Z" fill="#E79E39"/>
<path d="M54.7244 56.7404L52.0977 57.6055L52.9635 60.2341L55.5902 59.369L54.7244 56.7404Z" fill="#E79E39"/>
<path d="M53.8571 54.1232L51.2305 54.9883L52.0954 57.614L54.722 56.749L53.8571 54.1232Z" fill="#E79E39"/>
<path d="M52.9939 51.4904L50.3672 52.3555L51.233 54.9841L53.8597 54.119L52.9939 51.4904Z" fill="#E79E39"/>
<path d="M52.1306 48.8654L49.5039 49.7305L50.3688 52.3562L52.9955 51.4912L52.1306 48.8654Z" fill="#F0C733"/>
<path d="M51.2634 46.2365L48.6367 47.1016L49.5016 49.7273L52.1282 48.8623L51.2634 46.2365Z" fill="#F0C733"/>
<path d="M50.4001 43.6115L47.7734 44.4766L48.6393 47.1052L51.2659 46.2401L50.4001 43.6115Z" fill="#F0C733"/>
<path d="M49.5329 40.9904L46.9062 41.8555L47.7711 44.4812L50.3978 43.6162L49.5329 40.9904Z" fill="#F0C733"/>
<path d="M48.6657 38.3576L46.0391 39.2227L46.9049 41.8513L49.5316 40.9862L48.6657 38.3576Z" fill="#F0C733"/>
<path d="M47.8025 35.7365L45.1758 36.6016L46.0407 39.2273L48.6673 38.3622L47.8025 35.7365Z" fill="white"/>
<path d="M46.9392 33.1037L44.3125 33.9688L45.1783 36.5974L47.805 35.7323L46.9392 33.1037Z" fill="white"/>
<path d="M46.0759 30.4787L43.4492 31.3438L44.3141 33.9695L46.9407 33.1045L46.0759 30.4787Z" fill="white"/>
<path d="M45.2087 27.8498L42.582 28.7148L43.4479 31.3435L46.0745 30.4784L45.2087 27.8498Z" fill="#222221"/>
<path d="M44.3454 25.2248L41.7188 26.0898L42.5836 28.7156L45.2103 27.8505L44.3454 25.2248Z" fill="#222221"/>
<path d="M56.4235 70.7482L53.7969 71.6133L54.6618 74.239L57.2884 73.374L56.4235 70.7482Z" fill="#222221"/>
<path d="M55.5564 68.1154L52.9297 68.9805L53.7955 71.6091L56.4222 70.744L55.5564 68.1154Z" fill="#E79E39"/>
<path d="M54.6931 65.4943L52.0664 66.3594L52.9313 68.9851L55.5579 68.1201L54.6931 65.4943Z" fill="#E79E39"/>
<path d="M53.8259 62.8615L51.1992 63.7266L52.065 66.3552L54.6917 65.4901L53.8259 62.8615Z" fill="#E79E39"/>
<path d="M52.9626 60.2404L50.3359 61.1055L51.2008 63.7312L53.8275 62.8662L52.9626 60.2404Z" fill="#E79E39"/>
<path d="M52.0954 57.6115L49.4688 58.4766L50.3346 61.1052L52.9612 60.2401L52.0954 57.6115Z" fill="#F0C733"/>
<path d="M51.2321 54.9865L48.6055 55.8516L49.4704 58.4773L52.097 57.6122L51.2321 54.9865Z" fill="#E79E39"/>
<path d="M50.3689 52.3537L47.7422 53.2188L48.608 55.8474L51.2347 54.9823L50.3689 52.3537Z" fill="#E79E39"/>
<path d="M49.5017 49.7326L46.875 50.5977L47.7399 53.2234L50.3665 52.3583L49.5017 49.7326Z" fill="#F0C733"/>
<path d="M48.6384 47.1076L46.0117 47.9727L46.8766 50.5984L49.5033 49.7333L48.6384 47.1076Z" fill="#F0C733"/>
<path d="M47.7712 44.4748L45.1445 45.3398L46.0104 47.9685L48.637 47.1034L47.7712 44.4748Z" fill="#F0C733"/>
<path d="M46.9079 41.8537L44.2812 42.7188L45.1461 45.3445L47.7728 44.4794L46.9079 41.8537Z" fill="white"/>
<path d="M46.0407 39.2209L43.4141 40.0859L44.2799 42.7145L46.9066 41.8495L46.0407 39.2209Z" fill="white"/>
<path d="M45.1775 36.5959L42.5508 37.4609L43.4157 40.0867L46.0423 39.2216L45.1775 36.5959Z" fill="white"/>
<path d="M44.3142 33.967L41.6875 34.832L42.5533 37.4606L45.18 36.5956L44.3142 33.967Z" fill="#222221"/>
<path d="M43.4469 31.3459L40.8203 32.2109L41.6852 34.8367L44.3118 33.9716L43.4469 31.3459Z" fill="#222221"/>
<path d="M54.6608 74.2355L52.0312 75.1016L52.8971 77.7302L55.5266 76.8642L54.6608 74.2355Z" fill="#222221"/>
<path d="M53.7975 71.6145L51.168 72.4805L52.0329 75.1062L54.6624 74.2402L53.7975 71.6145Z" fill="#E79E39"/>
<path d="M52.9342 68.9816L50.3047 69.8477L51.1705 72.4763L53.8 71.6103L52.9342 68.9816Z" fill="#E79E39"/>
<path d="M52.067 66.3605L49.4375 67.2266L50.3024 69.8523L52.9319 68.9863L52.067 66.3605Z" fill="#E79E39"/>
<path d="M51.1998 63.7277L48.5703 64.5938L49.4361 67.2224L52.0656 66.3564L51.1998 63.7277Z" fill="#E79E39"/>
<path d="M50.3404 61.1067L47.7109 61.9727L48.5758 64.5984L51.2053 63.7324L50.3404 61.1067Z" fill="#F0C733"/>
<path d="M49.4733 58.4738L46.8438 59.3398L47.7096 61.9685L50.3391 61.1024L49.4733 58.4738Z" fill="#F0C733"/>
<path d="M48.6061 55.8527L45.9766 56.7188L46.8414 59.3445L49.4709 58.4785L48.6061 55.8527Z" fill="#E79E39"/>
<path d="M47.7428 53.2199L45.1133 54.0859L45.9791 56.7146L48.6086 55.8485L47.7428 53.2199Z" fill="#E79E39"/>
<path d="M46.8756 50.5949L44.2461 51.4609L45.111 54.0867L47.7405 53.2207L46.8756 50.5949Z" fill="#F0C733"/>
<path d="M46.0162 47.9699L43.3867 48.8359L44.2516 51.4617L46.8811 50.5957L46.0162 47.9699Z" fill="#F0C733"/>
<path d="M45.1451 45.3371L42.5156 46.2031L43.3814 48.8317L46.0109 47.9657L45.1451 45.3371Z" fill="white"/>
<path d="M44.2818 42.716L41.6523 43.582L42.5172 46.2078L45.1467 45.3418L44.2818 42.716Z" fill="white"/>
<path d="M43.4186 40.0832L40.7891 40.9492L41.6549 43.5778L44.2844 42.7118L43.4186 40.0832Z" fill="#222221"/>
<path d="M42.5514 37.466L39.9219 38.332L40.7868 40.9578L43.4163 40.0918L42.5514 37.466Z" fill="#222221"/>
<path d="M52.0329 75.0998L49.4062 75.9648L50.2721 78.5935L52.8987 77.7284L52.0329 75.0998Z" fill="#222221"/>
<path d="M51.1696 72.4787L48.543 73.3438L49.4079 75.9695L52.0345 75.1044L51.1696 72.4787Z" fill="#E79E39"/>
<path d="M50.3025 69.8459L47.6758 70.7109L48.5416 73.3396L51.1683 72.4745L50.3025 69.8459Z" fill="#E79E39"/>
<path d="M49.4431 67.2248L46.8164 68.0898L47.6813 70.7156L50.308 69.8505L49.4431 67.2248Z" fill="#F0C733"/>
<path d="M48.5759 64.5959L45.9492 65.4609L46.815 68.0895L49.4417 67.2245L48.5759 64.5959Z" fill="#F0C733"/>
<path d="M47.7087 61.9709L45.082 62.8359L45.9469 65.4617L48.5736 64.5966L47.7087 61.9709Z" fill="#F0C733"/>
<path d="M46.8415 59.342L44.2148 60.207L45.0807 62.8356L47.7073 61.9706L46.8415 59.342Z" fill="#F0C733"/>
<path d="M45.9782 56.717L43.3516 57.582L44.2164 60.2078L46.8431 59.3427L45.9782 56.717Z" fill="#E79E39"/>
<path d="M45.111 54.0841L42.4844 54.9492L43.3502 57.5778L45.9769 56.7128L45.111 54.0841Z" fill="#E79E39"/>
<path d="M44.2478 51.4591L41.6211 52.3242L42.486 54.95L45.1127 54.0849L44.2478 51.4591Z" fill="#E79E39"/>
<path d="M43.3844 48.8342L40.7578 49.6992L41.6227 52.325L44.2493 51.4599L43.3844 48.8342Z" fill="#F0C733"/>
<path d="M42.5173 46.2052L39.8906 47.0703L40.7565 49.6989L43.3831 48.8339L42.5173 46.2052Z" fill="white"/>
<path d="M41.654 43.5841L39.0273 44.4492L39.8922 47.075L42.5189 46.2099L41.654 43.5841Z" fill="#222221"/>
<path d="M50.2741 78.5988L47.6445 79.4648L48.5094 82.0906L51.1389 81.2246L50.2741 78.5988Z" fill="#222221"/>
<path d="M49.4068 75.966L46.7773 76.832L47.6432 79.4606L50.2727 78.5946L49.4068 75.966Z" fill="#E79E39"/>
<path d="M48.5436 73.3449L45.9141 74.2109L46.7789 76.8367L49.4085 75.9707L48.5436 73.3449Z" fill="#E79E39"/>
<path d="M47.6803 70.716L45.0508 71.582L45.9166 74.2106L48.5461 73.3446L47.6803 70.716Z" fill="#F0C733"/>
<path d="M46.8092 68.091L44.1797 68.957L45.0446 71.5828L47.6741 70.7168L46.8092 68.091Z" fill="#F0C733"/>
<path d="M45.9459 65.4582L43.3164 66.3242L44.1822 68.9528L46.8118 68.0868L45.9459 65.4582Z" fill="#F0C733"/>
<path d="M45.0866 62.8371L42.457 63.7031L43.3219 66.3289L45.9515 65.4629L45.0866 62.8371Z" fill="#F0C733"/>
<path d="M44.2155 60.2043L41.5859 61.0703L42.4518 63.6989L45.0813 62.8329L44.2155 60.2043Z" fill="#E79E39"/>
<path d="M43.3561 57.5793L40.7266 58.4453L41.5914 61.0711L44.221 60.2051L43.3561 57.5793Z" fill="#E79E39"/>
<path d="M42.485 54.9465L39.8555 55.8125L40.7213 58.4411L43.3508 57.5751L42.485 54.9465Z" fill="#E79E39"/>
<path d="M41.6217 52.3254L38.9922 53.1914L39.8571 55.8172L42.4866 54.9512L41.6217 52.3254Z" fill="#E79E39"/>
<path d="M40.7584 49.7004L38.1289 50.5664L38.9938 53.1922L41.6233 52.3262L40.7584 49.7004Z" fill="#F0C733"/>
<path d="M39.8912 47.0676L37.2617 47.9336L38.1275 50.5622L40.7571 49.6962L39.8912 47.0676Z" fill="white"/>
<path d="M39.0279 44.4465L36.3984 45.3125L37.2633 47.9383L39.8928 47.0723L39.0279 44.4465Z" fill="#222221"/>
<path d="M47.6423 79.4631L45.0156 80.3281L45.8805 82.9539L48.5071 82.0888L47.6423 79.4631Z" fill="#222221"/>
<path d="M46.779 76.8302L44.1523 77.6953L45.0182 80.3239L47.6448 79.4589L46.779 76.8302Z" fill="#E79E39"/>
<path d="M45.9118 74.2131L43.2852 75.0781L44.15 77.7039L46.7767 76.8388L45.9118 74.2131Z" fill="#F0C733"/>
<path d="M45.0485 71.5763L42.4219 72.4414L43.2877 75.07L45.9144 74.2049L45.0485 71.5763Z" fill="#222221"/>
<path d="M44.1813 68.9552L41.5547 69.8203L42.4196 72.4461L45.0462 71.581L44.1813 68.9552Z" fill="#222221"/>
<path d="M43.3181 66.3263L40.6914 67.1914L41.5572 69.82L44.1839 68.9549L43.3181 66.3263Z" fill="#222221"/>
<path d="M42.4548 63.7013L39.8281 64.5664L40.693 67.1922L43.3196 66.3271L42.4548 63.7013Z" fill="#222221"/>
<path d="M41.5876 61.0685L38.9609 61.9336L39.8268 64.5622L42.4534 63.6971L41.5876 61.0685Z" fill="#222221"/>
<path d="M40.7243 58.4474L38.0977 59.3125L38.9625 61.9383L41.5892 61.0732L40.7243 58.4474Z" fill="#E79E39"/>
<path d="M39.8571 55.8146L37.2305 56.6797L38.0963 59.3083L40.723 58.4432L39.8571 55.8146Z" fill="#E79E39"/>
<path d="M38.9939 53.1935L36.3672 54.0586L37.2321 56.6844L39.8588 55.8193L38.9939 53.1935Z" fill="#E79E39"/>
<path d="M38.1267 50.5646L35.5 51.4297L36.3649 54.0555L38.9916 53.1904L38.1267 50.5646Z" fill="#F0C733"/>
<path d="M37.2634 47.9357L34.6367 48.8008L35.5025 51.4294L38.1292 50.5643L37.2634 47.9357Z" fill="white"/>
<path d="M36.3962 45.3107L33.7695 46.1758L34.6344 48.8015L37.2611 47.9365L36.3962 45.3107Z" fill="#222221"/>
<path d="M45.0163 80.3332L42.3867 81.1992L43.2516 83.825L45.8812 82.959L45.0163 80.3332Z" fill="#222221"/>
<path d="M44.149 77.6965L41.5195 78.5625L42.3854 81.1911L45.0149 80.3251L44.149 77.6965Z" fill="#222221"/>
<path d="M43.2897 75.0754L40.6602 75.9414L41.525 78.5672L44.1546 77.7012L43.2897 75.0754Z" fill="#222221"/>
<path d="M38.0983 59.3137L35.4688 60.1797L36.3336 62.8054L38.9632 61.9394L38.0983 59.3137Z" fill="#222221"/>
<path d="M37.235 56.6809L34.6055 57.5469L35.4713 60.1755L38.1008 59.3095L37.235 56.6809Z" fill="#E79E39"/>
<path d="M36.3639 54.0559L33.7344 54.9219L34.5993 57.5476L37.2288 56.6816L36.3639 54.0559Z" fill="#E79E39"/>
<path d="M35.5006 51.4309L32.8711 52.2969L33.736 54.9226L36.3655 54.0566L35.5006 51.4309Z" fill="white"/>
<path d="M34.6334 48.802L32.0039 49.668L32.8697 52.2966L35.4992 51.4306L34.6334 48.802Z" fill="white"/>
<path d="M33.7701 46.1809L31.1406 47.0469L32.0055 49.6726L34.635 48.8066L33.7701 46.1809Z" fill="#222221"/>
<path d="M34.6032 57.5451L31.9766 58.4102L32.8424 61.0388L35.4691 60.1737L34.6032 57.5451Z" fill="#222221"/>
<path d="M33.736 54.924L31.1094 55.7891L31.9743 58.4148L34.6009 57.5498L33.736 54.924Z" fill="#E79E39"/>
<path d="M32.8728 52.299L30.2461 53.1641L31.111 55.7898L33.7377 54.9248L32.8728 52.299Z" fill="white"/>
<path d="M32.0056 49.6662L29.3789 50.5312L30.2447 53.1599L32.8714 52.2948L32.0056 49.6662Z" fill="#222221"/>
<path d="M31.1139 55.7863L28.4844 56.6523L29.3493 59.2781L31.9788 58.4121L31.1139 55.7863Z" fill="#222221"/>
<path d="M30.2467 53.1613L27.6172 54.0273L28.4821 56.6531L31.1116 55.7871L30.2467 53.1613Z" fill="white"/>
<path d="M29.3795 50.5285L26.75 51.3945L27.6158 54.0231L30.2453 53.1571L29.3795 50.5285Z" fill="#222221"/>
<path d="M27.6149 54.0295L24.9883 54.8945L25.8532 57.5203L28.4798 56.6552L27.6149 54.0295Z" fill="#222221"/>
<path d="M26.7477 51.3966L24.1211 52.2617L24.9869 54.8903L27.6136 54.0253L26.7477 51.3966Z" fill="#222221"/>
</svg>
