<svg width="103" height="103" viewBox="0 0 103 103" fill="none" xmlns="http://www.w3.org/2000/svg">
<rect x="20.3867" y="0.664062" width="83.9895" height="83.9895" rx="22" transform="rotate(13.5821 20.3867 0.664062)" fill="#9D66D5" fill-opacity="0.1"/>
<g clip-path="url(#clip0_293_9650)">
<path d="M81.8674 48.3944L83.3405 48.7521C83.6795 48.8344 84.021 48.6262 84.1033 48.2873L84.7765 45.5151C84.8493 45.2151 84.692 44.9122 84.4106 44.7851C82.8062 44.0602 81.7808 42.377 81.8723 40.6189C81.8883 40.3106 81.6914 40.0318 81.3914 39.959L29.9354 27.4644C29.6354 27.3916 29.3327 27.5489 29.2055 27.8304C28.4805 29.4347 26.7973 30.4601 25.0392 30.3686C24.7308 30.3526 24.4521 30.5495 24.3793 30.8495L23.7061 33.6217C23.6238 33.9608 23.832 34.3022 24.1709 34.3845L25.644 34.7422C25.983 34.8245 26.191 35.1661 26.1087 35.505L25.453 38.2057C25.3706 38.5447 25.0291 38.7527 24.6902 38.6704L23.217 38.3127C22.878 38.2304 22.5365 38.4385 22.4542 38.7774L21.7985 41.4781C21.7161 41.8171 21.9243 42.1586 22.2632 42.2409L23.7363 42.5986C24.0754 42.6809 24.2833 43.0225 24.2011 43.3614L23.5453 46.062C23.463 46.401 23.1214 46.609 22.7825 46.5267L21.3094 46.169C20.9704 46.087 20.6288 46.2951 20.5465 46.6341L19.8907 49.3348C19.8084 49.6738 20.0165 50.0153 20.3554 50.0976L21.8286 50.4553C22.1676 50.5376 22.3756 50.879 22.2933 51.2181L21.6375 53.9187C21.5552 54.2577 21.2136 54.4657 20.8747 54.3835L19.4016 54.0257C19.0626 53.9434 18.7211 54.1515 18.6388 54.4905L17.9657 57.2626C17.8928 57.5626 18.0502 57.8654 18.3316 57.9925C19.9359 58.7175 20.9614 60.4007 20.8699 62.1588C20.8538 62.4671 21.0507 62.7459 21.3507 62.8187L72.8067 75.3132C73.1067 75.3861 73.4095 75.2288 73.5367 74.9473C74.2616 73.343 75.9448 72.3176 77.7029 72.4091C78.0112 72.4251 78.29 72.2282 78.3628 71.9282L79.036 69.1561C79.1183 68.8171 78.9101 68.4756 78.5712 68.3933L77.0981 68.0356C76.7591 67.9533 76.5511 67.6117 76.6334 67.2728L77.2891 64.5721C77.3715 64.2331 77.713 64.0251 78.0519 64.1074L79.5251 64.4651C79.8641 64.5474 80.2056 64.3393 80.2879 64.0004L80.9436 61.2997C81.026 60.9607 80.8178 60.6192 80.4789 60.5369L79.0058 60.1792C78.6668 60.0969 78.4588 59.7553 78.541 59.4164L79.1968 56.7158C79.2791 56.3768 79.6207 56.1688 79.9596 56.2511L81.4327 56.6088C81.7718 56.6911 82.1132 56.4829 82.1955 56.144L82.8513 53.4434C82.9336 53.1044 82.7255 52.7629 82.3866 52.6806L80.9135 52.3229C80.5744 52.2406 80.3664 51.899 80.4487 51.5601L81.1045 48.8594C81.1869 48.5201 81.5284 48.312 81.8674 48.3944Z" fill="#9D66D5"/>
<path d="M72.8083 75.3141C73.1083 75.387 73.4111 75.2297 73.5383 74.9482C74.2632 73.3439 75.9464 72.3185 77.7045 72.41C78.0128 72.426 78.2916 72.2291 78.3644 71.9291L79.0376 69.157C79.1199 68.818 78.9117 68.4765 78.5728 68.3942L77.0997 68.0365C76.7607 67.9542 76.5527 67.6126 76.635 67.2737L77.2908 64.573C77.3731 64.234 77.7146 64.026 78.0536 64.1083L79.5267 64.466C79.8657 64.5483 80.2072 64.3402 80.2895 64.0013L80.9452 61.3006C81.0276 60.9616 80.8194 60.6201 80.4805 60.5378L79.0074 60.1801C78.6684 60.0978 78.4604 59.7562 78.5427 59.4173L79.1984 56.7167C79.2808 56.3777 79.6223 56.1697 79.9612 56.252L81.4343 56.6097C81.7734 56.692 82.1149 56.4838 82.1971 56.1449L82.8529 53.4443C82.9352 53.1053 82.7271 52.7638 82.3882 52.6815L80.9151 52.3238C80.576 52.2415 80.368 51.8999 80.4503 51.561L81.1061 48.8603C81.1884 48.5213 81.53 48.3133 81.8689 48.3956L83.342 48.7533C83.6811 48.8356 84.0225 48.6275 84.1048 48.2886L84.778 45.5163C84.8508 45.2164 84.6935 44.9135 84.4121 44.7864C82.8078 44.0614 81.7823 42.3782 81.8738 40.6201C81.8898 40.3118 81.6929 40.0331 81.3929 39.9602L76.6649 38.8122C72.8251 47.6295 60.3746 64.1057 38.8313 67.0644L72.8082 75.3146L72.8083 75.3141Z" fill="#8659B9"/>
<path d="M70.251 70.5357L25.8124 59.7451C25.1344 59.5805 24.7182 58.8974 24.8828 58.2194L30.9637 33.1767C31.1283 32.4988 31.8113 32.0827 32.4894 32.2473L76.9279 43.0378C77.6058 43.2025 78.0219 43.8855 77.8573 44.5634L71.7765 69.6062C71.612 70.2842 70.9289 70.7003 70.251 70.5357Z" fill="#FFE07D"/>
<path d="M76.9291 43.035L74.7742 42.5117C70.3684 50.1135 61.3518 60.3507 47.5378 65.0174L70.2521 70.5329C70.93 70.6975 71.6131 70.2814 71.7777 69.6033L77.8585 44.5607C78.0232 43.8827 77.6071 43.1996 76.9291 43.035Z" fill="#FFD064"/>
<path d="M73.4972 45.3986L45.0169 38.483C44.5135 38.3608 44.0064 38.6698 43.8842 39.1731L42.9305 43.1007C42.8082 43.6042 43.1172 44.1111 43.6206 44.2334L72.1009 51.1489C72.6043 51.2712 73.1113 50.9622 73.2336 50.4589L74.1873 46.5313C74.3095 46.0279 74.0005 45.5208 73.4972 45.3986Z" fill="#F4FBFF"/>
<path d="M71.1441 55.0767L42.6641 48.1613C42.1607 48.039 41.8518 47.5319 41.974 47.0286C42.0962 46.5252 42.6033 46.2163 43.1067 46.3385L71.5867 53.254C72.0901 53.3762 72.399 53.8833 72.2767 54.3867C72.1545 54.89 71.6474 55.199 71.1441 55.0767Z" fill="#E28086"/>
<path d="M68.2847 66.858L39.8047 59.9425C39.3014 59.8203 38.9924 59.3132 39.1146 58.8098C39.2369 58.3064 39.744 57.9975 40.2473 58.1197L68.7273 65.0352C69.2308 65.1575 69.5396 65.6646 69.4174 66.1679C69.2952 66.6713 68.788 66.9802 68.2847 66.858Z" fill="#E28086"/>
<path d="M57.915 56.0256L41.711 52.0909C41.2076 51.9687 40.8987 51.4616 41.0209 50.9583C41.1431 50.4549 41.6502 50.146 42.1536 50.2682L58.3577 54.2029C58.8612 54.3251 59.17 54.8322 59.0478 55.3355C58.9256 55.8389 58.4184 56.1478 57.915 56.0256Z" fill="#E28086"/>
<path d="M37.0539 43.6878C36.879 43.5738 36.7142 43.4632 36.5569 43.3551L37.3444 40.1119C37.8916 40.4017 38.2061 40.7571 38.2333 40.7887C38.5637 41.1833 39.1517 41.2382 39.5495 40.9097C39.9489 40.58 40.0055 39.9887 39.6757 39.5893C39.6356 39.5407 38.969 38.75 37.7955 38.2545L37.9244 37.7234C38.0467 37.2199 37.7377 36.7129 37.2343 36.5907C36.731 36.4685 36.2239 36.7774 36.1017 37.2808L35.9608 37.8608C35.9132 37.8597 35.866 37.8583 35.8176 37.8586C34.4952 37.8677 33.354 38.6352 32.8389 39.8618C32.3509 41.0241 32.539 42.2951 33.318 43.1001C33.6557 43.4492 34.0232 43.7831 34.4411 44.1196L33.4249 48.3046C32.9664 48.1319 32.6571 47.8997 32.1964 47.4083C31.842 47.0305 31.2485 47.0113 30.8707 47.3657C30.4928 47.7199 30.4738 48.3135 30.8281 48.6913C31.6051 49.52 32.2029 49.8815 32.9801 50.1364L32.8228 50.7843C32.7005 51.2877 33.0095 51.7947 33.5128 51.917C34.0162 52.0392 34.5233 51.7302 34.6455 51.2269L34.8235 50.494C36.5211 50.495 37.8801 49.3835 38.4317 48.0959C39.1456 46.4297 38.6047 44.6995 37.0539 43.6878ZM34.6659 41.7957C34.4177 41.5392 34.3776 41.0426 34.5685 40.588C34.6594 40.3713 34.9181 39.9111 35.4961 39.7745L34.9395 42.0669C34.8458 41.9776 34.7546 41.8875 34.6659 41.7957ZM36.7074 47.3571C36.4765 47.8963 35.9727 48.4017 35.2921 48.564L36.0853 45.2976C37.1606 46.041 36.8353 47.0588 36.7074 47.3571Z" fill="#FFC250"/>
</g>
<defs>
<clipPath id="clip0_293_9650">
<rect width="62.1522" height="62.1522" fill="white" transform="translate(28.5039 13.8555) rotate(13.6484)"/>
</clipPath>
</defs>
</svg>
