<svg width="1440" height="746" viewBox="0 0 1440 746" fill="none" xmlns="http://www.w3.org/2000/svg">
<g clip-path="url(#clip0_293_10807)">
<rect width="1440" height="746" fill="#F8F8F8"/>
<g opacity="0.15" clip-path="url(#clip1_293_10807)">
<path d="M1461.75 -129.985H15.9102V833.907H1461.75V-129.985Z" fill="#EDEDED"/>
<path d="M14.4102 -28.3078L77.3878 8.05231V-64.668L14.4102 -28.3078Z" fill="#E3E3E3"/>
<path d="M14.3604 -28.3078L-48.6172 -64.668V8.05231L14.3604 -28.3078Z" fill="#F0F0F0"/>
<path d="M-48.6172 8.04764L14.3604 44.4045V-28.3125L-48.6172 8.04764Z" fill="#D4D4D4"/>
<path d="M77.3337 8.04764L14.3594 -28.3125V44.4045L77.3337 8.04764Z" fill="#F7F7F7"/>
<path d="M140.363 -28.3078L203.341 8.05231V-64.668L140.363 -28.3078Z" fill="#F7F7F7"/>
<path d="M140.31 -28.3078L77.332 -64.668V8.05231L140.31 -28.3078Z" fill="#F0F0F0"/>
<path d="M77.332 8.04764L140.31 44.4045V-28.3125L77.332 8.04764Z" fill="#E3E3E3"/>
<path d="M203.283 8.04764L140.309 -28.3125V44.4045L203.283 8.04764Z" fill="#F7F7F7"/>
<path d="M266.312 -28.3078L329.287 8.05231V-64.668L266.312 -28.3078Z" fill="#F0F0F0"/>
<path d="M266.256 -28.3078L203.281 -64.668V8.05231L266.256 -28.3078Z" fill="#E3E3E3"/>
<path d="M203.281 8.04764L266.256 44.4045V-28.3125L203.281 8.04764Z" fill="#D4D4D4"/>
<path d="M329.235 8.04764L266.258 -28.3125V44.4045L329.235 8.04764Z" fill="#F0F0F0"/>
<path d="M392.262 -28.3078L455.236 8.05231V-64.668L392.262 -28.3078Z" fill="#D4D4D4"/>
<path d="M392.209 -28.3078L329.234 -64.668V8.05231L392.209 -28.3078Z" fill="#F0F0F0"/>
<path d="M329.234 8.04764L392.209 44.4045V-28.3125L329.234 8.04764Z" fill="#E3E3E3"/>
<path d="M455.185 8.04764L392.211 -28.3125V44.4045L455.185 8.04764Z" fill="#E3E3E3"/>
<path d="M518.215 -28.3078L581.193 8.05231V-64.668L518.215 -28.3078Z" fill="#E3E3E3"/>
<path d="M518.165 -28.3078L455.188 -64.668V8.05231L518.165 -28.3078Z" fill="#F0F0F0"/>
<path d="M455.188 8.04764L518.165 44.4045V-28.3125L455.188 8.04764Z" fill="#E3E3E3"/>
<path d="M581.138 8.04764L518.164 -28.3125V44.4045L581.138 8.04764Z" fill="#E3E3E3"/>
<path d="M644.168 -28.3078L707.142 8.05231V-64.668L644.168 -28.3078Z" fill="#D4D4D4"/>
<path d="M644.111 -28.3078L581.137 -64.668V8.05231L644.111 -28.3078Z" fill="#E3E3E3"/>
<path d="M581.137 8.04764L644.111 44.4045V-28.3125L581.137 8.04764Z" fill="#E3E3E3"/>
<path d="M707.091 8.04764L644.113 -28.3125V44.4045L707.091 8.04764Z" fill="#F0F0F0"/>
<path d="M770.117 -28.3078L833.091 8.05231V-64.668L770.117 -28.3078Z" fill="#F7F7F7"/>
<path d="M770.06 -28.3078L707.086 -64.668V8.05231L770.06 -28.3078Z" fill="#E3E3E3"/>
<path d="M707.086 8.04764L770.06 44.4045V-28.3125L707.086 8.04764Z" fill="#F0F0F0"/>
<path d="M833.037 8.04764L770.062 -28.3125V44.4045L833.037 8.04764Z" fill="#F0F0F0"/>
<path d="M896.066 -28.3078L959.044 8.05231V-64.668L896.066 -28.3078Z" fill="#D4D4D4"/>
<path d="M896.017 -28.3078L833.039 -64.668V8.05231L896.017 -28.3078Z" fill="#E3E3E3"/>
<path d="M833.039 8.04764L896.017 44.4045V-28.3125L833.039 8.04764Z" fill="#E3E3E3"/>
<path d="M958.99 8.04764L896.016 -28.3125V44.4045L958.99 8.04764Z" fill="#D4D4D4"/>
<path d="M1022.02 -28.3078L1084.99 8.05231V-64.668L1022.02 -28.3078Z" fill="#E3E3E3"/>
<path d="M1021.97 -28.3078L958.992 -64.668V8.05231L1021.97 -28.3078Z" fill="#D4D4D4"/>
<path d="M958.992 8.04764L1021.97 44.4045V-28.3125L958.992 8.04764Z" fill="#F0F0F0"/>
<path d="M1084.95 8.04764L1021.97 -28.3125V44.4045L1084.95 8.04764Z" fill="#D4D4D4"/>
<path d="M1147.97 -28.3078L1210.95 8.05231V-64.668L1147.97 -28.3078Z" fill="#F0F0F0"/>
<path d="M1147.92 -28.3078L1084.95 -64.668V8.05231L1147.92 -28.3078Z" fill="#F0F0F0"/>
<path d="M1084.95 8.04764L1147.92 44.4045V-28.3125L1084.95 8.04764Z" fill="#F0F0F0"/>
<path d="M1210.9 8.04764L1147.92 -28.3125V44.4045L1210.9 8.04764Z" fill="#E3E3E3"/>
<path d="M1273.92 -28.3078L1336.9 8.05231V-64.668L1273.92 -28.3078Z" fill="#D4D4D4"/>
<path d="M1273.87 -28.3078L1210.89 -64.668V8.05231L1273.87 -28.3078Z" fill="#D4D4D4"/>
<path d="M1210.89 8.04764L1273.87 44.4045V-28.3125L1210.89 8.04764Z" fill="#D4D4D4"/>
<path d="M1336.84 8.04764L1273.87 -28.3125V44.4045L1336.84 8.04764Z" fill="#D4D4D4"/>
<path d="M1399.87 -28.3078L1462.85 8.05231V-64.668L1399.87 -28.3078Z" fill="#F0F0F0"/>
<path d="M1399.82 -28.3078L1336.84 -64.668V8.05231L1399.82 -28.3078Z" fill="#E3E3E3"/>
<path d="M1336.84 8.04764L1399.82 44.4045V-28.3125L1336.84 8.04764Z" fill="#E3E3E3"/>
<path d="M1462.79 8.04764L1399.82 -28.3125V44.4045L1462.79 8.04764Z" fill="#F0F0F0"/>
<path d="M14.3594 44.4047L77.3337 80.7648V8.04785L14.3594 44.4047Z" fill="#F7F7F7"/>
<path d="M77.3867 80.7664L140.361 117.127V44.4062L77.3867 80.7664Z" fill="#D4D4D4"/>
<path d="M140.31 44.4037L77.332 8.04688V80.7638L140.31 44.4037Z" fill="#D4D4D4"/>
<path d="M77.3337 80.7664L14.3594 44.4062V117.127L77.3337 80.7664Z" fill="#F0F0F0"/>
<path d="M14.3594 117.126L77.3337 153.483V80.7656L14.3594 117.126Z" fill="#F0F0F0"/>
<path d="M140.31 117.126L77.332 80.7656V153.483L140.31 117.126Z" fill="#F0F0F0"/>
<path d="M140.309 44.4037L203.283 80.7638V8.04688L140.309 44.4037Z" fill="#F0F0F0"/>
<path d="M203.336 80.7664L266.31 117.127V44.4062L203.336 80.7664Z" fill="#F7F7F7"/>
<path d="M266.256 44.4037L203.281 8.04688V80.7638L266.256 44.4037Z" fill="#E3E3E3"/>
<path d="M203.283 80.7664L140.309 44.4062V117.127L203.283 80.7664Z" fill="#F0F0F0"/>
<path d="M140.309 117.126L203.283 153.483V80.7656L140.309 117.126Z" fill="#F7F7F7"/>
<path d="M266.256 117.126L203.281 80.7656V153.483L266.256 117.126Z" fill="#F0F0F0"/>
<path d="M266.258 44.4037L329.235 80.7638V8.04688L266.258 44.4037Z" fill="#F7F7F7"/>
<path d="M329.285 80.7664L392.263 117.127V44.4062L329.285 80.7664Z" fill="#E3E3E3"/>
<path d="M392.209 44.4047L329.234 8.04785V80.7648L392.209 44.4047Z" fill="#E3E3E3"/>
<path d="M329.235 80.7664L266.258 44.4062V117.127L329.235 80.7664Z" fill="#F7F7F7"/>
<path d="M266.258 117.126L329.235 153.483V80.7656L266.258 117.126Z" fill="#E3E3E3"/>
<path d="M392.209 117.126L329.234 80.7656V153.483L392.209 117.126Z" fill="#F0F0F0"/>
<path d="M392.211 44.4047L455.185 80.7648V8.04785L392.211 44.4047Z" fill="#F7F7F7"/>
<path d="M455.238 80.7664L518.212 117.127V44.4062L455.238 80.7664Z" fill="#E3E3E3"/>
<path d="M518.165 44.4047L455.188 8.04785V80.7648L518.165 44.4047Z" fill="#F0F0F0"/>
<path d="M455.185 80.7664L392.211 44.4062V117.127L455.185 80.7664Z" fill="#E3E3E3"/>
<path d="M392.211 117.126L455.185 153.483V80.7656L392.211 117.126Z" fill="#F0F0F0"/>
<path d="M518.165 117.126L455.188 80.7656V153.483L518.165 117.126Z" fill="#F0F0F0"/>
<path d="M518.164 44.4047L581.138 80.7648V8.04785L518.164 44.4047Z" fill="#F0F0F0"/>
<path d="M581.191 80.7664L644.166 117.127V44.4062L581.191 80.7664Z" fill="#F0F0F0"/>
<path d="M644.111 44.4047L581.137 8.04785V80.7648L644.111 44.4047Z" fill="#E3E3E3"/>
<path d="M581.138 80.7664L518.164 44.4062V117.127L581.138 80.7664Z" fill="#F0F0F0"/>
<path d="M518.164 117.126L581.138 153.483V80.7656L518.164 117.126Z" fill="#D4D4D4"/>
<path d="M644.111 117.126L581.137 80.7656V153.483L644.111 117.126Z" fill="#F0F0F0"/>
<path d="M644.113 44.4037L707.091 80.7638V8.04688L644.113 44.4037Z" fill="#F7F7F7"/>
<path d="M707.141 80.7664L770.118 117.127V44.4062L707.141 80.7664Z" fill="#F0F0F0"/>
<path d="M770.06 44.4037L707.086 8.04688V80.7638L770.06 44.4037Z" fill="#F7F7F7"/>
<path d="M707.091 80.7664L644.113 44.4062V117.127L707.091 80.7664Z" fill="#E3E3E3"/>
<path d="M644.113 117.126L707.091 153.483V80.7656L644.113 117.126Z" fill="#D4D4D4"/>
<path d="M770.06 117.126L707.086 80.7656V153.483L770.06 117.126Z" fill="#D4D4D4"/>
<path d="M770.062 44.4037L833.037 80.7638V8.04688L770.062 44.4037Z" fill="#E3E3E3"/>
<path d="M833.09 80.7664L896.064 117.127V44.4062L833.09 80.7664Z" fill="#E3E3E3"/>
<path d="M896.017 44.4047L833.039 8.04785V80.7648L896.017 44.4047Z" fill="#F0F0F0"/>
<path d="M833.037 80.7664L770.062 44.4062V117.127L833.037 80.7664Z" fill="#E3E3E3"/>
<path d="M770.062 117.126L833.037 153.483V80.7656L770.062 117.126Z" fill="#F0F0F0"/>
<path d="M896.017 117.126L833.039 80.7656V153.483L896.017 117.126Z" fill="#E3E3E3"/>
<path d="M896.016 44.4047L958.99 80.7648V8.04785L896.016 44.4047Z" fill="#F0F0F0"/>
<path d="M959.043 80.7664L1022.02 117.127V44.4062L959.043 80.7664Z" fill="#D4D4D4"/>
<path d="M1021.97 44.4047L958.992 8.04785V80.7648L1021.97 44.4047Z" fill="#F0F0F0"/>
<path d="M958.99 80.7664L896.016 44.4062V117.127L958.99 80.7664Z" fill="#F0F0F0"/>
<path d="M896.016 117.126L958.99 153.483V80.7656L896.016 117.126Z" fill="#F7F7F7"/>
<path d="M1021.97 117.126L958.992 80.7656V153.483L1021.97 117.126Z" fill="#F7F7F7"/>
<path d="M1021.97 44.4047L1084.95 80.7648V8.04785L1021.97 44.4047Z" fill="#E3E3E3"/>
<path d="M1085 80.7664L1147.97 117.127V44.4062L1085 80.7664Z" fill="#D4D4D4"/>
<path d="M1147.92 44.4047L1084.95 8.04785V80.7648L1147.92 44.4047Z" fill="#D4D4D4"/>
<path d="M1084.95 80.7664L1021.97 44.4062V117.127L1084.95 80.7664Z" fill="#F0F0F0"/>
<path d="M1021.97 117.126L1084.95 153.483V80.7656L1021.97 117.126Z" fill="#E3E3E3"/>
<path d="M1147.92 117.126L1084.95 80.7656V153.483L1147.92 117.126Z" fill="#F7F7F7"/>
<path d="M1147.92 44.4037L1210.9 80.7638V8.04688L1147.92 44.4037Z" fill="#F0F0F0"/>
<path d="M1210.95 80.7664L1273.92 117.127V44.4062L1210.95 80.7664Z" fill="#F7F7F7"/>
<path d="M1273.87 44.4037L1210.89 8.04688V80.7638L1273.87 44.4037Z" fill="#D4D4D4"/>
<path d="M1210.9 80.7664L1147.92 44.4062V117.127L1210.9 80.7664Z" fill="#F0F0F0"/>
<path d="M1147.92 117.126L1210.9 153.483V80.7656L1147.92 117.126Z" fill="#F7F7F7"/>
<path d="M1273.87 117.126L1210.89 80.7656V153.483L1273.87 117.126Z" fill="#F7F7F7"/>
<path d="M1273.87 44.4037L1336.84 80.7638V8.04688L1273.87 44.4037Z" fill="#F0F0F0"/>
<path d="M1336.9 80.7664L1399.87 117.127V44.4062L1336.9 80.7664Z" fill="#D4D4D4"/>
<path d="M1399.82 44.4037L1336.84 8.04688V80.7638L1399.82 44.4037Z" fill="#E3E3E3"/>
<path d="M1336.84 80.7664L1273.87 44.4062V117.127L1336.84 80.7664Z" fill="#E3E3E3"/>
<path d="M1273.87 117.126L1336.84 153.483V80.7656L1273.87 117.126Z" fill="#F7F7F7"/>
<path d="M1399.82 117.126L1336.84 80.7656V153.483L1399.82 117.126Z" fill="#F7F7F7"/>
<path d="M1399.82 44.4047L1462.79 80.7648V8.04785L1399.82 44.4047Z" fill="#E3E3E3"/>
<path d="M1462.79 80.7664L1399.82 44.4062V117.127L1462.79 80.7664Z" fill="#F7F7F7"/>
<path d="M1399.82 117.126L1462.79 153.483V80.7656L1399.82 117.126Z" fill="#D4D4D4"/>
<path d="M-48.6172 153.478L14.3604 189.838V117.121L-48.6172 153.478Z" fill="#E3E3E3"/>
<path d="M14.4102 189.838L77.3878 226.198V153.478L14.4102 189.838Z" fill="#F0F0F0"/>
<path d="M77.3337 153.478L14.3594 117.121V189.838L77.3337 153.478Z" fill="#F0F0F0"/>
<path d="M14.3604 189.838L-48.6172 153.478V226.198L14.3604 189.838Z" fill="#D4D4D4"/>
<path d="M-48.6172 226.196L14.3604 262.553V189.836L-48.6172 226.196Z" fill="#F7F7F7"/>
<path d="M77.3337 226.196L14.3594 189.836V262.553L77.3337 226.196Z" fill="#F7F7F7"/>
<path d="M77.332 153.478L140.31 189.838V117.121L77.332 153.478Z" fill="#F7F7F7"/>
<path d="M140.363 189.837L203.341 226.197V153.477L140.363 189.837Z" fill="#F0F0F0"/>
<path d="M203.283 153.478L140.309 117.121V189.838L203.283 153.478Z" fill="#D4D4D4"/>
<path d="M140.31 189.837L77.332 153.477V226.197L140.31 189.837Z" fill="#D4D4D4"/>
<path d="M77.332 226.196L140.31 262.553V189.836L77.332 226.196Z" fill="#E3E3E3"/>
<path d="M203.283 226.196L140.309 189.836V262.553L203.283 226.196Z" fill="#F0F0F0"/>
<path d="M203.281 153.478L266.256 189.838V117.121L203.281 153.478Z" fill="#F0F0F0"/>
<path d="M266.312 189.837L329.287 226.197V153.477L266.312 189.837Z" fill="#F0F0F0"/>
<path d="M329.235 153.478L266.258 117.121V189.838L329.235 153.478Z" fill="#E3E3E3"/>
<path d="M266.256 189.837L203.281 153.477V226.197L266.256 189.837Z" fill="#F0F0F0"/>
<path d="M203.281 226.196L266.256 262.553V189.836L203.281 226.196Z" fill="#D4D4D4"/>
<path d="M329.235 226.196L266.258 189.836V262.553L329.235 226.196Z" fill="#F0F0F0"/>
<path d="M329.234 153.478L392.209 189.838V117.121L329.234 153.478Z" fill="#F0F0F0"/>
<path d="M392.262 189.837L455.236 226.197V153.477L392.262 189.837Z" fill="#F0F0F0"/>
<path d="M455.185 153.478L392.211 117.121V189.838L455.185 153.478Z" fill="#F0F0F0"/>
<path d="M392.209 189.838L329.234 153.478V226.198L392.209 189.838Z" fill="#F0F0F0"/>
<path d="M329.234 226.196L392.209 262.553V189.836L329.234 226.196Z" fill="#F7F7F7"/>
<path d="M455.185 226.196L392.211 189.836V262.553L455.185 226.196Z" fill="#D4D4D4"/>
<path d="M455.188 153.478L518.165 189.838V117.121L455.188 153.478Z" fill="#D4D4D4"/>
<path d="M518.215 189.838L581.193 226.198V153.478L518.215 189.838Z" fill="#F0F0F0"/>
<path d="M581.138 153.478L518.164 117.121V189.838L581.138 153.478Z" fill="#F0F0F0"/>
<path d="M518.165 189.838L455.188 153.478V226.198L518.165 189.838Z" fill="#F0F0F0"/>
<path d="M455.188 226.196L518.165 262.553V189.836L455.188 226.196Z" fill="#E3E3E3"/>
<path d="M581.138 226.196L518.164 189.836V262.553L581.138 226.196Z" fill="#E3E3E3"/>
<path d="M581.137 153.478L644.111 189.838V117.121L581.137 153.478Z" fill="#F0F0F0"/>
<path d="M644.168 189.838L707.142 226.198V153.478L644.168 189.838Z" fill="#E3E3E3"/>
<path d="M707.091 153.478L644.113 117.121V189.838L707.091 153.478Z" fill="#F7F7F7"/>
<path d="M644.111 189.838L581.137 153.478V226.198L644.111 189.838Z" fill="#E3E3E3"/>
<path d="M581.137 226.196L644.111 262.553V189.836L581.137 226.196Z" fill="#E3E3E3"/>
<path d="M707.091 226.196L644.113 189.836V262.553L707.091 226.196Z" fill="#F0F0F0"/>
<path d="M707.086 153.478L770.06 189.838V117.121L707.086 153.478Z" fill="#E3E3E3"/>
<path d="M770.117 189.837L833.091 226.197V153.477L770.117 189.837Z" fill="#E3E3E3"/>
<path d="M833.037 153.478L770.062 117.121V189.838L833.037 153.478Z" fill="#F0F0F0"/>
<path d="M770.06 189.837L707.086 153.477V226.197L770.06 189.837Z" fill="#D4D4D4"/>
<path d="M707.086 226.196L770.06 262.553V189.836L707.086 226.196Z" fill="#D4D4D4"/>
<path d="M833.037 226.196L770.062 189.836V262.553L833.037 226.196Z" fill="#F7F7F7"/>
<path d="M833.039 153.478L896.017 189.838V117.121L833.039 153.478Z" fill="#F0F0F0"/>
<path d="M896.066 189.837L959.044 226.197V153.477L896.066 189.837Z" fill="#F0F0F0"/>
<path d="M958.99 153.478L896.016 117.121V189.838L958.99 153.478Z" fill="#F0F0F0"/>
<path d="M896.017 189.838L833.039 153.478V226.198L896.017 189.838Z" fill="#E3E3E3"/>
<path d="M833.039 226.196L896.017 262.553V189.836L833.039 226.196Z" fill="#F7F7F7"/>
<path d="M958.99 226.196L896.016 189.836V262.553L958.99 226.196Z" fill="#F7F7F7"/>
<path d="M958.992 153.478L1021.97 189.838V117.121L958.992 153.478Z" fill="#E3E3E3"/>
<path d="M1022.02 189.838L1084.99 226.198V153.478L1022.02 189.838Z" fill="#F7F7F7"/>
<path d="M1084.95 153.478L1021.97 117.121V189.838L1084.95 153.478Z" fill="#F0F0F0"/>
<path d="M1021.97 189.838L958.992 153.478V226.198L1021.97 189.838Z" fill="#D4D4D4"/>
<path d="M958.992 226.196L1021.97 262.553V189.836L958.992 226.196Z" fill="#F0F0F0"/>
<path d="M1084.95 226.196L1021.97 189.836V262.553L1084.95 226.196Z" fill="#F0F0F0"/>
<path d="M1084.95 153.478L1147.92 189.838V117.121L1084.95 153.478Z" fill="#F0F0F0"/>
<path d="M1147.97 189.838L1210.95 226.198V153.478L1147.97 189.838Z" fill="#F7F7F7"/>
<path d="M1210.9 153.478L1147.92 117.121V189.838L1210.9 153.478Z" fill="#F0F0F0"/>
<path d="M1147.92 189.838L1084.95 153.478V226.198L1147.92 189.838Z" fill="#E3E3E3"/>
<path d="M1084.95 226.196L1147.92 262.553V189.836L1084.95 226.196Z" fill="#F7F7F7"/>
<path d="M1210.9 226.196L1147.92 189.836V262.553L1210.9 226.196Z" fill="#F7F7F7"/>
<path d="M1210.89 153.478L1273.87 189.838V117.121L1210.89 153.478Z" fill="#E3E3E3"/>
<path d="M1273.92 189.837L1336.9 226.197V153.477L1273.92 189.837Z" fill="#E3E3E3"/>
<path d="M1336.84 153.478L1273.87 117.121V189.838L1336.84 153.478Z" fill="#F0F0F0"/>
<path d="M1273.87 189.837L1210.89 153.477V226.197L1273.87 189.837Z" fill="#F7F7F7"/>
<path d="M1210.89 226.196L1273.87 262.553V189.836L1210.89 226.196Z" fill="#D4D4D4"/>
<path d="M1336.84 226.196L1273.87 189.836V262.553L1336.84 226.196Z" fill="#F0F0F0"/>
<path d="M1336.84 153.478L1399.82 189.838V117.121L1336.84 153.478Z" fill="#E3E3E3"/>
<path d="M1399.87 189.837L1462.85 226.197V153.477L1399.87 189.837Z" fill="#F0F0F0"/>
<path d="M1462.79 153.478L1399.82 117.121V189.838L1462.79 153.478Z" fill="#F0F0F0"/>
<path d="M1399.82 189.837L1336.84 153.477V226.197L1399.82 189.837Z" fill="#F7F7F7"/>
<path d="M1336.84 226.196L1399.82 262.553V189.836L1336.84 226.196Z" fill="#E3E3E3"/>
<path d="M1462.79 226.196L1399.82 189.836V262.553L1462.79 226.196Z" fill="#F7F7F7"/>
<path d="M14.3594 262.564L77.3337 298.924V226.207L14.3594 262.564Z" fill="#D4D4D4"/>
<path d="M77.3867 298.923L140.361 335.279V262.562L77.3867 298.923Z" fill="#F0F0F0"/>
<path d="M140.31 262.564L77.332 226.207V298.924L140.31 262.564Z" fill="#E3E3E3"/>
<path d="M77.3337 298.923L14.3594 262.562V335.279L77.3337 298.923Z" fill="#D4D4D4"/>
<path d="M14.3594 335.279L77.3337 371.639V298.922L14.3594 335.279Z" fill="#F0F0F0"/>
<path d="M140.31 335.279L77.332 298.922V371.639L140.31 335.279Z" fill="#E3E3E3"/>
<path d="M140.309 262.564L203.283 298.924V226.207L140.309 262.564Z" fill="#E3E3E3"/>
<path d="M203.336 298.923L266.31 335.279V262.562L203.336 298.923Z" fill="#F0F0F0"/>
<path d="M266.256 262.564L203.281 226.207V298.924L266.256 262.564Z" fill="#F0F0F0"/>
<path d="M203.283 298.923L140.309 262.562V335.279L203.283 298.923Z" fill="#F7F7F7"/>
<path d="M140.309 335.279L203.283 371.639V298.922L140.309 335.279Z" fill="#F7F7F7"/>
<path d="M266.256 335.279L203.281 298.922V371.639L266.256 335.279Z" fill="#F7F7F7"/>
<path d="M266.258 262.564L329.235 298.924V226.207L266.258 262.564Z" fill="#E3E3E3"/>
<path d="M329.285 298.923L392.263 335.279V262.562L329.285 298.923Z" fill="#F0F0F0"/>
<path d="M392.209 262.564L329.234 226.207V298.924L392.209 262.564Z" fill="#E3E3E3"/>
<path d="M329.235 298.923L266.258 262.562V335.279L329.235 298.923Z" fill="#F0F0F0"/>
<path d="M266.258 335.279L329.235 371.639V298.922L266.258 335.279Z" fill="#E3E3E3"/>
<path d="M392.209 335.279L329.234 298.922V371.639L392.209 335.279Z" fill="#E3E3E3"/>
<path d="M392.211 262.564L455.185 298.924V226.207L392.211 262.564Z" fill="#D4D4D4"/>
<path d="M455.238 298.923L518.212 335.279V262.562L455.238 298.923Z" fill="#F0F0F0"/>
<path d="M518.165 262.564L455.188 226.207V298.924L518.165 262.564Z" fill="#E3E3E3"/>
<path d="M455.185 298.923L392.211 262.562V335.279L455.185 298.923Z" fill="#D4D4D4"/>
<path d="M392.211 335.279L455.185 371.639V298.922L392.211 335.279Z" fill="#F0F0F0"/>
<path d="M518.165 335.279L455.188 298.922V371.639L518.165 335.279Z" fill="#E3E3E3"/>
<path d="M518.164 262.564L581.138 298.924V226.207L518.164 262.564Z" fill="#F0F0F0"/>
<path d="M581.191 298.923L644.166 335.279V262.562L581.191 298.923Z" fill="#F0F0F0"/>
<path d="M644.111 262.564L581.137 226.207V298.924L644.111 262.564Z" fill="#D4D4D4"/>
<path d="M581.138 298.923L518.164 262.562V335.279L581.138 298.923Z" fill="#F0F0F0"/>
<path d="M518.164 335.279L581.138 371.639V298.922L518.164 335.279Z" fill="#F0F0F0"/>
<path d="M644.111 335.279L581.137 298.922V371.639L644.111 335.279Z" fill="#E3E3E3"/>
<path d="M644.113 262.564L707.091 298.924V226.207L644.113 262.564Z" fill="#F0F0F0"/>
<path d="M707.141 298.923L770.118 335.279V262.562L707.141 298.923Z" fill="#F7F7F7"/>
<path d="M770.06 262.564L707.086 226.207V298.924L770.06 262.564Z" fill="#F0F0F0"/>
<path d="M707.091 298.923L644.113 262.562V335.279L707.091 298.923Z" fill="#F7F7F7"/>
<path d="M644.113 335.279L707.091 371.639V298.922L644.113 335.279Z" fill="#F0F0F0"/>
<path d="M770.06 335.279L707.086 298.922V371.639L770.06 335.279Z" fill="#F7F7F7"/>
<path d="M770.062 262.564L833.037 298.924V226.207L770.062 262.564Z" fill="#F0F0F0"/>
<path d="M833.09 298.923L896.064 335.279V262.562L833.09 298.923Z" fill="#D4D4D4"/>
<path d="M896.017 262.564L833.039 226.207V298.924L896.017 262.564Z" fill="#E3E3E3"/>
<path d="M833.037 298.923L770.062 262.562V335.279L833.037 298.923Z" fill="#E3E3E3"/>
<path d="M770.062 335.279L833.037 371.639V298.922L770.062 335.279Z" fill="#F0F0F0"/>
<path d="M896.017 335.279L833.039 298.922V371.639L896.017 335.279Z" fill="#F7F7F7"/>
<path d="M896.016 262.564L958.99 298.924V226.207L896.016 262.564Z" fill="#F0F0F0"/>
<path d="M959.043 298.923L1022.02 335.279V262.562L959.043 298.923Z" fill="#E3E3E3"/>
<path d="M1021.97 262.564L958.992 226.207V298.924L1021.97 262.564Z" fill="#F0F0F0"/>
<path d="M958.99 298.923L896.016 262.562V335.279L958.99 298.923Z" fill="#F7F7F7"/>
<path d="M896.016 335.279L958.99 371.639V298.922L896.016 335.279Z" fill="#F0F0F0"/>
<path d="M1021.97 335.279L958.992 298.922V371.639L1021.97 335.279Z" fill="#F7F7F7"/>
<path d="M1021.97 262.564L1084.95 298.924V226.207L1021.97 262.564Z" fill="#F0F0F0"/>
<path d="M1085 298.923L1147.97 335.279V262.562L1085 298.923Z" fill="#F0F0F0"/>
<path d="M1147.92 262.564L1084.95 226.207V298.924L1147.92 262.564Z" fill="#F0F0F0"/>
<path d="M1084.95 298.923L1021.97 262.562V335.279L1084.95 298.923Z" fill="#F7F7F7"/>
<path d="M1021.97 335.279L1084.95 371.639V298.922L1021.97 335.279Z" fill="#F0F0F0"/>
<path d="M1147.92 335.279L1084.95 298.922V371.639L1147.92 335.279Z" fill="#F0F0F0"/>
<path d="M1147.92 262.564L1210.9 298.924V226.207L1147.92 262.564Z" fill="#F0F0F0"/>
<path d="M1210.95 298.923L1273.92 335.279V262.562L1210.95 298.923Z" fill="#F0F0F0"/>
<path d="M1273.87 262.564L1210.89 226.207V298.924L1273.87 262.564Z" fill="#D4D4D4"/>
<path d="M1210.9 298.923L1147.92 262.562V335.279L1210.9 298.923Z" fill="#F7F7F7"/>
<path d="M1147.92 335.279L1210.9 371.639V298.922L1147.92 335.279Z" fill="#F7F7F7"/>
<path d="M1273.87 335.279L1210.89 298.922V371.639L1273.87 335.279Z" fill="#F0F0F0"/>
<path d="M1273.87 262.564L1336.84 298.924V226.207L1273.87 262.564Z" fill="#F7F7F7"/>
<path d="M1336.9 298.923L1399.87 335.279V262.562L1336.9 298.923Z" fill="#E3E3E3"/>
<path d="M1399.82 262.564L1336.84 226.207V298.924L1399.82 262.564Z" fill="#F0F0F0"/>
<path d="M1336.84 298.923L1273.87 262.562V335.279L1336.84 298.923Z" fill="#D4D4D4"/>
<path d="M1273.87 335.279L1336.84 371.639V298.922L1273.87 335.279Z" fill="#F7F7F7"/>
<path d="M1399.82 335.279L1336.84 298.922V371.639L1399.82 335.279Z" fill="#F0F0F0"/>
<path d="M1399.82 262.564L1462.79 298.924V226.207L1399.82 262.564Z" fill="#F0F0F0"/>
<path d="M1462.79 298.923L1399.82 262.562V335.279L1462.79 298.923Z" fill="#D4D4D4"/>
<path d="M1399.82 335.279L1462.79 371.639V298.922L1399.82 335.279Z" fill="#F0F0F0"/>
<path d="M-48.6172 371.64L14.3604 408.001V335.28L-48.6172 371.64Z" fill="#F0F0F0"/>
<path d="M14.4102 408.001L77.3878 444.358V371.641L14.4102 408.001Z" fill="#E3E3E3"/>
<path d="M77.3337 371.64L14.3594 335.28V408.001L77.3337 371.64Z" fill="#F7F7F7"/>
<path d="M14.3604 408.001L-48.6172 371.641V444.358L14.3604 408.001Z" fill="#F0F0F0"/>
<path d="M-48.6172 444.353L14.3604 480.713V407.996L-48.6172 444.353Z" fill="#F7F7F7"/>
<path d="M77.3337 444.353L14.3594 407.996V480.713L77.3337 444.353Z" fill="#E3E3E3"/>
<path d="M77.332 371.641L140.31 408.002V335.281L77.332 371.641Z" fill="#E3E3E3"/>
<path d="M140.363 408.001L203.341 444.358V371.641L140.363 408.001Z" fill="#E3E3E3"/>
<path d="M203.283 371.641L140.309 335.281V408.002L203.283 371.641Z" fill="#F7F7F7"/>
<path d="M140.31 408.001L77.332 371.641V444.358L140.31 408.001Z" fill="#E3E3E3"/>
<path d="M77.332 444.353L140.31 480.713V407.996L77.332 444.353Z" fill="#F0F0F0"/>
<path d="M203.283 444.353L140.309 407.996V480.713L203.283 444.353Z" fill="#E3E3E3"/>
<path d="M203.281 371.641L266.256 408.002V335.281L203.281 371.641Z" fill="#E3E3E3"/>
<path d="M266.312 408.001L329.287 444.358V371.641L266.312 408.001Z" fill="#D4D4D4"/>
<path d="M329.235 371.641L266.258 335.281V408.002L329.235 371.641Z" fill="#E3E3E3"/>
<path d="M266.256 408.001L203.281 371.641V444.358L266.256 408.001Z" fill="#E3E3E3"/>
<path d="M203.281 444.353L266.256 480.713V407.996L203.281 444.353Z" fill="#D4D4D4"/>
<path d="M329.235 444.353L266.258 407.996V480.713L329.235 444.353Z" fill="#F0F0F0"/>
<path d="M329.234 371.64L392.209 408.001V335.28L329.234 371.64Z" fill="#F0F0F0"/>
<path d="M392.262 408.001L455.236 444.358V371.641L392.262 408.001Z" fill="#F0F0F0"/>
<path d="M455.185 371.64L392.211 335.28V408.001L455.185 371.64Z" fill="#E3E3E3"/>
<path d="M392.209 408.001L329.234 371.641V444.358L392.209 408.001Z" fill="#F0F0F0"/>
<path d="M329.234 444.353L392.209 480.713V407.996L329.234 444.353Z" fill="#E3E3E3"/>
<path d="M455.185 444.353L392.211 407.996V480.713L455.185 444.353Z" fill="#F0F0F0"/>
<path d="M455.188 371.64L518.165 408.001V335.28L455.188 371.64Z" fill="#E3E3E3"/>
<path d="M518.215 408.001L581.193 444.358V371.641L518.215 408.001Z" fill="#D4D4D4"/>
<path d="M581.138 371.64L518.164 335.28V408.001L581.138 371.64Z" fill="#F0F0F0"/>
<path d="M518.165 408.001L455.188 371.641V444.358L518.165 408.001Z" fill="#F0F0F0"/>
<path d="M455.188 444.353L518.165 480.713V407.996L455.188 444.353Z" fill="#F0F0F0"/>
<path d="M581.138 444.353L518.164 407.996V480.713L581.138 444.353Z" fill="#F7F7F7"/>
<path d="M581.137 371.64L644.111 408.001V335.28L581.137 371.64Z" fill="#F7F7F7"/>
<path d="M644.168 408.001L707.142 444.358V371.641L644.168 408.001Z" fill="#E3E3E3"/>
<path d="M707.091 371.641L644.113 335.281V408.002L707.091 371.641Z" fill="#E3E3E3"/>
<path d="M644.111 408.001L581.137 371.641V444.358L644.111 408.001Z" fill="#F7F7F7"/>
<path d="M581.137 444.353L644.111 480.713V407.996L581.137 444.353Z" fill="#F7F7F7"/>
<path d="M707.091 444.353L644.113 407.996V480.713L707.091 444.353Z" fill="#D4D4D4"/>
<path d="M707.086 371.641L770.06 408.002V335.281L707.086 371.641Z" fill="#E3E3E3"/>
<path d="M770.117 408.001L833.091 444.358V371.641L770.117 408.001Z" fill="#F0F0F0"/>
<path d="M833.037 371.641L770.062 335.281V408.002L833.037 371.641Z" fill="#E3E3E3"/>
<path d="M770.06 408.001L707.086 371.641V444.358L770.06 408.001Z" fill="#F7F7F7"/>
<path d="M707.086 444.353L770.06 480.713V407.996L707.086 444.353Z" fill="#D4D4D4"/>
<path d="M833.037 444.353L770.062 407.996V480.713L833.037 444.353Z" fill="#E3E3E3"/>
<path d="M833.039 371.64L896.017 408.001V335.28L833.039 371.64Z" fill="#D4D4D4"/>
<path d="M896.066 408.001L959.044 444.358V371.641L896.066 408.001Z" fill="#D4D4D4"/>
<path d="M958.99 371.64L896.016 335.28V408.001L958.99 371.64Z" fill="#E3E3E3"/>
<path d="M896.017 408.001L833.039 371.641V444.358L896.017 408.001Z" fill="#F0F0F0"/>
<path d="M833.039 444.353L896.017 480.713V407.996L833.039 444.353Z" fill="#F0F0F0"/>
<path d="M958.99 444.353L896.016 407.996V480.713L958.99 444.353Z" fill="#F0F0F0"/>
<path d="M958.992 371.64L1021.97 408.001V335.28L958.992 371.64Z" fill="#F0F0F0"/>
<path d="M1022.02 408.001L1084.99 444.358V371.641L1022.02 408.001Z" fill="#F7F7F7"/>
<path d="M1084.95 371.64L1021.97 335.28V408.001L1084.95 371.64Z" fill="#D4D4D4"/>
<path d="M1021.97 408.001L958.992 371.641V444.358L1021.97 408.001Z" fill="#F0F0F0"/>
<path d="M958.992 444.353L1021.97 480.713V407.996L958.992 444.353Z" fill="#F7F7F7"/>
<path d="M1084.95 444.353L1021.97 407.996V480.713L1084.95 444.353Z" fill="#D4D4D4"/>
<path d="M1084.95 371.64L1147.92 408.001V335.28L1084.95 371.64Z" fill="#F7F7F7"/>
<path d="M1147.97 408.001L1210.95 444.358V371.641L1147.97 408.001Z" fill="#E3E3E3"/>
<path d="M1210.9 371.641L1147.92 335.281V408.002L1210.9 371.641Z" fill="#E3E3E3"/>
<path d="M1147.92 408.001L1084.95 371.641V444.358L1147.92 408.001Z" fill="#F7F7F7"/>
<path d="M1084.95 444.353L1147.92 480.713V407.996L1084.95 444.353Z" fill="#F0F0F0"/>
<path d="M1210.9 444.353L1147.92 407.996V480.713L1210.9 444.353Z" fill="#E3E3E3"/>
<path d="M1210.89 371.641L1273.87 408.002V335.281L1210.89 371.641Z" fill="#E3E3E3"/>
<path d="M1273.92 408.001L1336.9 444.358V371.641L1273.92 408.001Z" fill="#D4D4D4"/>
<path d="M1336.84 371.641L1273.87 335.281V408.002L1336.84 371.641Z" fill="#D4D4D4"/>
<path d="M1273.87 408.001L1210.89 371.641V444.358L1273.87 408.001Z" fill="#D4D4D4"/>
<path d="M1210.89 444.353L1273.87 480.713V407.996L1210.89 444.353Z" fill="#F7F7F7"/>
<path d="M1336.84 444.353L1273.87 407.996V480.713L1336.84 444.353Z" fill="#F0F0F0"/>
<path d="M1336.84 371.641L1399.82 408.002V335.281L1336.84 371.641Z" fill="#F0F0F0"/>
<path d="M1399.87 408.001L1462.85 444.358V371.641L1399.87 408.001Z" fill="#D4D4D4"/>
<path d="M1462.79 371.64L1399.82 335.28V408.001L1462.79 371.64Z" fill="#F7F7F7"/>
<path d="M1399.82 408.001L1336.84 371.641V444.358L1399.82 408.001Z" fill="#E3E3E3"/>
<path d="M1336.84 444.353L1399.82 480.713V407.996L1336.84 444.353Z" fill="#E3E3E3"/>
<path d="M1462.79 444.353L1399.82 407.996V480.713L1462.79 444.353Z" fill="#F0F0F0"/>
<path d="M14.3594 480.712L77.3337 517.072V444.352L14.3594 480.712Z" fill="#F7F7F7"/>
<path d="M77.3867 517.071L140.361 553.427V480.71L77.3867 517.071Z" fill="#F0F0F0"/>
<path d="M140.31 480.712L77.332 444.352V517.072L140.31 480.712Z" fill="#E3E3E3"/>
<path d="M77.3337 517.071L14.3594 480.71V553.427L77.3337 517.071Z" fill="#D4D4D4"/>
<path d="M14.3594 553.427L77.3337 589.787V517.07L14.3594 553.427Z" fill="#F7F7F7"/>
<path d="M140.31 553.427L77.332 517.07V589.787L140.31 553.427Z" fill="#F0F0F0"/>
<path d="M140.309 480.712L203.283 517.072V444.352L140.309 480.712Z" fill="#D4D4D4"/>
<path d="M203.336 517.071L266.31 553.428V480.711L203.336 517.071Z" fill="#D4D4D4"/>
<path d="M266.256 480.712L203.281 444.352V517.072L266.256 480.712Z" fill="#E3E3E3"/>
<path d="M203.283 517.071L140.309 480.711V553.428L203.283 517.071Z" fill="#E3E3E3"/>
<path d="M140.309 553.427L203.283 589.787V517.07L140.309 553.427Z" fill="#E3E3E3"/>
<path d="M266.256 553.427L203.281 517.07V589.787L266.256 553.427Z" fill="#E3E3E3"/>
<path d="M266.258 480.712L329.235 517.072V444.352L266.258 480.712Z" fill="#E3E3E3"/>
<path d="M329.285 517.071L392.263 553.428V480.711L329.285 517.071Z" fill="#E3E3E3"/>
<path d="M392.209 480.712L329.234 444.352V517.072L392.209 480.712Z" fill="#F7F7F7"/>
<path d="M329.235 517.071L266.258 480.711V553.428L329.235 517.071Z" fill="#E3E3E3"/>
<path d="M266.258 553.427L329.235 589.787V517.07L266.258 553.427Z" fill="#F0F0F0"/>
<path d="M392.209 553.427L329.234 517.07V589.787L392.209 553.427Z" fill="#E3E3E3"/>
<path d="M392.211 480.712L455.185 517.072V444.352L392.211 480.712Z" fill="#F0F0F0"/>
<path d="M455.238 517.071L518.212 553.427V480.71L455.238 517.071Z" fill="#F0F0F0"/>
<path d="M518.165 480.712L455.188 444.352V517.072L518.165 480.712Z" fill="#E3E3E3"/>
<path d="M455.185 517.071L392.211 480.71V553.427L455.185 517.071Z" fill="#D4D4D4"/>
<path d="M392.211 553.427L455.185 589.787V517.07L392.211 553.427Z" fill="#F0F0F0"/>
<path d="M518.165 553.427L455.188 517.07V589.787L518.165 553.427Z" fill="#E3E3E3"/>
<path d="M518.164 480.712L581.138 517.072V444.352L518.164 480.712Z" fill="#E3E3E3"/>
<path d="M581.191 517.071L644.166 553.427V480.71L581.191 517.071Z" fill="#E3E3E3"/>
<path d="M644.111 480.712L581.137 444.352V517.072L644.111 480.712Z" fill="#E3E3E3"/>
<path d="M581.138 517.071L518.164 480.71V553.427L581.138 517.071Z" fill="#E3E3E3"/>
<path d="M518.164 553.427L581.138 589.787V517.07L518.164 553.427Z" fill="#F0F0F0"/>
<path d="M644.111 553.427L581.137 517.07V589.787L644.111 553.427Z" fill="#E3E3E3"/>
<path d="M644.113 480.712L707.091 517.072V444.352L644.113 480.712Z" fill="#F0F0F0"/>
<path d="M707.141 517.071L770.118 553.428V480.711L707.141 517.071Z" fill="#F0F0F0"/>
<path d="M770.06 480.712L707.086 444.352V517.072L770.06 480.712Z" fill="#F7F7F7"/>
<path d="M707.091 517.071L644.113 480.711V553.428L707.091 517.071Z" fill="#E3E3E3"/>
<path d="M644.113 553.427L707.091 589.787V517.07L644.113 553.427Z" fill="#E3E3E3"/>
<path d="M770.06 553.427L707.086 517.07V589.787L770.06 553.427Z" fill="#F0F0F0"/>
<path d="M770.062 480.712L833.037 517.072V444.352L770.062 480.712Z" fill="#E3E3E3"/>
<path d="M833.09 517.071L896.064 553.428V480.711L833.09 517.071Z" fill="#F0F0F0"/>
<path d="M896.017 480.712L833.039 444.352V517.072L896.017 480.712Z" fill="#E3E3E3"/>
<path d="M833.037 517.071L770.062 480.711V553.428L833.037 517.071Z" fill="#F0F0F0"/>
<path d="M770.062 553.427L833.037 589.787V517.07L770.062 553.427Z" fill="#F0F0F0"/>
<path d="M896.017 553.427L833.039 517.07V589.787L896.017 553.427Z" fill="#E3E3E3"/>
<path d="M896.016 480.712L958.99 517.072V444.352L896.016 480.712Z" fill="#D4D4D4"/>
<path d="M959.043 517.071L1022.02 553.427V480.71L959.043 517.071Z" fill="#F0F0F0"/>
<path d="M1021.97 480.712L958.992 444.352V517.072L1021.97 480.712Z" fill="#F7F7F7"/>
<path d="M958.99 517.071L896.016 480.71V553.427L958.99 517.071Z" fill="#F0F0F0"/>
<path d="M896.016 553.427L958.99 589.787V517.07L896.016 553.427Z" fill="#F7F7F7"/>
<path d="M1021.97 553.427L958.992 517.07V589.787L1021.97 553.427Z" fill="#E3E3E3"/>
<path d="M1021.97 480.712L1084.95 517.072V444.352L1021.97 480.712Z" fill="#F0F0F0"/>
<path d="M1085 517.071L1147.97 553.427V480.71L1085 517.071Z" fill="#F7F7F7"/>
<path d="M1147.92 480.712L1084.95 444.352V517.072L1147.92 480.712Z" fill="#F7F7F7"/>
<path d="M1084.95 517.071L1021.97 480.71V553.427L1084.95 517.071Z" fill="#D4D4D4"/>
<path d="M1021.97 553.427L1084.95 589.787V517.07L1021.97 553.427Z" fill="#E3E3E3"/>
<path d="M1147.92 553.427L1084.95 517.07V589.787L1147.92 553.427Z" fill="#F7F7F7"/>
<path d="M1147.92 480.712L1210.9 517.072V444.352L1147.92 480.712Z" fill="#E3E3E3"/>
<path d="M1210.95 517.071L1273.92 553.427V480.71L1210.95 517.071Z" fill="#E3E3E3"/>
<path d="M1273.87 480.712L1210.89 444.352V517.072L1273.87 480.712Z" fill="#E3E3E3"/>
<path d="M1210.9 517.071L1147.92 480.711V553.428L1210.9 517.071Z" fill="#E3E3E3"/>
<path d="M1147.92 553.427L1210.9 589.787V517.07L1147.92 553.427Z" fill="#F0F0F0"/>
<path d="M1273.87 553.427L1210.89 517.07V589.787L1273.87 553.427Z" fill="#E3E3E3"/>
<path d="M1273.87 480.712L1336.84 517.072V444.352L1273.87 480.712Z" fill="#F7F7F7"/>
<path d="M1336.9 517.071L1399.87 553.428V480.711L1336.9 517.071Z" fill="#D4D4D4"/>
<path d="M1399.82 480.712L1336.84 444.352V517.072L1399.82 480.712Z" fill="#E3E3E3"/>
<path d="M1336.84 517.071L1273.87 480.711V553.428L1336.84 517.071Z" fill="#E3E3E3"/>
<path d="M1273.87 553.427L1336.84 589.787V517.07L1273.87 553.427Z" fill="#E3E3E3"/>
<path d="M1399.82 553.427L1336.84 517.07V589.787L1399.82 553.427Z" fill="#D4D4D4"/>
<path d="M1399.82 480.712L1462.79 517.072V444.352L1399.82 480.712Z" fill="#D4D4D4"/>
<path d="M1462.79 517.071L1399.82 480.71V553.427L1462.79 517.071Z" fill="#F0F0F0"/>
<path d="M1399.82 553.427L1462.79 589.787V517.07L1399.82 553.427Z" fill="#F0F0F0"/>
<path d="M-48.6172 589.786L14.3604 626.143V553.426L-48.6172 589.786Z" fill="#F0F0F0"/>
<path d="M14.4102 626.142L77.3878 662.503V589.786L14.4102 626.142Z" fill="#F7F7F7"/>
<path d="M77.3337 589.786L14.3594 553.426V626.143L77.3337 589.786Z" fill="#E3E3E3"/>
<path d="M14.3604 626.142L-48.6172 589.786V662.503L14.3604 626.142Z" fill="#F0F0F0"/>
<path d="M-48.6172 662.5L14.3604 698.86V626.14L-48.6172 662.5Z" fill="#F0F0F0"/>
<path d="M77.3337 662.5L14.3594 626.14V698.86L77.3337 662.5Z" fill="#F0F0F0"/>
<path d="M77.332 589.786L140.31 626.143V553.426L77.332 589.786Z" fill="#D4D4D4"/>
<path d="M140.363 626.142L203.341 662.502V589.785L140.363 626.142Z" fill="#F0F0F0"/>
<path d="M203.283 589.786L140.309 553.426V626.143L203.283 589.786Z" fill="#F7F7F7"/>
<path d="M140.31 626.142L77.332 589.785V662.502L140.31 626.142Z" fill="#F0F0F0"/>
<path d="M77.332 662.501L140.31 698.861V626.141L77.332 662.501Z" fill="#F0F0F0"/>
<path d="M203.283 662.501L140.309 626.141V698.861L203.283 662.501Z" fill="#F0F0F0"/>
<path d="M203.281 589.786L266.256 626.143V553.426L203.281 589.786Z" fill="#F0F0F0"/>
<path d="M266.312 626.142L329.287 662.502V589.785L266.312 626.142Z" fill="#F7F7F7"/>
<path d="M329.235 589.786L266.258 553.426V626.143L329.235 589.786Z" fill="#D4D4D4"/>
<path d="M266.256 626.142L203.281 589.785V662.502L266.256 626.142Z" fill="#F0F0F0"/>
<path d="M203.281 662.501L266.256 698.861V626.141L203.281 662.501Z" fill="#E3E3E3"/>
<path d="M329.235 662.501L266.258 626.141V698.861L329.235 662.501Z" fill="#F0F0F0"/>
<path d="M329.234 589.786L392.209 626.143V553.426L329.234 589.786Z" fill="#D4D4D4"/>
<path d="M392.262 626.142L455.236 662.502V589.785L392.262 626.142Z" fill="#D4D4D4"/>
<path d="M455.185 589.786L392.211 553.426V626.143L455.185 589.786Z" fill="#D4D4D4"/>
<path d="M392.209 626.142L329.234 589.786V662.503L392.209 626.142Z" fill="#E3E3E3"/>
<path d="M329.234 662.5L392.209 698.86V626.14L329.234 662.5Z" fill="#D4D4D4"/>
<path d="M455.185 662.5L392.211 626.14V698.86L455.185 662.5Z" fill="#D4D4D4"/>
<path d="M455.188 589.786L518.165 626.143V553.426L455.188 589.786Z" fill="#F7F7F7"/>
<path d="M518.215 626.142L581.193 662.503V589.786L518.215 626.142Z" fill="#F7F7F7"/>
<path d="M581.138 589.786L518.164 553.426V626.143L581.138 589.786Z" fill="#D4D4D4"/>
<path d="M518.165 626.142L455.188 589.786V662.503L518.165 626.142Z" fill="#D4D4D4"/>
<path d="M455.188 662.5L518.165 698.86V626.14L455.188 662.5Z" fill="#E3E3E3"/>
<path d="M581.138 662.5L518.164 626.14V698.86L581.138 662.5Z" fill="#F0F0F0"/>
<path d="M581.137 589.786L644.111 626.143V553.426L581.137 589.786Z" fill="#E3E3E3"/>
<path d="M644.168 626.142L707.142 662.503V589.786L644.168 626.142Z" fill="#E3E3E3"/>
<path d="M707.091 589.786L644.113 553.426V626.143L707.091 589.786Z" fill="#F7F7F7"/>
<path d="M644.111 626.142L581.137 589.786V662.503L644.111 626.142Z" fill="#F7F7F7"/>
<path d="M581.137 662.5L644.111 698.86V626.14L581.137 662.5Z" fill="#D4D4D4"/>
<path d="M707.091 662.501L644.113 626.141V698.861L707.091 662.501Z" fill="#F0F0F0"/>
<path d="M707.086 589.786L770.06 626.143V553.426L707.086 589.786Z" fill="#F0F0F0"/>
<path d="M770.117 626.142L833.091 662.502V589.785L770.117 626.142Z" fill="#F0F0F0"/>
<path d="M833.037 589.786L770.062 553.426V626.143L833.037 589.786Z" fill="#F7F7F7"/>
<path d="M770.06 626.142L707.086 589.785V662.502L770.06 626.142Z" fill="#F7F7F7"/>
<path d="M707.086 662.501L770.06 698.861V626.141L707.086 662.501Z" fill="#F0F0F0"/>
<path d="M833.037 662.501L770.062 626.141V698.861L833.037 662.501Z" fill="#F0F0F0"/>
<path d="M833.039 589.786L896.017 626.143V553.426L833.039 589.786Z" fill="#F0F0F0"/>
<path d="M896.066 626.142L959.044 662.502V589.785L896.066 626.142Z" fill="#E3E3E3"/>
<path d="M958.99 589.786L896.016 553.426V626.143L958.99 589.786Z" fill="#E3E3E3"/>
<path d="M896.017 626.142L833.039 589.786V662.503L896.017 626.142Z" fill="#F7F7F7"/>
<path d="M833.039 662.5L896.017 698.86V626.14L833.039 662.5Z" fill="#E3E3E3"/>
<path d="M958.99 662.5L896.016 626.14V698.86L958.99 662.5Z" fill="#F0F0F0"/>
<path d="M958.992 589.786L1021.97 626.143V553.426L958.992 589.786Z" fill="#E3E3E3"/>
<path d="M1022.02 626.142L1084.99 662.503V589.786L1022.02 626.142Z" fill="#E3E3E3"/>
<path d="M1084.95 589.786L1021.97 553.426V626.143L1084.95 589.786Z" fill="#F0F0F0"/>
<path d="M1021.97 626.142L958.992 589.786V662.503L1021.97 626.142Z" fill="#D4D4D4"/>
<path d="M958.992 662.5L1021.97 698.86V626.14L958.992 662.5Z" fill="#E3E3E3"/>
<path d="M1084.95 662.5L1021.97 626.14V698.86L1084.95 662.5Z" fill="#E3E3E3"/>
<path d="M1084.95 589.786L1147.92 626.143V553.426L1084.95 589.786Z" fill="#E3E3E3"/>
<path d="M1147.97 626.142L1210.95 662.503V589.786L1147.97 626.142Z" fill="#F0F0F0"/>
<path d="M1210.9 589.786L1147.92 553.426V626.143L1210.9 589.786Z" fill="#F0F0F0"/>
<path d="M1147.92 626.142L1084.95 589.786V662.503L1147.92 626.142Z" fill="#F0F0F0"/>
<path d="M1084.95 662.5L1147.92 698.86V626.14L1084.95 662.5Z" fill="#D4D4D4"/>
<path d="M1210.9 662.501L1147.92 626.141V698.861L1210.9 662.501Z" fill="#F0F0F0"/>
<path d="M1210.89 589.786L1273.87 626.143V553.426L1210.89 589.786Z" fill="#F7F7F7"/>
<path d="M1273.92 626.142L1336.9 662.502V589.785L1273.92 626.142Z" fill="#E3E3E3"/>
<path d="M1336.84 589.786L1273.87 553.426V626.143L1336.84 589.786Z" fill="#D4D4D4"/>
<path d="M1273.87 626.142L1210.89 589.785V662.502L1273.87 626.142Z" fill="#F0F0F0"/>
<path d="M1210.89 662.501L1273.87 698.861V626.141L1210.89 662.501Z" fill="#E3E3E3"/>
<path d="M1336.84 662.501L1273.87 626.141V698.861L1336.84 662.501Z" fill="#F0F0F0"/>
<path d="M1336.84 589.786L1399.82 626.143V553.426L1336.84 589.786Z" fill="#E3E3E3"/>
<path d="M1399.87 626.142L1462.85 662.502V589.785L1399.87 626.142Z" fill="#F0F0F0"/>
<path d="M1462.79 589.786L1399.82 553.426V626.143L1462.79 589.786Z" fill="#E3E3E3"/>
<path d="M1399.82 626.142L1336.84 589.785V662.502L1399.82 626.142Z" fill="#F7F7F7"/>
<path d="M1336.84 662.501L1399.82 698.861V626.141L1336.84 662.501Z" fill="#E3E3E3"/>
<path d="M1462.79 662.5L1399.82 626.14V698.86L1462.79 662.5Z" fill="#E3E3E3"/>
<path d="M14.3594 698.872L77.3337 735.229V662.512L14.3594 698.872Z" fill="#E3E3E3"/>
<path d="M77.3867 735.228L140.361 771.588V698.872L77.3867 735.228Z" fill="#F7F7F7"/>
<path d="M140.31 698.872L77.332 662.512V735.229L140.31 698.872Z" fill="#D4D4D4"/>
<path d="M77.3337 735.228L14.3594 698.872V771.588L77.3337 735.228Z" fill="#D4D4D4"/>
<path d="M14.3594 771.59L77.3337 807.95V735.23L14.3594 771.59Z" fill="#E3E3E3"/>
<path d="M140.31 771.591L77.332 735.23V807.951L140.31 771.591Z" fill="#E3E3E3"/>
<path d="M140.309 698.872L203.283 735.229V662.512L140.309 698.872Z" fill="#F7F7F7"/>
<path d="M203.336 735.228L266.31 771.588V698.871L203.336 735.228Z" fill="#E3E3E3"/>
<path d="M266.256 698.872L203.281 662.512V735.229L266.256 698.872Z" fill="#F0F0F0"/>
<path d="M203.283 735.228L140.309 698.871V771.588L203.283 735.228Z" fill="#E3E3E3"/>
<path d="M140.309 771.591L203.283 807.951V735.23L140.309 771.591Z" fill="#F7F7F7"/>
<path d="M266.256 771.591L203.281 735.23V807.951L266.256 771.591Z" fill="#F0F0F0"/>
<path d="M266.258 698.872L329.235 735.229V662.512L266.258 698.872Z" fill="#E3E3E3"/>
<path d="M329.285 735.228L392.263 771.588V698.871L329.285 735.228Z" fill="#F0F0F0"/>
<path d="M392.209 698.872L329.234 662.512V735.229L392.209 698.872Z" fill="#D4D4D4"/>
<path d="M329.235 735.228L266.258 698.871V771.588L329.235 735.228Z" fill="#F0F0F0"/>
<path d="M266.258 771.591L329.235 807.951V735.23L266.258 771.591Z" fill="#D4D4D4"/>
<path d="M392.209 771.59L329.234 735.23V807.95L392.209 771.59Z" fill="#F0F0F0"/>
<path d="M392.211 698.872L455.185 735.229V662.512L392.211 698.872Z" fill="#E3E3E3"/>
<path d="M455.238 735.228L518.212 771.588V698.872L455.238 735.228Z" fill="#D4D4D4"/>
<path d="M518.165 698.872L455.188 662.512V735.229L518.165 698.872Z" fill="#F7F7F7"/>
<path d="M455.185 735.228L392.211 698.872V771.588L455.185 735.228Z" fill="#D4D4D4"/>
<path d="M392.211 771.59L455.185 807.95V735.23L392.211 771.59Z" fill="#E3E3E3"/>
<path d="M518.165 771.59L455.188 735.23V807.95L518.165 771.59Z" fill="#F0F0F0"/>
<path d="M518.164 698.872L581.138 735.229V662.512L518.164 698.872Z" fill="#E3E3E3"/>
<path d="M581.191 735.228L644.166 771.588V698.872L581.191 735.228Z" fill="#E3E3E3"/>
<path d="M644.111 698.872L581.137 662.512V735.229L644.111 698.872Z" fill="#E3E3E3"/>
<path d="M581.138 735.228L518.164 698.872V771.588L581.138 735.228Z" fill="#F0F0F0"/>
<path d="M518.164 771.59L581.138 807.95V735.23L518.164 771.59Z" fill="#F7F7F7"/>
<path d="M644.111 771.59L581.137 735.23V807.95L644.111 771.59Z" fill="#D4D4D4"/>
<path d="M644.113 698.872L707.091 735.229V662.512L644.113 698.872Z" fill="#F7F7F7"/>
<path d="M707.141 735.228L770.118 771.588V698.871L707.141 735.228Z" fill="#F0F0F0"/>
<path d="M770.06 698.872L707.086 662.512V735.229L770.06 698.872Z" fill="#F0F0F0"/>
<path d="M707.091 735.228L644.113 698.871V771.588L707.091 735.228Z" fill="#D4D4D4"/>
<path d="M644.113 771.591L707.091 807.951V735.23L644.113 771.591Z" fill="#E3E3E3"/>
<path d="M770.06 771.591L707.086 735.23V807.951L770.06 771.591Z" fill="#E3E3E3"/>
<path d="M770.062 698.872L833.037 735.229V662.512L770.062 698.872Z" fill="#E3E3E3"/>
<path d="M833.09 735.228L896.064 771.588V698.871L833.09 735.228Z" fill="#F0F0F0"/>
<path d="M896.017 698.872L833.039 662.512V735.229L896.017 698.872Z" fill="#E3E3E3"/>
<path d="M833.037 735.228L770.062 698.871V771.588L833.037 735.228Z" fill="#D4D4D4"/>
<path d="M770.062 771.591L833.037 807.951V735.23L770.062 771.591Z" fill="#E3E3E3"/>
<path d="M896.017 771.59L833.039 735.23V807.95L896.017 771.59Z" fill="#E3E3E3"/>
<path d="M896.016 698.872L958.99 735.229V662.512L896.016 698.872Z" fill="#F0F0F0"/>
<path d="M959.043 735.228L1022.02 771.588V698.872L959.043 735.228Z" fill="#D4D4D4"/>
<path d="M1021.97 698.872L958.992 662.512V735.229L1021.97 698.872Z" fill="#F0F0F0"/>
<path d="M958.99 735.228L896.016 698.872V771.588L958.99 735.228Z" fill="#E3E3E3"/>
<path d="M896.016 771.59L958.99 807.95V735.23L896.016 771.59Z" fill="#F7F7F7"/>
<path d="M1021.97 771.59L958.992 735.23V807.95L1021.97 771.59Z" fill="#D4D4D4"/>
<path d="M1021.97 698.872L1084.95 735.229V662.512L1021.97 698.872Z" fill="#D4D4D4"/>
<path d="M1085 735.228L1147.97 771.588V698.872L1085 735.228Z" fill="#F0F0F0"/>
<path d="M1147.92 698.872L1084.95 662.512V735.229L1147.92 698.872Z" fill="#F0F0F0"/>
<path d="M1084.95 735.228L1021.97 698.872V771.588L1084.95 735.228Z" fill="#F0F0F0"/>
<path d="M1021.97 771.59L1084.95 807.95V735.23L1021.97 771.59Z" fill="#D4D4D4"/>
<path d="M1147.92 771.59L1084.95 735.23V807.95L1147.92 771.59Z" fill="#F0F0F0"/>
<path d="M1147.92 698.872L1210.9 735.229V662.512L1147.92 698.872Z" fill="#E3E3E3"/>
<path d="M1210.95 735.228L1273.92 771.588V698.872L1210.95 735.228Z" fill="#E3E3E3"/>
<path d="M1273.87 698.872L1210.89 662.512V735.229L1273.87 698.872Z" fill="#D4D4D4"/>
<path d="M1210.9 735.228L1147.92 698.871V771.588L1210.9 735.228Z" fill="#F0F0F0"/>
<path d="M1147.92 771.591L1210.9 807.951V735.23L1147.92 771.591Z" fill="#E3E3E3"/>
<path d="M1273.87 771.591L1210.89 735.23V807.951L1273.87 771.591Z" fill="#F0F0F0"/>
<path d="M1273.87 698.872L1336.84 735.229V662.512L1273.87 698.872Z" fill="#F7F7F7"/>
<path d="M1336.9 735.228L1399.87 771.588V698.871L1336.9 735.228Z" fill="#F0F0F0"/>
<path d="M1399.82 698.872L1336.84 662.512V735.229L1399.82 698.872Z" fill="#F0F0F0"/>
<path d="M1336.84 735.228L1273.87 698.871V771.588L1336.84 735.228Z" fill="#D4D4D4"/>
<path d="M1273.87 771.591L1336.84 807.951V735.23L1273.87 771.591Z" fill="#D4D4D4"/>
<path d="M1399.82 771.591L1336.84 735.23V807.951L1399.82 771.591Z" fill="#F7F7F7"/>
<path d="M1399.82 698.872L1462.79 735.229V662.512L1399.82 698.872Z" fill="#D4D4D4"/>
<path d="M1462.79 735.228L1399.82 698.872V771.588L1462.79 735.228Z" fill="#F0F0F0"/>
<path d="M1399.82 771.59L1462.79 807.95V735.23L1399.82 771.59Z" fill="#E3E3E3"/>
<path style="mix-blend-mode:multiply" d="M1378.95 904.06C1281.61 889.553 975.76 744.172 627.001 543.206C278.241 342.24 -0.908104 150.527 -62.2695 73.5859L1378.95 904.06Z" fill="url(#paint0_radial_293_10807)"/>
<path style="mix-blend-mode:multiply" d="M1760.97 688.962C1663.63 674.455 1357.78 529.075 1009.02 328.109C660.265 127.143 381.116 -64.5707 319.754 -141.512L1760.97 688.962Z" fill="url(#paint1_radial_293_10807)"/>
<path style="mix-blend-mode:multiply" d="M956.041 82.9336C894.709 159.898 615.632 351.718 266.949 552.817C-81.734 753.915 -387.527 899.412 -484.859 913.956L956.041 82.9336Z" fill="url(#paint2_radial_293_10807)"/>
<path style="mix-blend-mode:multiply" d="M1241.63 -590.895C1180.3 -513.93 901.226 -322.111 552.543 -121.012C203.86 80.0873 -101.933 225.584 -199.266 240.128L1241.63 -590.895Z" fill="url(#paint3_radial_293_10807)"/>
<path style="mix-blend-mode:screen" d="M1475.68 -140.43H-21.9648V879.566H1475.68V-140.43Z" fill="url(#paint4_linear_293_10807)"/>
</g>
</g>
<defs>
<radialGradient id="paint0_radial_293_10807" cx="0" cy="0" r="1" gradientUnits="userSpaceOnUse" gradientTransform="translate(668.155 471.79) rotate(29.9516) scale(856.241 82.4332)">
<stop stop-color="#B3B3B3"/>
<stop offset="0.08893" stop-color="#C0C0C0"/>
<stop offset="0.31305" stop-color="#DCDCDC"/>
<stop offset="0.53945" stop-color="#EFEFEF"/>
<stop offset="0.76758" stop-color="#FBFBFB"/>
<stop offset="1" stop-color="white"/>
</radialGradient>
<radialGradient id="paint1_radial_293_10807" cx="0" cy="0" r="1" gradientUnits="userSpaceOnUse" gradientTransform="translate(556001 -3.48187e+06) scale(117613 67772)">
<stop stop-color="#B3B3B3"/>
<stop offset="0.08893" stop-color="#C0C0C0"/>
<stop offset="0.31305" stop-color="#DCDCDC"/>
<stop offset="0.53945" stop-color="#EFEFEF"/>
<stop offset="0.76758" stop-color="#FBFBFB"/>
<stop offset="1" stop-color="white"/>
</radialGradient>
<radialGradient id="paint2_radial_293_10807" cx="0" cy="0" r="1" gradientUnits="userSpaceOnUse" gradientTransform="translate(496001 962815) rotate(-29.9745) scale(368638 20465.8)">
<stop stop-color="#B3B3B3"/>
<stop offset="0.08893" stop-color="#C0C0C0"/>
<stop offset="0.31305" stop-color="#DCDCDC"/>
<stop offset="0.53945" stop-color="#EFEFEF"/>
<stop offset="0.76758" stop-color="#FBFBFB"/>
<stop offset="1" stop-color="white"/>
</radialGradient>
<radialGradient id="paint3_radial_293_10807" cx="0" cy="0" r="1" gradientUnits="userSpaceOnUse" gradientTransform="translate(659993 742054) rotate(-29.9745) scale(368638 20465.8)">
<stop stop-color="#B3B3B3"/>
<stop offset="0.08893" stop-color="#C0C0C0"/>
<stop offset="0.31305" stop-color="#DCDCDC"/>
<stop offset="0.53945" stop-color="#EFEFEF"/>
<stop offset="0.76758" stop-color="#FBFBFB"/>
<stop offset="1" stop-color="white"/>
</radialGradient>
<linearGradient id="paint4_linear_293_10807" x1="1476.64" y1="1119.35" x2="254.431" y2="-102.857" gradientUnits="userSpaceOnUse">
<stop/>
<stop offset="0.25513" stop-color="#2F2F2F"/>
<stop offset="0.83186" stop-color="#A4A4A4"/>
<stop offset="1" stop-color="#C7C7C7"/>
</linearGradient>
<clipPath id="clip0_293_10807">
<rect width="1440" height="746" fill="white"/>
</clipPath>
<clipPath id="clip1_293_10807">
<rect width="1486" height="1017.44" fill="white" transform="translate(-23 -135.719)"/>
</clipPath>
</defs>
</svg>
