<?xml version="1.0" standalone="no"?>
<!DOCTYPE svg PUBLIC "-//W3C//DTD SVG 20010904//EN"
 "http://www.w3.org/TR/2001/REC-SVG-20010904/DTD/svg10.dtd">
<svg version="1.0" xmlns="http://www.w3.org/2000/svg"
 width="1280.000000pt" height="1280.000000pt" viewBox="0 0 1280.000000 1280.000000"
 preserveAspectRatio="xMidYMid meet">
<metadata>
Created by potrace 1.14, written by Peter Selinger 2001-2017
</metadata>
<g transform="translate(0.000000,1280.000000) scale(0.100000,-0.100000)"
fill="#000000" stroke="none">
<path d="M0 6400 l0 -6400 2605 0 2605 0 0 515 0 515 -160 0 -160 0 0 1125 0
1125 160 0 160 0 0 -160 0 -160 480 0 480 0 0 160 0 160 165 0 165 0 0 -160 0
-160 320 0 320 0 -2 -163 -3 -162 -317 -3 -318 -2 0 -399 c0 -219 -3 -506 -7
-639 l-6 -242 321 0 c176 0 322 -3 324 -7 2 -5 2 -77 0 -160 l-3 -153 -160 0
-160 0 2 -32 c1 -18 1 -90 0 -160 l-1 -128 -159 0 c-157 0 -158 0 -158 -22 -1
-13 -1 -85 -2 -160 l-1 -137 -157 -3 -158 -3 -3 -192 -2 -193 435 0 435 0 0
165 0 165 533 -2 532 -3 -4 -162 -4 -163 192 0 191 0 0 165 0 165 533 -2 532
-3 -4 -162 -4 -163 192 0 191 0 0 165 0 165 1243 -2 1242 -3 5 -165 6 -165 4
125 c3 69 4 144 4 167 0 23 3 40 8 37 4 -3 8 -77 8 -165 l0 -159 180 0 180 0
0 6400 0 6400 -6400 0 -6400 0 0 -6400z m4687 6107 c2 -3 4 -67 4 -143 l0
-139 -143 0 -143 0 -3 139 c-1 79 1 142 7 145 11 7 271 5 278 -2z m5484 -2 c0
-5 0 -71 0 -145 l0 -135 -142 0 -141 0 1 139 c1 77 4 142 6 145 6 11 275 7
276 -4z m-3978 -614 c1 -315 -1 -481 -8 -481 -98 -2 -940 1 -942 4 -2 1 -6
212 -10 469 -4 327 -3 470 5 479 8 10 106 13 482 11 l471 -2 2 -480z m-976
306 c-2 -23 -3 -1 -3 48 0 50 1 68 3 42 2 -26 2 -67 0 -90z m-760 -13 c-3 -3
-12 -4 -19 -1 -8 3 -5 6 6 6 11 1 17 -2 13 -5z m146 -1 c-24 -2 -62 -2 -85 0
-24 2 -5 4 42 4 47 0 66 -2 43 -4z m5500 0 c-35 -2 -91 -2 -125 0 -35 2 -7 3
62 3 69 0 97 -1 63 -3z m-4886 -90 c-3 -10 -5 -2 -5 17 0 19 2 27 5 18 2 -10
2 -26 0 -35z m6770 -37 c6 -5 6 -277 0 -283 -3 -2 -67 -4 -143 -4 l-139 0 -5
141 c-3 78 -2 144 2 148 7 7 277 6 285 -2z m-6767 -153 l0 -158 -932 2 -933 3
-3 150 -3 150 933 3 c513 1 934 3 936 5 1 1 2 -69 2 -155z m-3918 37 c62 1
119 1 126 1 10 -1 12 -33 10 -143 l-3 -143 -138 0 -139 0 1 143 c0 78 0 147 1
153 0 8 4 8 14 0 9 -8 54 -12 128 -11z m2028 -355 c0 -80 0 -148 0 -152 0 -5
-66 -8 -147 -8 l-148 0 -3 153 -3 152 151 0 150 0 0 -145z m5475 76 c55 1 106
6 113 11 8 7 12 7 12 -1 0 -6 8 -11 18 -12 11 0 12 -2 4 -6 -10 -4 -13 -36
-11 -133 1 -128 -3 -156 -23 -144 -6 4 -14 0 -19 -7 -7 -11 -9 -12 -9 -1 0 11
-24 13 -114 11 -63 -2 -118 -1 -121 3 -9 9 -11 278 -2 278 5 0 5 4 2 10 -4 6
4 6 21 -1 16 -5 73 -9 129 -8z m-5790 -293 c3 -24 5 -90 3 -148 l-3 -105 -152
-3 -153 -3 0 151 0 150 149 0 150 0 6 -42z m4260 -124 l0 -148 -139 2 c-76 1
-141 3 -143 6 -6 5 -5 274 0 283 3 5 67 7 144 6 l138 -2 0 -147z m3468 -24 c4
0 7 -60 7 -134 0 -103 -3 -136 -14 -145 -15 -13 -276 -15 -276 -2 -1 14 -1
276 -1 281 1 4 143 4 284 0z m-1243 -431 l-5 -171 -148 -1 c-81 -1 -147 1
-147 6 0 4 63 7 140 7 l140 0 0 153 0 152 -582 -3 c-321 -1 -589 -4 -596 -7
-8 -3 -19 -2 -25 2 -7 4 -20 8 -30 8 -16 2 -17 -9 -15 -149 l3 -151 450 -5
c248 -3 451 -7 453 -8 1 -1 1 -86 0 -189 l-3 -188 -623 -3 c-544 -2 -625 0
-638 13 -10 9 -11 15 -4 15 9 0 11 45 10 163 -1 89 -2 167 -1 172 1 6 60 9
162 7 89 -2 164 0 168 5 3 4 4 83 1 176 l-5 167 650 0 650 0 -5 -171z m-40
104 c-1 -24 -2 -25 -11 -10 -9 16 -47 17 -564 17 -363 0 -555 3 -555 10 0 7
195 10 565 10 l565 0 0 -27z m-1160 -4 c0 -5 -4 -7 -10 -4 -6 4 -11 -25 -12
-77 l-2 -83 -3 73 c-3 52 -8 75 -18 79 -25 9 -16 23 15 23 17 0 30 -5 30 -11z
m1137 -121 c-2 -24 -4 -7 -4 37 0 44 2 63 4 43 2 -21 2 -57 0 -80z m-7440 96
c-3 -3 -12 -4 -19 -1 -8 3 -5 6 6 6 11 1 17 -2 13 -5z m6331 -155 c4 -1 192
-2 417 -3 263 -1 412 1 417 8 10 15 35 -10 41 -41 3 -15 -1 -32 -8 -40 -19
-19 -23 -16 -20 12 2 14 -1 27 -6 31 -5 3 -200 5 -433 4 -234 0 -426 3 -428 7
-3 4 -2 49 1 98 l6 90 3 -82 c2 -46 6 -84 10 -84z m-6358 137 c0 -2 -7 -9 -15
-16 -13 -11 -14 -10 -9 4 5 14 24 23 24 12z m9875 -16 c72 0 126 4 130 10 3 6
12 10 18 9 9 0 8 -2 -1 -6 -6 -2 -10 -9 -6 -14 6 -11 7 -279 0 -286 -6 -7
-276 -6 -283 1 -3 2 -5 61 -4 130 1 75 -2 127 -8 130 -6 4 -4 14 7 24 9 10 19
14 20 10 2 -4 59 -8 127 -8z m-9593 -152 l0 -143 -133 -3 c-73 -1 -136 1 -141
6 -11 11 -16 281 -6 285 5 1 69 1 144 0 l136 -2 0 -143z m6013 31 c4 -6 8 -23
9 -38 1 -20 -3 -27 -16 -28 -15 -1 -18 6 -18 38 0 38 12 51 25 28z m1098 -10
c89 -1 97 -3 97 -21 0 -10 -4 -17 -9 -14 -5 3 -11 -1 -15 -9 -4 -11 -23 -15
-81 -15 -48 0 -74 4 -70 10 3 6 37 10 76 10 41 0 69 4 69 10 0 7 -32 10 -87 8
-77 -3 -88 -5 -85 -20 2 -10 -3 -18 -11 -18 -10 0 -14 10 -13 28 2 34 16 58
25 44 4 -6 48 -12 104 -13z m-217 -56 c20 -27 16 -36 -8 -19 -19 14 -78 16
-433 16 -268 0 -405 4 -395 10 9 6 175 10 419 10 373 0 405 -1 417 -17z
m-2975 -95 c2 -7 3 -74 1 -148 l-3 -135 -141 2 c-77 1 -143 4 -146 7 -4 4 -6
269 -3 284 1 1 66 2 145 2 107 0 145 -3 147 -12z m3662 -420 l-3 -123 110 3
109 3 3 -138 c2 -76 0 -142 -4 -147 -5 -6 -55 -10 -113 -10 l-105 -1 0 103 0
102 -165 0 -165 0 0 -159 c0 -140 2 -160 17 -165 9 -4 82 -6 162 -5 l146 1 3
-161 2 -161 163 0 162 0 0 -1419 0 -1418 -630 -7 c-346 -4 -637 -9 -645 -12
-12 -3 -15 -29 -15 -156 0 -84 4 -159 9 -166 12 -20 1 -25 -31 -14 -17 6 -21
11 -10 11 15 1 17 15 15 154 -1 152 -3 152 -14 0 -3 -46 -10 -83 -15 -83 -5 0
-9 53 -9 118 l0 117 -825 -3 c-502 -1 -825 -6 -825 -12 0 -5 -21 -11 -47 -13
-47 -3 -47 -3 10 -5 32 -1 57 2 57 8 0 6 4 10 10 10 5 0 7 -7 4 -15 -4 -8 -1
-15 5 -15 7 0 11 -21 11 -55 0 -42 3 -55 15 -55 8 0 15 -4 15 -9 0 -5 19 -12
43 -16 23 -5 45 -9 50 -10 4 -1 12 -3 17 -4 6 0 10 -10 10 -21 0 -16 -6 -19
-35 -17 -19 2 -38 6 -41 10 -4 4 -17 7 -29 7 -11 0 -26 5 -33 12 -9 9 -12 8
-12 -4 0 -9 -3 -24 -7 -34 -6 -15 -1 -16 35 -11 23 3 42 1 42 -3 0 -5 -15 -11
-32 -13 -31 -4 -31 -4 6 -5 25 -1 48 -10 63 -24 22 -21 23 -27 23 -184 l0
-162 -36 -21 c-38 -22 -60 -27 -66 -12 -4 13 -25 14 -163 10 l-120 -3 130 -6
130 -6 -135 -3 c-74 -2 -126 -6 -116 -8 14 -4 16 -7 6 -13 -8 -5 -9 -13 -4
-21 5 -8 7 -55 5 -106 -3 -90 3 -133 18 -133 7 0 16 126 13 193 -1 25 1 27 26
20 25 -6 52 -25 52 -36 0 -14 -31 -14 -45 -1 -13 14 -15 7 -15 -70 l0 -86 460
0 c400 0 461 -2 466 -15 5 -12 27 -15 112 -15 58 0 103 -2 101 -4 -2 -3 -48
-6 -102 -7 -84 -2 -97 -5 -97 -20 0 -23 -20 -29 -91 -29 l-59 0 0 -177 0 -178
175 3 175 4 0 -361 0 -361 183 2 182 3 0 360 0 360 -177 3 -178 2 0 170 c0 93
-4 171 -8 174 -5 3 -47 6 -95 7 -112 2 -125 19 -15 19 46 0 115 5 153 11 39 6
120 12 182 13 62 1 115 4 117 7 9 9 8 271 -1 280 -4 4 -53 10 -108 12 -55 1
32 4 193 5 l292 2 0 -174 0 -173 340 -7 c261 -6 344 -5 355 4 12 10 15 46 16
179 1 91 3 158 6 149 4 -16 21 -18 169 -18 109 0 164 4 164 11 0 5 -4 7 -10 4
-5 -3 -10 -2 -10 3 0 6 8 13 18 17 19 8 361 9 369 1 3 -2 4 -79 3 -169 -1
-148 1 -165 16 -171 10 -4 90 -6 178 -5 l161 1 3 -186 c2 -125 6 -185 13 -181
13 9 10 -265 -3 -282 -13 -16 -6 -56 10 -59 7 -1 8 0 2 3 -5 2 -10 17 -9 31 0
26 1 26 9 5 9 -21 14 -22 152 -22 101 0 142 -3 140 -11 -1 -7 5 -9 18 -5 11 4
20 2 20 -4 1 -35 0 -362 -1 -368 -4 -29 2 -314 7 -327 6 -14 -12 -16 -180 -16
l-186 0 0 -355 0 -355 178 -2 177 -3 3 -177 2 -177 -32 -6 c-18 -3 -98 -5
-178 -3 l-145 3 -3 178 -2 177 -1590 0 -1590 0 0 345 0 345 -165 0 -165 0 -2
-162 -3 -163 -1122 -3 -1123 -2 0 165 0 165 -220 0 c-140 0 -220 4 -220 10 0
6 -37 10 -90 10 l-90 0 0 -169 c0 -141 -2 -170 -15 -175 -22 -8 -22 -316 0
-316 12 0 15 -24 17 -132 l3 -133 148 -3 147 -3 0 -464 0 -465 -765 0 -765 0
0 -150 0 -150 618 -2 617 -3 3 -158 3 -157 -623 2 -623 3 -3 152 -3 152 -152
3 -152 3 -3 152 -3 153 -154 0 -155 0 0 160 0 160 -150 0 -149 0 -3 153 -3
152 -152 3 c-180 3 -162 23 -166 -178 l-2 -135 -130 -3 c-192 -4 -175 -19
-175 158 l0 149 -152 3 -153 3 -3 618 -2 617 -310 0 -310 0 -1 150 c-1 83 -2
155 -3 160 -1 7 665 10 2019 10 1751 0 2021 -2 2031 -14 9 -13 207 -15 1460
-16 l1449 -1 -5 153 -5 153 -152 -4 c-84 -1 -153 1 -153 6 0 4 -2 71 -3 148
l-2 140 -122 3 -123 3 0 454 0 455 -182 0 -183 0 3 117 c2 65 -1 159 -5 208
-4 50 -6 134 -3 189 l5 99 183 -2 182 -2 0 309 0 309 -562 6 c-310 4 -838 7
-1175 7 l-611 0 1 -431 c2 -280 -1 -433 -8 -437 -5 -4 -218 -6 -472 -4 l-463
2 0 165 c0 98 -4 166 -10 170 -5 3 -10 2 -10 -4 0 -5 -8 -8 -18 -6 -9 2 -420
4 -913 4 l-896 1 -2 145 -2 145 906 0 906 0 -2 -131 c0 -71 2 -133 5 -136 3
-4 6 55 6 130 0 115 2 137 15 137 13 0 15 21 15 125 l0 125 -155 0 -155 0 0
160 0 160 -315 0 -315 0 0 326 0 326 150 -4 149 -3 3 135 c3 150 1 183 -13
175 -5 -4 -9 -3 -9 2 0 4 76 6 170 5 l170 -4 0 316 0 316 23 5 c12 3 157 5
322 3 l300 -3 3 -162 2 -163 155 0 155 0 0 165 0 166 156 -2 c86 0 162 -3 168
-5 8 -3 10 -50 8 -149 l-3 -145 143 -2 143 -2 -145 -6 -145 -5 138 -5 c76 -3
144 -3 151 0 10 4 13 43 13 160 l0 155 162 0 163 0 -1 -162 -2 -163 156 0 155
0 0 165 0 164 314 1 c244 0 316 -2 323 -12 4 -7 9 -150 10 -318 l3 -305 152
-2 153 -1 3 -481 2 -481 215 0 215 0 0 985 0 985 165 0 165 0 0 163 0 162 157
0 158 0 3 163 2 162 955 0 955 0 0 165 0 165 168 0 167 0 -2 -122z m-3322
-620 c1 -12 0 -285 -1 -300 0 -5 -72 -8 -160 -8 l-160 0 0 -119 c0 -66 -3
-122 -7 -124 -5 -3 -7 51 -5 119 l3 124 -2055 0 -2056 0 0 160 0 160 2220 0
c1769 0 2220 -3 2221 -12z m-1551 -558 c0 -5 -4 -10 -10 -10 -5 0 -10 5 -10
10 0 6 5 10 10 10 6 0 10 -4 10 -10z m610 0 c-8 -5 -24 -9 -35 -9 -16 1 -16 2
5 9 35 11 48 11 30 0z m-2227 -7 c-7 -2 -21 -2 -30 0 -10 3 -4 5 12 5 17 0 24
-2 18 -5z m1270 -10 c-7 -2 -19 -2 -25 0 -7 3 -2 5 12 5 14 0 19 -2 13 -5z
m1564 -15 c-3 -8 -6 -5 -6 6 -1 11 2 17 5 13 3 -3 4 -12 1 -19z m-1907 -8 c0
-11 -5 -20 -12 -20 -6 0 -8 3 -5 7 4 3 2 12 -4 20 -9 10 -8 13 5 13 9 0 16 -8
16 -20z m1000 10 c-20 -13 -33 -13 -25 0 3 6 14 10 23 10 15 0 15 -2 2 -10z
m280 0 c0 -5 -4 -10 -10 -10 -5 0 -10 5 -10 10 0 6 5 10 10 10 6 0 10 -4 10
-10z m-4880 -10 c0 -5 -5 -10 -11 -10 -5 0 -7 5 -4 10 3 6 8 10 11 10 2 0 4
-4 4 -10z m3410 1 c80 -4 -55 -5 -300 -3 -245 3 -447 6 -449 8 -7 6 594 2 749
-5z m438 2 c-38 -2 -98 -2 -135 0 -38 2 -7 3 67 3 74 0 105 -1 68 -3z m630 0
c-43 -2 -113 -2 -155 0 -43 1 -8 3 77 3 85 0 120 -2 78 -3z m875 0 c-78 -2
-208 -2 -290 0 -81 1 -17 3 142 3 160 0 226 -2 148 -3z m-528 -9 c-69 -7 -232
-8 -222 -2 7 4 66 7 132 6 66 -1 107 -3 90 -4z m-4552 -14 c16 0 17 -12 15
-142 l-3 -143 -139 0 -139 0 -1 142 c-1 79 2 144 6 145 7 3 60 2 261 -2z
m2360 -5 c-3 -9 -8 -14 -10 -11 -3 3 -2 9 2 15 9 16 15 13 8 -4z m2914 -37
c-3 -7 -5 -2 -5 12 0 14 2 19 5 13 2 -7 2 -19 0 -25z m0 -430 c-1 -79 -3 -17
-3 137 0 154 2 218 3 143 2 -75 2 -201 0 -280z m-2924 -99 c-5 -5 -6 103 -3
239 l5 247 3 -239 c1 -132 -1 -243 -5 -247z m-2636 284 c-3 -10 -5 -4 -5 12 0
17 2 24 5 18 2 -7 2 -21 0 -30z m4108 14 l120 -3 -124 0 c-102 1 -125 4 -128
16 -3 11 -2 12 4 3 6 -8 49 -13 128 -16z m7590 -249 l0 -143 -143 0 -143 0 0
133 c0 72 0 138 1 145 0 9 34 12 142 10 l143 -2 0 -143z m22 120 c-3 -8 -6 -5
-6 6 -1 11 2 17 5 13 3 -3 4 -12 1 -19z m-9057 -198 c0 -5 -7 -10 -16 -10 -8
0 -12 5 -9 10 3 6 10 10 16 10 5 0 9 -4 9 -10z m3180 0 c0 -5 -4 -10 -10 -10
-5 0 -10 5 -10 10 0 6 5 10 10 10 6 0 10 -4 10 -10z m-3533 -22 c-3 -8 -6 -5
-6 6 -1 11 2 17 5 13 3 -3 4 -12 1 -19z m25 -180 c3 -111 2 -128 -12 -127 -8
0 -10 2 -5 5 6 2 9 57 8 141 -1 76 0 131 2 123 2 -8 6 -72 7 -142z m9271 95
c-35 -2 -91 -2 -125 0 -35 2 -7 3 62 3 69 0 97 -1 63 -3z m-9370 -190 c-29 -2
-78 -2 -110 0 -32 2 -8 3 52 3 61 0 87 -1 58 -3z m-1540 -600 c-7 -2 -19 -2
-25 0 -7 3 -2 5 12 5 14 0 19 -2 13 -5z m222 -165 l0 -143 -125 -3 c-68 -2
-134 -1 -145 2 -19 5 -20 13 -20 143 0 76 3 140 7 143 3 3 68 4 145 3 l138 -1
0 -144z m9615 92 c3 0 4 -62 3 -137 l-2 -138 -141 -3 c-81 -1 -148 2 -158 7
-9 6 -12 11 -6 11 18 0 19 250 2 251 -7 0 -5 3 4 7 13 5 247 7 298 2z m-5557
-667 c-128 -2 -338 -2 -465 0 -128 1 -24 2 232 2 256 0 360 -1 233 -2z m-686
-215 c-1 -40 -3 -10 -3 67 0 77 1 110 3 73 2 -37 2 -100 0 -140z m910 5 c-2
-38 -3 -7 -3 67 0 74 1 105 3 68 2 -38 2 -98 0 -135z m-4074 -36 c4 -7 6 -73
5 -147 l-3 -135 -141 -3 -141 -3 -7 32 c-7 35 -9 263 -2 270 10 10 281 -3 289
-14z m3434 -29 c-3 -8 -6 -5 -6 6 -1 11 2 17 5 13 3 -3 4 -12 1 -19z m37 -3
c3 -8 1 -15 -4 -15 -6 0 -10 7 -10 15 0 8 2 15 4 15 2 0 6 -7 10 -15z m616
-35 c0 -5 -4 -10 -10 -10 -5 0 -10 5 -10 10 0 6 5 10 10 10 6 0 10 -4 10 -10z
m-1027 -7 c-40 -2 -106 -2 -145 0 -40 1 -8 3 72 3 80 0 112 -2 73 -3z m1270 0
c-40 -2 -106 -2 -145 0 -40 1 -8 3 72 3 80 0 112 -2 73 -3z m-1496 -150 c-2
-27 -3 -5 -3 47 0 52 1 74 3 48 2 -27 2 -69 0 -95z m1563 -111 c-11 -16 -11
-16 -6 1 3 10 7 71 8 135 l2 117 3 -118 c2 -74 0 -124 -7 -135z m-923 41 c-2
-32 -3 -8 -3 52 0 61 1 87 3 58 2 -29 2 -78 0 -110z m3383 106 c0 -14 -7 -19
-30 -19 -16 0 -30 5 -30 10 0 6 -9 10 -20 10 -36 0 -21 19 18 22 49 4 62 0 62
-23z m-965 10 c11 -16 -23 -46 -58 -53 -85 -16 -95 -17 -102 -6 -9 15 9 34 38
37 53 6 87 16 87 24 0 13 27 11 35 -2z m218 4 c-7 -2 -21 -2 -30 0 -10 3 -4 5
12 5 17 0 24 -2 18 -5z m587 -3 c0 -6 -32 -10 -75 -10 -61 0 -80 -4 -96 -19
-11 -10 -35 -22 -52 -25 -85 -16 -95 -17 -102 -6 -9 15 9 34 38 37 53 6 87 16
87 24 0 5 45 9 100 9 60 0 100 -4 100 -10z m325 -78 l6 -72 -126 0 c-120 0
-125 1 -125 21 0 11 -4 18 -10 14 -5 -3 -7 -12 -3 -20 3 -9 -1 -15 -11 -15
-14 0 -16 -21 -16 -175 l0 -175 -103 0 c-57 0 -138 3 -180 6 l-77 7 0 83 c0
45 5 86 10 89 6 3 10 41 10 84 0 68 3 80 23 99 21 20 27 21 56 11 18 -6 35 -9
38 -5 3 3 -8 9 -25 12 -41 8 -41 24 -1 24 19 0 28 -4 24 -11 -8 -12 201 -7
247 6 21 6 32 2 53 -19 24 -24 33 -26 110 -26 l85 0 0 72 c0 89 6 85 15 -10z
m-325 33 c0 -8 6 -15 13 -15 8 0 7 -4 -3 -10 -8 -5 -69 -9 -135 -8 -66 1 -101
3 -77 5 34 3 42 8 42 24 0 17 7 19 80 19 64 0 80 -3 80 -15z m-640 -11 c7 -7
34 -6 83 2 67 12 102 6 83 -13 -4 -5 -98 -9 -209 -9 -111 -1 -184 1 -162 3 22
2 43 10 47 17 8 15 143 15 158 0z m160 -34 c0 -5 -5 -10 -11 -10 -5 0 -7 5 -4
10 3 6 8 10 11 10 2 0 4 -4 4 -10z m500 0 c-14 -4 -61 -8 -105 -7 l-80 1 85 6
c126 9 129 9 100 0z m340 -16 c0 -8 -4 -14 -10 -14 -5 0 -10 9 -10 21 0 11 5
17 10 14 6 -3 10 -13 10 -21z m-879 -1 c10 -10 7 -12 -12 -11 -64 4 -352 -3
-346 -8 3 -3 84 -5 180 -4 152 1 175 -1 181 -15 3 -9 5 -87 4 -173 l-2 -157
-6 160 -6 160 -1 -168 c0 -92 -3 -170 -6 -174 -4 -3 -82 -6 -174 -6 l-168 -1
160 -6 160 -6 -162 -2 -162 -2 -20 29 c-19 26 -21 45 -23 188 l-2 158 -4 -145
c-3 -158 11 -265 36 -255 7 2 10 1 7 -5 -3 -5 11 -12 32 -15 21 -4 47 -9 58
-13 11 -3 48 -6 83 -7 53 -1 62 2 62 17 0 16 -10 18 -76 18 -41 0 -73 4 -70 8
4 7 70 8 191 2 28 -2 40 -5 28 -7 -13 -3 -23 -12 -23 -21 0 -24 -55 -46 -125
-49 -33 -1 -77 -5 -97 -9 -25 -4 -38 -2 -38 5 0 6 9 11 20 11 11 0 20 3 20 8
0 12 -78 42 -110 42 -25 0 -30 4 -30 23 1 19 2 20 13 6 9 -13 11 24 8 178 -4
259 -19 242 213 245 l171 2 -160 6 -160 6 172 0 c121 -1 176 -5 184 -13z
m-6490 -163 l0 -145 -127 -3 c-70 -2 -137 -1 -148 2 -20 5 -21 11 -18 151 l3
146 145 -3 145 -3 0 -145z m3166 128 c-3 -8 -6 -5 -6 6 -1 11 2 17 5 13 3 -3
4 -12 1 -19z m3363 2 c0 -5 -4 -10 -10 -10 -5 0 -10 5 -10 10 0 6 5 10 10 10
6 0 10 -4 10 -10z m-3577 -7 c-78 -2 -208 -2 -290 0 -81 1 -17 3 142 3 160 0
226 -2 148 -3z m483 -30 c-10 -10 -19 5 -10 18 6 11 8 11 12 0 2 -7 1 -15 -2
-18z m2624 -133 c0 -100 -4 -160 -10 -160 -6 0 -10 60 -10 160 0 100 4 160 10
160 6 0 10 -60 10 -160z m-3510 134 c0 -2 -7 -4 -15 -4 -8 0 -15 4 -15 10 0 5
7 7 15 4 8 -4 15 -8 15 -10z m193 -1 c-13 -2 -33 -2 -45 0 -13 2 -3 4 22 4 25
0 35 -2 23 -4z m712 -33 c3 -5 2 -10 -4 -10 -5 0 -13 5 -16 10 -3 6 -2 10 4
10 5 0 13 -4 16 -10z m335 6 c0 -3 -4 -8 -10 -11 -5 -3 -10 -1 -10 4 0 6 5 11
10 11 6 0 10 -2 10 -4z m17 -18 c-3 -8 -6 -5 -6 6 -1 11 2 17 5 13 3 -3 4 -12
1 -19z m-1314 -35 c-7 -68 -13 -78 -10 -16 2 45 -1 53 -18 56 -15 3 -13 5 6 6
26 1 26 0 22 -46z m347 -250 l-5 -288 -3 275 c-2 244 0 300 10 300 2 0 1 -129
-2 -287z m3663 -15 c-18 -18 -36 -29 -39 -25 -10 10 36 57 55 57 11 0 6 -10
-16 -32z m-1408 2 c-3 -5 -16 -10 -28 -9 -20 1 -20 2 3 9 14 4 26 8 28 9 2 1
0 -3 -3 -9z m35 -11 c0 -5 -4 -9 -8 -9 -5 0 -9 7 -9 15 0 8 4 12 9 9 4 -3 8
-9 8 -15z m1588 9 c18 -18 14 -38 -7 -38 -24 0 -33 13 -25 34 7 19 16 20 32 4z
m79 6 c-3 -3 -12 -4 -19 -1 -8 3 -5 6 6 6 11 1 17 -2 13 -5z m-902 -23 c0 -10
-21 -19 -67 -27 -37 -7 -72 -15 -77 -19 -16 -9 -21 11 -8 28 7 8 29 18 50 20
21 3 41 8 45 11 12 12 57 1 57 -13z m2475 9 c0 -6 -33 -10 -80 -10 -47 0 -80
4 -80 10 0 6 33 10 80 10 47 0 80 -4 80 -10z m-2808 -12 c-17 -8 -26 -8 -34 0
-9 9 -4 12 23 11 32 0 33 -1 11 -11z m98 2 c0 -5 -4 -10 -9 -10 -6 0 -13 5
-16 10 -3 6 1 10 9 10 9 0 16 -4 16 -10z m50 0 c0 -5 -4 -10 -9 -10 -6 0 -13
5 -16 10 -3 6 1 10 9 10 9 0 16 -4 16 -10z m1318 -130 l-2 -135 -3 128 -4 127
-84 0 c-50 0 -85 -4 -85 -10 0 -5 -7 -10 -15 -10 -8 0 -15 4 -15 8 0 5 -12 13
-27 18 -21 8 3 10 104 10 l133 -1 -2 -135z m-495 113 c-4 -11 -8 -13 -11 -5
-2 7 -9 9 -14 6 -7 -4 -8 -2 -4 4 12 19 36 15 29 -5z m-838 -23 c3 -5 -3 -10
-14 -10 -12 0 -21 5 -21 10 0 6 6 10 14 10 8 0 18 -4 21 -10z m1308 -9 c4 0 7
-7 7 -14 0 -9 -20 -13 -72 -13 -66 1 -93 9 -83 26 3 5 119 6 148 1z m-525 -30
c10 -6 8 -9 -10 -13 -30 -5 -58 1 -58 13 0 11 50 12 68 0z m307 -1 c3 -5 -5
-12 -18 -15 -35 -9 -80 -2 -85 13 -5 15 93 17 103 2z m-907 -7 c-10 -2 -26 -2
-35 0 -10 3 -2 5 17 5 19 0 27 -2 18 -5z m-741 -65 c-2 -13 -4 -3 -4 22 0 25
2 35 4 23 2 -13 2 -33 0 -45z m-2647 -98 c0 -5 -5 -10 -11 -10 -5 0 -7 5 -4
10 3 6 8 10 11 10 2 0 4 -4 4 -10z m2640 -277 l-5 -288 -3 275 c-2 244 0 300
10 300 2 0 1 -129 -2 -287z m1523 270 c-24 -2 -62 -2 -85 0 -24 2 -5 4 42 4
47 0 66 -2 43 -4z m-4168 -33 c3 -5 1 -10 -4 -10 -6 0 -11 5 -11 10 0 6 2 10
4 10 3 0 8 -4 11 -10z m365 0 c0 -5 -5 -10 -11 -10 -5 0 -7 5 -4 10 3 6 8 10
11 10 2 0 4 -4 4 -10z m-53 -16 c-3 -3 -12 -4 -19 -1 -8 3 -5 6 6 6 11 1 17
-2 13 -5z m478 -244 c-3 -5 -11 -10 -16 -10 -6 0 -7 5 -4 10 3 6 11 10 16 10
6 0 7 -4 4 -10z m7322 -139 c7 -3 -1 -341 -8 -341 -5 0 -9 10 -10 23 -1 21 -1
21 -9 -3 -8 -24 -8 -23 -9 8 -1 20 3 31 9 27 6 -4 10 43 10 132 l0 139 -25 0
c-14 0 -25 -4 -25 -8 0 -4 -54 -8 -120 -8 -85 0 -120 -3 -120 -12 0 -6 -3 -8
-6 -5 -4 4 -2 12 4 19 8 11 -93 12 -529 10 -490 -2 -539 -1 -539 14 0 15 59
16 688 11 378 -3 688 -6 689 -6z m-1362 -158 l0 -128 327 -2 c220 -2 329 1
334 8 3 6 4 12 2 14 -2 2 -149 6 -326 7 -177 2 -322 6 -322 11 0 4 216 7 479
7 264 0 482 4 485 9 3 4 28 4 56 -2 65 -13 54 -27 -21 -27 -56 0 -59 -1 -47
-20 7 -10 9 -22 5 -26 -3 -4 -151 -3 -328 2 -255 7 -323 6 -331 -4 -8 -9 -14
-9 -24 -1 -8 7 -62 9 -153 7 -133 -3 -140 -2 -145 17 -9 31 -7 255 2 255 4 0
7 -57 7 -127z m1028 120 c3 -5 -222 -7 -499 -5 l-504 3 0 -81 0 -80 155 0 c85
0 155 -3 155 -8 0 -4 -71 -7 -159 -7 l-159 0 -6 82 c-4 46 -4 88 -1 93 7 12
1011 14 1018 3z m284 -180 c-2 -37 -3 -9 -3 62 0 72 1 102 3 68 2 -34 2 -93 0
-130z m20 45 c-2 -24 -4 -5 -4 42 0 47 2 66 4 43 2 -24 2 -62 0 -85z m-980
-40 c-3 -8 -6 -5 -6 6 -1 11 2 17 5 13 3 -3 4 -12 1 -19z m20 0 c-3 -8 -6 -5
-6 6 -1 11 2 17 5 13 3 -3 4 -12 1 -19z m20 0 c-3 -8 -6 -5 -6 6 -1 11 2 17 5
13 3 -3 4 -12 1 -19z m20 0 c-3 -8 -6 -5 -6 6 -1 11 2 17 5 13 3 -3 4 -12 1
-19z m20 0 c-3 -8 -6 -5 -6 6 -1 11 2 17 5 13 3 -3 4 -12 1 -19z m20 0 c-3 -8
-6 -5 -6 6 -1 11 2 17 5 13 3 -3 4 -12 1 -19z m20 0 c-3 -8 -6 -5 -6 6 -1 11
2 17 5 13 3 -3 4 -12 1 -19z m20 0 c-3 -8 -6 -5 -6 6 -1 11 2 17 5 13 3 -3 4
-12 1 -19z m20 0 c-3 -8 -6 -5 -6 6 -1 11 2 17 5 13 3 -3 4 -12 1 -19z m20 0
c-3 -8 -6 -5 -6 6 -1 11 2 17 5 13 3 -3 4 -12 1 -19z m20 0 c-3 -8 -6 -5 -6 6
-1 11 2 17 5 13 3 -3 4 -12 1 -19z m20 0 c-3 -8 -6 -5 -6 6 -1 11 2 17 5 13 3
-3 4 -12 1 -19z m20 0 c-3 -8 -6 -5 -6 6 -1 11 2 17 5 13 3 -3 4 -12 1 -19z
m20 0 c-3 -8 -6 -5 -6 6 -1 11 2 17 5 13 3 -3 4 -12 1 -19z m20 0 c-3 -8 -6
-5 -6 6 -1 11 2 17 5 13 3 -3 4 -12 1 -19z m336 13 c4 0 7 -5 7 -11 0 -6 -62
-10 -165 -10 -126 0 -165 3 -165 13 0 9 36 12 158 11 86 -1 160 -2 165 -3z
m327 -28 l0 -33 -81 0 c-76 0 -80 1 -74 20 5 15 2 20 -14 20 -21 0 -37 16 -21
22 5 1 50 3 100 3 l90 0 0 -32z m0 -65 c0 -5 -39 -8 -87 -9 -49 0 -101 -2
-118 -3 -16 -1 -46 -3 -64 -4 -22 -1 -31 -6 -25 -11 5 -5 72 -7 156 -4 123 5
148 8 151 22 3 9 5 4 6 -11 l1 -28 -490 0 c-269 0 -492 0 -495 0 -3 0 -5 2 -5
6 0 3 146 5 325 4 201 0 325 3 325 9 0 5 10 13 23 17 51 17 297 27 297 12z
m-7385 -438 c3 -5 1 -10 -4 -10 -6 0 -11 5 -11 10 0 6 2 10 4 10 3 0 8 -4 11
-10z m-4285 -42 c3 -4 5 -69 4 -145 l-2 -138 -142 0 -142 0 0 138 c1 75 3 141
6 145 5 9 269 9 276 0z m7480 -1468 l0 -120 -170 0 -170 0 0 120 0 120 170 0
170 0 0 -120z m2840 25 l0 -96 -172 1 -173 2 -2 -73 c-1 -82 8 -98 59 -100 32
-2 32 -2 -7 -8 -23 -3 -42 -2 -45 4 -3 7 -372 10 -1075 10 l-1070 0 -3 165
c-1 90 0 170 2 177 4 11 243 13 1246 13 l1240 0 0 -95z m-297 -112 c-7 -2 -19
-2 -25 0 -7 3 -2 5 12 5 14 0 19 -2 13 -5z m170 0 c-29 -2 -77 -2 -105 0 -29
2 -6 3 52 3 58 0 81 -1 53 -3z m105 -140 c-10 -2 -28 -2 -40 0 -13 2 -5 4 17
4 22 1 32 -1 23 -4z m-5 -20 c-13 -2 -33 -2 -45 0 -13 2 -3 4 22 4 25 0 35 -2
23 -4z m2129 -257 c-1 -76 -3 -140 -5 -143 -7 -6 -278 -5 -284 1 -4 4 -6 188
-3 279 0 4 66 6 146 5 l147 -3 -1 -139z m-11914 -212 c1 -71 1 -138 -2 -149
-5 -19 -11 -20 -147 -15 l-142 5 1 145 c1 80 2 145 2 145 0 0 64 0 143 -1
l142 -1 3 -129z m7642 -89 l0 -185 683 2 682 3 -1 -170 0 -170 5 165 6 165 6
-153 c4 -94 10 -157 17 -164 9 -9 12 -2 12 29 0 23 -4 43 -9 45 -12 4 -19 258
-8 258 36 0 47 -94 31 -283 l-7 -77 -151 0 c-108 0 -156 4 -164 12 -10 10 -14
10 -20 0 -6 -9 -170 -12 -728 -14 l-719 -3 -2 -184 c-1 -100 -4 -186 -7 -189
-3 -3 -6 162 -6 366 0 236 4 373 10 377 6 4 10 75 10 181 l0 174 180 0 180 0
0 -185z m-7633 -107 c-3 -7 -5 -2 -5 12 0 14 2 19 5 13 2 -7 2 -19 0 -25z
m990 -54 c-3 -3 -12 -4 -19 -1 -8 3 -5 6 6 6 11 1 17 -2 13 -5z m8473 -21 c0
-5 228 -6 507 -3 280 3 512 3 516 2 4 -2 91 -4 193 -3 l184 0 0 -168 c0 -166
0 -169 -22 -175 -13 -3 -327 -6 -697 -6 -525 0 -672 3 -663 12 8 8 12 60 12
169 0 153 -1 158 -20 156 -20 -1 -21 -7 -19 -167 0 -91 -2 -163 -6 -160 -5 4
-8 215 -5 343 0 4 5 7 10 7 6 0 10 -3 10 -7z m-9757 -308 c10 -14 6 -305 -4
-305 -5 0 -9 4 -9 10 0 5 -56 11 -136 12 l-135 3 0 137 c0 76 2 141 4 145 8
12 271 10 280 -2z m3746 -140 l-5 -130 -2 126 c-1 69 1 129 5 132 9 9 9 17 2
-128z m3479 -146 c-1 -100 -5 -159 -12 -159 -5 0 -1 -7 10 -15 19 -14 19 -14
-1 -16 -60 -4 78 -18 180 -18 66 0 127 0 135 0 13 -1 15 -22 14 -131 0 -71 -3
-132 -5 -135 -7 -6 -1050 -7 -1057 0 -3 3 18 5 46 5 l52 0 0 155 0 154 158 3
157 3 3 157 c3 184 -20 164 184 160 l138 -3 -2 -160z m-3458 -5 c0 -2 -7 -4
-15 -4 -8 0 -15 4 -15 10 0 5 7 7 15 4 8 -4 15 -8 15 -10z m-3877 -31 c-24 -2
-62 -2 -85 0 -24 2 -5 4 42 4 47 0 66 -2 43 -4z m3805 1 c12 -4 22 -10 22 -16
0 -5 -8 -4 -19 2 -28 14 -244 13 -259 -2 -8 -8 -12 -9 -12 -1 0 6 6 14 13 16
17 8 228 8 255 1z m-608 -14 c0 -5 -2 -10 -4 -10 -3 0 -8 5 -11 10 -3 6 -1 10
4 10 6 0 11 -4 11 -10z m5885 -76 c19 -5 20 -13 18 -167 -1 -89 -2 -168 -2
-174 -1 -10 -114 -13 -531 -13 l-530 0 0 180 0 180 513 0 c281 0 521 -3 532
-6z m2909 -10 c8 -20 8 -308 0 -328 -5 -14 -131 -16 -1260 -16 l-1254 0 0 180
0 180 1254 0 c1129 0 1255 -2 1260 -16z m-4324 -42 c0 -20 -4 -23 -22 -18 -13
3 -79 7 -148 8 l-125 2 145 6 145 6 -158 2 c-108 1 -156 5 -152 13 5 6 62 9
161 8 l154 -2 0 -25z m-3287 -19 c-35 -2 -91 -2 -125 0 -35 2 -7 3 62 3 69 0
97 -1 63 -3z m-538 -125 l280 -3 -270 -3 c-277 -3 -315 0 -315 20 0 9 3 9 12
0 9 -9 90 -13 293 -14z m342 0 c-3 -8 -6 -5 -6 6 -1 11 2 17 5 13 3 -3 4 -12
1 -19z m-27 -4 c0 -8 -4 -12 -10 -9 -5 3 -10 10 -10 16 0 5 5 9 10 9 6 0 10
-7 10 -16z m-650 -39 c0 -8 -2 -15 -4 -15 -2 0 -6 7 -10 15 -3 8 -1 15 4 15 6
0 10 -7 10 -15z m2707 -442 c-7 -7 -139 -4 -146 3 -2 2 31 4 74 4 43 0 75 -3
72 -7z m-107 -23 c0 -5 -5 -10 -11 -10 -5 0 -7 5 -4 10 3 6 8 10 11 10 2 0 4
-4 4 -10z m-33 -22 c-3 -8 -6 -5 -6 6 -1 11 2 17 5 13 3 -3 4 -12 1 -19z"/>
<path d="M4250 12020 l-885 -5 923 -5 c507 -3 922 -2 922 1 0 13 -87 14 -960
9z"/>
<path d="M3230 11700 c-12 -8 -10 -10 8 -10 13 0 20 4 17 10 -7 12 -6 12 -25
0z"/>
<path d="M3088 11693 c23 -2 59 -2 80 0 20 2 1 4 -43 4 -44 0 -61 -2 -37 -4z"/>
<path d="M3295 11690 c4 -6 11 -8 16 -5 14 9 11 15 -7 15 -8 0 -12 -5 -9 -10z"/>
<path d="M2763 11383 c20 -2 54 -2 75 0 20 2 3 4 -38 4 -41 0 -58 -2 -37 -4z"/>
<path d="M2908 11383 c6 -2 18 -2 25 0 6 3 1 5 -13 5 -14 0 -19 -2 -12 -5z"/>
<path d="M2970 11376 c0 -9 7 -16 16 -16 9 0 14 5 12 12 -6 18 -28 21 -28 4z"/>
<path d="M4930 8095 l0 -154 155 -3 155 -3 3 -158 2 -157 -472 0 -473 0 0
-155 0 -155 785 0 785 0 0 155 0 155 -160 0 -161 0 3 158 3 157 158 3 157 3 0
154 0 155 -470 0 -470 0 0 -155z"/>
<path d="M7270 7900 l0 -320 159 0 160 0 1 320 0 320 -160 0 -160 0 0 -320z"/>
<path d="M8542 7903 l3 -318 158 -3 157 -3 0 321 0 320 -160 0 -160 0 2 -317z"/>
<path d="M3980 7775 l0 -156 153 3 152 3 3 153 3 152 -156 0 -155 0 0 -155z"/>
<path d="M1835 6529 c-10 -15 1 -23 20 -15 9 3 13 10 10 16 -8 13 -22 13 -30
-1z"/>
<path d="M1838 6468 c5 -5 16 -8 23 -6 8 3 3 7 -10 11 -17 4 -21 3 -13 -5z"/>
<path d="M1908 6463 c7 -3 16 -2 19 1 4 3 -2 6 -13 5 -11 0 -14 -3 -6 -6z"/>
<path d="M7130 6390 c0 -5 5 -10 10 -10 6 0 10 5 10 10 0 6 -4 10 -10 10 -5 0
-10 -4 -10 -10z"/>
<path d="M6993 6383 c26 -2 67 -2 90 0 23 2 2 3 -48 3 -49 0 -68 -1 -42 -3z"/>
<path d="M8823 6315 c0 -44 2 -61 4 -37 2 23 2 59 0 80 -2 20 -4 1 -4 -43z"/>
<path d="M6983 6363 c15 -2 39 -2 55 0 15 2 2 4 -28 4 -30 0 -43 -2 -27 -4z"/>
<path d="M7210 6099 c0 -5 5 -7 10 -4 6 3 10 8 10 11 0 2 -4 4 -10 4 -5 0 -10
-5 -10 -11z"/>
<path d="M7265 6100 c-3 -5 -1 -10 4 -10 6 0 11 5 11 10 0 6 -2 10 -4 10 -3 0
-8 -4 -11 -10z"/>
<path d="M7290 5920 c0 -93 4 -150 10 -150 6 0 10 57 10 150 0 93 -4 150 -10
150 -6 0 -10 -57 -10 -150z"/>
<path d="M9601 5644 c0 -11 3 -14 6 -6 3 7 2 16 -1 19 -3 4 -6 -2 -5 -13z"/>
<path d="M9608 5523 c-2 -54 -2 -100 0 -103 2 -2 70 -5 153 -5 l149 -1 0 103
0 103 -149 0 -150 0 -3 -97z"/>
<path d="M7168 5433 c68 -2 176 -2 240 0 64 1 9 3 -123 3 -132 0 -185 -2 -117
-3z"/>
<path d="M7788 5433 c6 -2 18 -2 25 0 6 3 1 5 -13 5 -14 0 -19 -2 -12 -5z"/>
<path d="M8373 5403 c-73 -2 -133 -7 -133 -11 0 -4 61 -7 135 -7 101 0 135 3
135 13 0 6 -1 11 -2 10 -2 -1 -63 -4 -135 -5z"/>
<path d="M9605 5390 c4 -6 67 -10 156 -10 93 0 149 4 149 10 0 6 -59 10 -156
10 -101 0 -153 -3 -149 -10z"/>
<path d="M9588 4664 c-2 -196 0 -360 3 -365 3 -6 78 -8 175 -7 l169 3 3 354
c2 277 -1 356 -10 363 -7 4 -86 8 -175 8 l-163 0 -2 -356z"/>
<path d="M8973 4993 c48 -2 125 -2 170 0 45 1 6 3 -88 3 -93 0 -130 -2 -82 -3z"/>
<path d="M10661 4974 c0 -11 3 -14 6 -6 3 7 2 16 -1 19 -3 4 -6 -2 -5 -13z"/>
<path d="M9045 4973 l155 -4 0 -88 c0 -64 -4 -92 -14 -100 -18 -15 -34 5 -17
22 6 6 11 43 11 82 l0 72 -121 2 -120 2 3 -121 3 -120 82 0 c49 0 83 4 83 10
0 6 -30 10 -70 10 -40 0 -70 4 -70 10 0 17 128 12 156 -7 39 -25 13 -33 -116
-33 -108 0 -116 -1 -116 -20 0 -18 9 -19 158 -22 87 -2 158 0 158 5 0 4 -12 7
-27 8 l-28 1 25 7 25 7 0 139 0 140 -158 0 -157 1 155 -3z m68 -172 c4 0 7 -5
7 -11 0 -6 -33 -10 -80 -10 -71 0 -91 6 -75 21 3 4 123 4 148 0z m68 -74 c-1
-12 -15 -9 -19 4 -3 6 1 10 8 8 6 -3 11 -8 11 -12z"/>
<path d="M8900 4840 c0 -73 4 -120 10 -120 6 0 10 47 10 120 0 73 -4 120 -10
120 -6 0 -10 -47 -10 -120z"/>
<path d="M10778 4663 c34 -2 90 -2 125 0 34 2 6 3 -63 3 -69 0 -97 -1 -62 -3z"/>
<path d="M7811 4194 c0 -11 3 -14 6 -6 3 7 2 16 -1 19 -3 4 -6 -2 -5 -13z"/>
<path d="M7811 3793 l-1 -193 175 0 174 0 3 178 3 177 -172 -3 c-158 -3 -172
-1 -176 15 -3 10 -5 -69 -6 -174z"/>
<path d="M9580 3773 l-1 -173 176 0 176 0 -1 173 -2 172 -173 0 -173 0 -2
-172z"/>
<path d="M2413 3633 l2 -308 153 -3 152 -3 0 311 0 310 -155 0 -154 0 2 -307z"/>
<path d="M3342 3633 l3 -308 153 -3 152 -3 0 311 0 310 -155 0 -155 0 2 -307z"/>
<path d="M3350 2555 l0 -155 150 0 150 0 0 155 0 155 -150 0 -150 0 0 -155z"/>
<path d="M3970 2555 l0 -155 150 0 150 0 0 155 0 155 -150 0 -150 0 0 -155z"/>
<path d="M2730 2240 l0 -150 150 0 150 0 0 150 0 150 -150 0 -150 0 0 -150z"/>
<path d="M1764 6285 c0 -66 1 -92 3 -57 2 34 2 88 0 120 -2 31 -3 3 -3 -63z"/>
<path d="M1512 6209 c-1 -28 3 -50 11 -56 7 -5 64 -6 132 -3 l120 6 -127 2
-127 2 -4 48 -3 47 -2 -46z"/>
<path d="M8317 6103 c-3 -5 27 -7 66 -5 129 5 144 9 40 10 -56 1 -104 -1 -106
-5z"/>
<path d="M8220 5921 c0 -132 3 -160 15 -165 13 -5 15 17 15 159 0 140 -2 165
-15 165 -13 0 -15 -24 -15 -159z"/>
<path d="M8183 5840 c0 -41 2 -58 4 -37 2 20 2 54 0 75 -2 20 -4 3 -4 -38z"/>
<path d="M7584 5920 c0 -91 2 -128 3 -82 2 45 2 119 0 165 -1 45 -3 8 -3 -83z"/>
<path d="M1223 6083 c15 -2 37 -2 50 0 12 2 0 4 -28 4 -27 0 -38 -2 -22 -4z"/>
<path d="M1428 6083 c7 -3 16 -2 19 1 4 3 -2 6 -13 5 -11 0 -14 -3 -6 -6z"/>
<path d="M1445 5890 c3 -5 8 -10 11 -10 2 0 4 5 4 10 0 6 -5 10 -11 10 -5 0
-7 -4 -4 -10z"/>
<path d="M1263 5833 c37 -2 96 -2 130 0 34 2 4 3 -68 3 -71 0 -99 -1 -62 -3z"/>
<path d="M8490 1600 l0 -150 548 -2 c301 -2 593 -2 650 0 l102 3 0 149 0 150
-650 0 -650 0 0 -150z"/>
<path d="M9800 1600 c0 -127 2 -150 15 -150 13 0 15 23 15 150 0 127 -2 150
-15 150 -13 0 -15 -23 -15 -150z"/>
<path d="M11694 1600 c0 -91 2 -128 3 -82 2 45 2 119 0 165 -1 45 -3 8 -3 -83z"/>
<path d="M10360 1600 c0 -125 2 -150 15 -150 11 0 15 17 18 73 l3 72 2 -72 2
-73 640 0 640 0 0 150 0 150 -660 0 -660 0 0 -150z"/>
<path d="M7770 964 c12 -4 14 -19 12 -75 -2 -44 1 -75 8 -84 10 -12 9 -16 -4
-21 -37 -14 2 -24 98 -24 70 0 115 5 140 15 l36 15 0 84 0 85 -107 -2 -108 -2
-3 -72 c-2 -46 1 -73 8 -74 5 -1 38 -2 72 -3 39 -1 63 -5 66 -13 4 -14 -89
-18 -145 -7 -30 6 -30 7 -32 77 -2 92 -7 107 -34 106 -13 -1 -16 -3 -7 -5z"/>
<path d="M8080 854 c0 -101 -1 -105 -20 -99 -11 4 -20 2 -20 -4 0 -7 -46 -11
-135 -11 -74 0 -135 -4 -135 -9 0 -15 20 -16 173 -13 l147 3 0 120 c0 65 -2
119 -5 119 -3 0 -5 -48 -5 -106z"/>
<path d="M8963 1033 c-411 -3 -473 -5 -473 -18 0 -13 60 -15 470 -15 307 0
470 -3 470 -10 0 -7 -163 -10 -470 -10 l-471 0 3 -87 3 -88 464 0 c363 0 465
-3 469 -12 3 -10 -95 -13 -467 -13 -307 0 -471 -3 -471 -10 0 -7 163 -10 469
-10 396 0 474 2 505 15 l36 15 0 86 c0 54 4 83 10 79 6 -3 10 -50 10 -106 0
-96 -1 -100 -20 -94 -11 4 -20 2 -20 -4 0 -8 -151 -11 -495 -11 -323 0 -495
-3 -495 -10 0 -7 180 -10 520 -10 l520 0 0 160 0 160 -47 -2 c-27 -2 -261 -4
-520 -5z m547 -24 c8 0 2 -5 -14 -9 -31 -10 -46 -6 -46 12 0 6 10 8 23 4 12
-3 29 -6 37 -7z"/>
<path d="M12089 1036 c-3 -4 -491 -6 -1083 -6 -954 0 -1076 -1 -1076 -15 0
-13 120 -15 1056 -15 701 0 1053 -3 1049 -10 -4 -7 -367 -10 -1056 -10 -693 0
-1049 -3 -1049 -10 0 -5 7 -10 15 -10 11 0 15 -18 17 -77 3 -76 4 -78 28 -78
24 0 25 3 28 73 3 64 5 72 22 72 18 0 20 -7 20 -70 0 -39 4 -71 10 -71 6 -1
510 -3 1120 -4 611 -1 1115 -3 1121 -4 5 0 7 -5 4 -11 -4 -7 -413 -10 -1196
-10 -786 0 -1189 -3 -1189 -10 0 -7 405 -10 1195 -10 l1195 0 16 25 c12 18 15
44 13 107 -4 81 -3 83 20 86 13 2 28 -2 32 -10 10 -15 12 -195 3 -185 -4 3 -7
42 -8 86 0 48 -5 80 -11 78 -6 -1 -10 -44 -9 -104 l1 -103 -1224 0 c-815 0
-1223 -3 -1223 -10 0 -7 407 -10 1221 -10 671 0 1224 -2 1229 -5 5 -3 11 -1
15 4 3 6 12 8 19 5 12 -4 14 89 7 296 -1 12 -14 16 -50 18 -28 1 -52 -2 -55
-6 -5 -8 -112 -6 -181 4 -22 3 -43 3 -46 0z m311 -26 c0 -5 -7 -10 -16 -10 -8
0 -12 5 -9 10 3 6 10 10 16 10 5 0 9 -4 9 -10z m-87 -24 c3 -8 3 -17 0 -20
-11 -10 -141 -7 -148 4 -3 6 -26 10 -50 10 -24 0 -47 5 -50 10 -4 6 38 10 118
10 98 0 126 -3 130 -14z"/>
<path d="M8084 160 c0 -91 2 -128 3 -82 2 45 2 119 0 165 -1 45 -3 8 -3 -83z"/>
<path d="M9524 160 c0 -91 2 -128 3 -82 2 45 2 119 0 165 -1 45 -3 8 -3 -83z"/>
<path d="M7080 155 l0 -155 30 0 30 0 0 155 0 155 -30 0 -30 0 0 -155z"/>
<path d="M7180 155 l0 -155 440 0 440 0 0 155 0 155 -440 0 -440 0 0 -155z"/>
<path d="M8490 155 l0 -155 505 0 505 0 0 155 0 155 -505 0 -505 0 0 -155z"/>
<path d="M9960 155 l0 -155 30 0 30 0 0 155 0 155 -30 0 -30 0 0 -155z"/>
<path d="M10060 155 l0 -155 1145 0 1145 0 0 155 0 155 -1145 0 -1145 0 0
-155z"/>
<path d="M12370 155 c0 -131 2 -155 15 -155 13 0 15 24 15 155 0 131 -2 155
-15 155 -13 0 -15 -24 -15 -155z"/>
</g>
</svg>
